version 1
nodes
0 "Bip01" -1
1 "Bip01 Footsteps" 0
2 "Bip01 Pelvis" 0
3 "Bip01 L Thigh" 2
4 "Bip01 L Calf" 3
5 "Bip01 L Foot" 4
6 "Bip01 L Toe0" 5
7 "Bip01 L Toe01" 6
8 "Bip01 L Toe02" 7
9 "Null 9" -1
10 "Bip01 R Thigh" 2
11 "Bip01 R Calf" 10
12 "Bip01 R Foot" 11
13 "Bip01 R Toe0" 12
14 "Bip01 R Toe01" 13
15 "Bip01 R Toe02" 14
16 "Null 16" -1
17 "Bip01 Spine" 2
18 "Bip01 Spine1" 17
19 "Bip01 Neck" 18
20 "Bip01 Head" 19
21 "Null 21" -1
22 "Bip01 Ponytail1" 20
23 "Bip01 Ponytail11" 22
24 "Null 24" -1
25 "Bip01 R Clavicle" 19
26 "Bip01 R UpperArm" 25
27 "Bip01 R Forearm" 26
28 "Bip01 R Hand" 27
29 "Bip01 R Finger0" 28
30 "Bip01 R Finger01" 29
31 "Bip01 R Finger02" 30
32 "Null 32" -1
33 "knife_gdf" 28
34 "Bip01 L Clavicle" 19
35 "Bip01 L UpperArm" 34
36 "Bip01 L Forearm" 35
37 "Bip01 L Hand" 36
38 "Bip01 L Finger0" 37
39 "Bip01 L Finger01" 38
40 "Bip01 L Finger02" 39
41 "Null 41" -1
42 "hand_bofdgne01" 37
43 "Bone01" 17
44 "Bone02" 43
45 "Bone03" 44
46 "Bone04" 45
47 "Bone05" 17
48 "Bone06" 47
49 "Bone07" 48
50 "Bone08" 49
end
skeleton
time 0
0 0.000000 0.000000 109.950928 0.000000 0.000000 -1.570795
1 0.000000 0.000000 -109.958252 0.000000 -0.000000 1.570795
2 0.000000 0.000000 0.000000 -1.570795 -1.570796 0.000000
3 -0.000014 0.000019 10.281536 0.000001 3.141591 -0.100000
4 49.430481 0.000000 -0.000000 -0.000000 -0.000000 -0.200000
5 49.430462 0.000001 -0.000000 0.000000 -0.000000 0.100000
6 11.591197 14.908227 0.000000 -0.000000 -0.000000 1.570796
7 4.161462 -0.000000 0.000000 0.000000 -0.000000 0.000000
8 4.161460 0.000000 0.000000 0.000000 -0.000000 0.000000
9 0.000000 0.000000 0.000000 0.000000 0.000000 0.000000
10 0.000014 -0.000009 -10.281536 0.000001 3.141591 -0.100000
11 49.430481 0.000000 -0.000000 -0.000000 -0.000000 -0.200000
12 49.430462 0.000001 0.000000 0.000000 -0.000000 0.100000
13 11.591197 14.908227 0.000000 0.000000 0.000000 1.570796
14 4.161462 -0.000000 0.000000 0.000000 -0.000000 0.000000
15 4.161458 -0.000000 0.000000 0.000000 -0.000000 0.000000
16 0.000000 0.000000 0.000000 0.000000 0.000000 0.000000
17 3.598549 -0.015762 0.000005 -0.000004 -0.000001 0.000796
18 19.801466 -0.020711 -0.000000 0.000000 -0.000000 0.000000
19 26.009638 -0.004092 -0.000000 0.000000 -0.000000 0.030000
20 5.140770 -0.000000 -0.000000 0.000000 0.000000 -0.030798
21 0.000000 0.000000 0.000000 0.000000 0.000000 0.000000
22 6.888315 -6.881610 -0.000019 -0.000005 0.000001 -2.749229
23 15.458327 -0.012906 -0.000000 -0.000000 0.000001 -0.219299
24 0.000000 0.000000 0.000000 0.000000 0.000000 0.000000
25 0.000000 0.004110 -6.477368 -0.000014 1.370796 3.110783
26 13.400166 -0.000000 0.000000 -0.000000 -1.183530 -0.000000
27 37.630424 0.000000 -0.000002 0.000000 -0.000000 -0.025467
28 27.473604 0.000000 0.000002 1.569921 0.000000 0.000000
29 10.423897 -1.809571 -0.029783 0.000875 -0.000000 -0.000000
30 3.624243 -0.000003 -0.000000 0.000000 -0.000000 0.000000
31 3.624247 0.000004 -0.000000 0.000000 -0.000000 0.000000
32 0.000000 0.000000 0.000000 0.000000 0.000000 0.000000
33 9.026139 3.666775 0.258435 -1.374363 -0.037857 1.754420
34 0.000000 0.004077 6.477368 -0.000014 -1.370796 3.110810
35 13.400166 0.000000 -0.000000 -0.000000 1.183530 0.000000
36 37.630432 0.000000 0.000001 0.000000 0.000000 -0.025467
37 27.473597 0.000000 0.000002 -1.569921 -0.000000 0.000000
38 10.423897 -1.809568 0.029783 -0.000875 0.000000 0.000000
39 3.624243 -0.000004 -0.000000 0.000000 -0.000000 0.000000
40 3.624246 0.000003 0.000000 0.000000 -0.000000 0.000000
41 0.000000 0.000000 0.000000 0.000000 0.000000 0.000000
42 9.000602 3.769935 0.531383 1.767230 -0.037854 -1.387172
43 15.155036 10.590148 0.000024 3.140796 -1.570796 0.000000
44 0.000000 -0.606424 -3.234268 -0.020312 -0.000000 -0.000000
45 0.000001 -3.638542 -20.011988 -0.119229 0.000000 -0.000000
46 0.000001 -0.606424 -26.480518 0.000000 -0.000000 0.000000
47 16.351946 -9.422812 -0.000022 3.140796 -1.570796 0.000000
48 0.000000 0.000000 -2.627838 -0.122942 -0.000000 -0.000000
49 0.000000 5.457817 -16.979876 0.119623 0.000000 -0.000000
50 0.000001 2.627836 -27.895494 0.000000 -0.000000 0.000000
end
triangles
HQhair407.tga
20 3.212900 -9.563900 181.622894 0.411621 -0.777339 0.475724 0.822800 0.625100
20 4.815100 -5.141300 184.007401 0.597879 -0.384087 0.703575 0.660300 0.742300
20 -0.003300 -6.376200 185.124496 0.000000 -0.477394 0.878689 0.744300 0.877800
HQhair407.tga
20 -0.003300 -6.376200 185.124496 0.000000 -0.477394 0.878689 0.744300 0.877800
20 -0.003300 -10.245899 181.394806 -0.000000 -0.896478 0.443089 0.933300 0.632500
20 3.212900 -9.563900 181.622894 0.411621 -0.777339 0.475724 0.822800 0.625100
HQhair407.tga
20 7.001800 -4.440600 179.694305 0.940803 -0.317001 0.120000 0.614800 0.555700
20 7.311300 -2.490300 181.472198 0.940385 -0.189997 0.282095 0.548800 0.641000
20 4.815100 -5.141300 184.007401 0.597879 -0.384087 0.703575 0.660300 0.742300
HQhair407.tga
20 4.815100 -5.141300 184.007401 0.597879 -0.384087 0.703575 0.660300 0.742300
20 5.064400 -7.963000 180.868896 0.788890 -0.533793 0.304496 0.749000 0.595300
20 7.001800 -4.440600 179.694305 0.940803 -0.317001 0.120000 0.614800 0.555700
HQhair407.tga
20 7.204400 -1.521900 175.864807 0.998015 -0.057801 -0.025000 0.488600 0.384000
20 7.311300 -2.490300 181.472198 0.940385 -0.189997 0.282095 0.548800 0.641000
20 7.001800 -4.440600 179.694305 0.940803 -0.317001 0.120000 0.614800 0.555700
HQhair407.tga
20 7.001800 -4.440600 179.694305 0.940803 -0.317001 0.120000 0.614800 0.555700
20 6.891700 -4.839100 177.223602 0.965843 -0.258711 0.014701 0.620900 0.443800
20 7.204400 -1.521900 175.864807 0.998015 -0.057801 -0.025000 0.488600 0.384000
HQhair407.tga
20 6.889700 1.177800 175.147995 0.960633 -0.168606 -0.220808 0.384700 0.355900
20 6.771400 1.442300 171.530701 0.992022 0.093102 0.085002 0.359500 0.214700
20 6.520000 4.842000 170.741699 0.941267 0.312789 0.127196 0.249100 0.188800
HQhair407.tga
20 7.276700 1.047000 176.626602 0.997325 0.059901 -0.041901 0.399000 0.434800
20 6.889700 1.177800 175.147995 0.960633 -0.168606 -0.220808 0.384700 0.355900
20 6.520000 4.842000 170.741699 0.941267 0.312789 0.127196 0.249100 0.188800
HQhair407.tga
20 6.520000 4.842000 170.741699 0.941267 0.312789 0.127196 0.249100 0.188800
20 6.952400 5.093600 181.555496 0.874102 0.393201 0.285201 0.271300 0.672000
20 7.371500 0.982400 182.064102 0.947757 0.036598 0.316886 0.426500 0.672700
HQhair407.tga
20 7.276700 1.047000 176.626602 0.997325 0.059901 -0.041901 0.399000 0.434800
20 6.520000 4.842000 170.741699 0.941267 0.312789 0.127196 0.249100 0.188800
20 7.371500 0.982400 182.064102 0.947757 0.036598 0.316886 0.426500 0.672700
HQhair407.tga
20 4.833600 -0.543100 185.439804 0.553218 -0.093903 0.827727 0.489800 0.815700
20 -0.003300 -1.381600 186.698502 0.000000 -0.145396 0.989374 0.537200 0.951600
20 -0.003300 -6.376200 185.124496 0.000000 -0.477394 0.878689 0.744300 0.877800
HQhair407.tga
20 -0.003300 -6.376200 185.124496 0.000000 -0.477394 0.878689 0.744300 0.877800
20 4.815100 -5.141300 184.007401 0.597879 -0.384087 0.703575 0.660300 0.742300
20 4.833600 -0.543100 185.439804 0.553218 -0.093903 0.827727 0.489800 0.815700
HQhair407.tga
20 7.204400 -1.521900 175.864807 0.998015 -0.057801 -0.025000 0.488600 0.384000
20 7.276700 1.047000 176.626602 0.997325 0.059901 -0.041901 0.399000 0.434800
20 7.371500 0.982400 182.064102 0.947757 0.036598 0.316886 0.426500 0.672700
HQhair407.tga
20 7.371500 0.982400 182.064102 0.947757 0.036598 0.316886 0.426500 0.672700
20 7.311300 -2.490300 181.472198 0.940385 -0.189997 0.282095 0.548800 0.641000
20 7.204400 -1.521900 175.864807 0.998015 -0.057801 -0.025000 0.488600 0.384000
HQhair407.tga
20 7.311300 -2.490300 181.472198 0.940385 -0.189997 0.282095 0.548800 0.641000
20 7.371500 0.982400 182.064102 0.947757 0.036598 0.316886 0.426500 0.672700
20 4.833600 -0.543100 185.439804 0.553218 -0.093903 0.827727 0.489800 0.815700
HQhair407.tga
20 4.833600 -0.543100 185.439804 0.553218 -0.093903 0.827727 0.489800 0.815700
20 4.815100 -5.141300 184.007401 0.597879 -0.384087 0.703575 0.660300 0.742300
20 7.311300 -2.490300 181.472198 0.940385 -0.189997 0.282095 0.548800 0.641000
HQhair407.tga
20 4.373400 8.723999 179.294907 0.542493 0.829289 0.134098 0.127000 0.585900
20 6.952400 5.093600 181.555496 0.874102 0.393201 0.285201 0.271300 0.672000
20 6.520000 4.842000 170.741699 0.941267 0.312789 0.127196 0.249100 0.188800
HQhair407.tga
20 6.520000 4.842000 170.741699 0.941267 0.312789 0.127196 0.249100 0.188800
20 4.939200 7.597700 169.974701 0.595695 0.795293 0.112499 0.145500 0.164500
20 4.373400 8.723999 179.294907 0.542493 0.829289 0.134098 0.127000 0.585900
HQhair407.tga
20 -0.003300 9.999401 178.638107 -0.000000 0.994344 0.106205 0.044300 0.546800
20 4.373400 8.723999 179.294907 0.542493 0.829289 0.134098 0.127000 0.585900
20 4.939200 7.597700 169.974701 0.595695 0.795293 0.112499 0.145500 0.164500
HQhair407.tga
20 4.939200 7.597700 169.974701 0.595695 0.795293 0.112499 0.145500 0.164500
20 -0.003300 8.962801 169.470596 0.000000 0.998589 0.053099 0.036800 0.153600
20 -0.003300 9.999401 178.638107 -0.000000 0.994344 0.106205 0.044300 0.546800
HQhair407.tga
20 4.606600 3.330400 185.336594 0.504021 0.260611 0.823435 0.346300 0.825300
20 -0.003300 2.272000 186.549103 0.000000 0.205799 0.978594 0.371700 0.956200
20 -0.003300 -1.381600 186.698502 0.000000 -0.145396 0.989374 0.537200 0.951600
HQhair407.tga
20 -0.003300 -1.381600 186.698502 0.000000 -0.145396 0.989374 0.537200 0.951600
20 4.833600 -0.543100 185.439804 0.553218 -0.093903 0.827727 0.489800 0.815700
20 4.606600 3.330400 185.336594 0.504021 0.260611 0.823435 0.346300 0.825300
HQhair407.tga
20 4.606600 3.330400 185.336594 0.504021 0.260611 0.823435 0.346300 0.825300
20 4.833600 -0.543100 185.439804 0.553218 -0.093903 0.827727 0.489800 0.815700
20 7.371500 0.982400 182.064102 0.947757 0.036598 0.316886 0.426500 0.672700
HQhair407.tga
20 7.371500 0.982400 182.064102 0.947757 0.036598 0.316886 0.426500 0.672700
20 6.952400 5.093600 181.555496 0.874102 0.393201 0.285201 0.271300 0.672000
20 4.606600 3.330400 185.336594 0.504021 0.260611 0.823435 0.346300 0.825300
HQhair407.tga
20 3.005200 7.320600 183.738602 0.347086 0.678173 0.647775 0.183000 0.785600
20 4.606600 3.330400 185.336594 0.504021 0.260611 0.823435 0.346300 0.825300
20 6.952400 5.093600 181.555496 0.874102 0.393201 0.285201 0.271300 0.672000
HQhair407.tga
20 -0.003300 9.999401 178.638107 -0.000000 0.994344 0.106205 0.044300 0.546800
20 -0.003300 8.027201 183.769501 0.000000 0.757560 0.652766 0.089600 0.793800
20 3.005200 7.320600 183.738602 0.347086 0.678173 0.647775 0.183000 0.785600
HQhair407.tga
20 3.005200 7.320600 183.738602 0.347086 0.678173 0.647775 0.183000 0.785600
20 4.373400 8.723999 179.294907 0.542493 0.829289 0.134098 0.127000 0.585900
20 -0.003300 9.999401 178.638107 -0.000000 0.994344 0.106205 0.044300 0.546800
HQhair407.tga
20 3.005200 7.320600 183.738602 0.347086 0.678173 0.647775 0.183000 0.785600
20 -0.003300 8.027201 183.769501 0.000000 0.757560 0.652766 0.089600 0.793800
20 -0.003300 2.272000 186.549103 0.000000 0.205799 0.978594 0.371700 0.956200
HQhair407.tga
20 -0.003300 2.272000 186.549103 0.000000 0.205799 0.978594 0.371700 0.956200
20 4.606600 3.330400 185.336594 0.504021 0.260611 0.823435 0.346300 0.825300
20 3.005200 7.320600 183.738602 0.347086 0.678173 0.647775 0.183000 0.785600
HQhair407.tga
20 5.064400 -7.963000 180.868896 0.788890 -0.533793 0.304496 0.749000 0.595300
20 4.815100 -5.141300 184.007401 0.597879 -0.384087 0.703575 0.660300 0.742300
20 3.212900 -9.563900 181.622894 0.411621 -0.777339 0.475724 0.822800 0.625100
HQhair407.tga
20 5.064400 -7.963000 180.868896 0.788890 -0.533793 0.304496 0.749000 0.595300
20 5.207800 -8.398600 178.525696 0.811996 -0.562898 0.154299 0.756900 0.489000
20 6.891700 -4.839100 177.223602 0.965843 -0.258711 0.014701 0.620900 0.443800
HQhair407.tga
20 6.891700 -4.839100 177.223602 0.965843 -0.258711 0.014701 0.620900 0.443800
20 7.001800 -4.440600 179.694305 0.940803 -0.317001 0.120000 0.614800 0.555700
20 5.064400 -7.963000 180.868896 0.788890 -0.533793 0.304496 0.749000 0.595300
HQhair407.tga
20 -0.003300 -10.245899 181.394806 -0.000000 -0.896478 0.443089 0.933300 0.632500
20 -0.003300 -10.942299 176.985901 -0.000000 -0.987758 0.155993 0.970900 0.385600
20 3.449500 -10.211000 178.048904 0.401421 -0.898547 0.177409 0.848500 0.459000
HQhair407.tga
20 3.449500 -10.211000 178.048904 0.401421 -0.898547 0.177409 0.848500 0.459000
20 3.212900 -9.563900 181.622894 0.411621 -0.777339 0.475724 0.822800 0.625100
20 -0.003300 -10.245899 181.394806 -0.000000 -0.896478 0.443089 0.933300 0.632500
HQhair407.tga
20 5.207800 -8.398600 178.525696 0.811996 -0.562898 0.154299 0.756900 0.489000
20 5.064400 -7.963000 180.868896 0.788890 -0.533793 0.304496 0.749000 0.595300
20 3.212900 -9.563900 181.622894 0.411621 -0.777339 0.475724 0.822800 0.625100
HQhair407.tga
20 3.212900 -9.563900 181.622894 0.411621 -0.777339 0.475724 0.822800 0.625100
20 3.449500 -10.211000 178.048904 0.401421 -0.898547 0.177409 0.848500 0.459000
20 5.207800 -8.398600 178.525696 0.811996 -0.562898 0.154299 0.756900 0.489000
HQhair407.tga
20 6.976900 5.437900 168.626404 0.873927 0.400913 0.274809 0.246000 0.080200
20 5.194100 8.094799 167.721497 0.480793 0.846187 0.229796 0.140900 0.056300
20 4.939200 7.597700 169.974701 0.595695 0.795293 0.112499 0.145500 0.164500
HQhair407.tga
20 4.939200 7.597700 169.974701 0.595695 0.795293 0.112499 0.145500 0.164500
20 6.520000 4.842000 170.741699 0.941267 0.312789 0.127196 0.249100 0.188800
20 6.976900 5.437900 168.626404 0.873927 0.400913 0.274809 0.246000 0.080200
HQhair407.tga
20 -0.003300 8.962801 169.470596 0.000000 0.998589 0.053099 0.036800 0.153600
20 4.939200 7.597700 169.974701 0.595695 0.795293 0.112499 0.145500 0.164500
20 5.194100 8.094799 167.721497 0.480793 0.846187 0.229796 0.140900 0.056300
HQhair407.tga
20 5.194100 8.094799 167.721497 0.480793 0.846187 0.229796 0.140900 0.056300
20 -0.003300 9.449900 166.799301 0.000000 0.983777 0.179396 0.037600 0.047300
20 -0.003300 8.962801 169.470596 0.000000 0.998589 0.053099 0.036800 0.153600
HQhair407.tga
20 6.520000 4.842000 170.741699 0.941267 0.312789 0.127196 0.249100 0.188800
20 6.771400 1.442300 171.530701 0.992022 0.093102 0.085002 0.359500 0.214700
20 7.412600 1.632900 168.923294 0.960961 0.128395 0.245090 0.336700 0.100900
HQhair407.tga
20 7.412600 1.632900 168.923294 0.960961 0.128395 0.245090 0.336700 0.100900
20 6.976900 5.437900 168.626404 0.873927 0.400913 0.274809 0.246000 0.080200
20 6.520000 4.842000 170.741699 0.941267 0.312789 0.127196 0.249100 0.188800
HQhair407.tga
20 6.952400 5.093600 181.555496 0.874102 0.393201 0.285201 0.271300 0.672000
20 4.373400 8.723999 179.294907 0.542493 0.829289 0.134098 0.127000 0.585900
20 3.005200 7.320600 183.738602 0.347086 0.678173 0.647775 0.183000 0.785600
HQhair407.tga
20 -3.219500 -9.563900 181.622894 -0.411620 -0.777339 0.475724 0.822800 0.625100
20 -0.003300 -10.245899 181.394806 -0.000000 -0.896478 0.443089 0.933300 0.632500
20 -0.003300 -6.376200 185.124496 0.000000 -0.477394 0.878689 0.744300 0.877800
HQhair407.tga
20 -0.003300 -6.376200 185.124496 0.000000 -0.477394 0.878689 0.744300 0.877800
20 -4.821600 -5.141300 184.007401 -0.597879 -0.384087 0.703575 0.660300 0.742300
20 -3.219500 -9.563900 181.622894 -0.411620 -0.777339 0.475724 0.822800 0.625100
HQhair407.tga
20 -7.008400 -4.440600 179.694305 -0.940803 -0.317001 0.120000 0.614800 0.555700
20 -5.070900 -7.963000 180.868896 -0.788890 -0.533793 0.304496 0.749000 0.595300
20 -4.821600 -5.141300 184.007401 -0.597879 -0.384087 0.703575 0.660300 0.742300
HQhair407.tga
20 -4.821600 -5.141300 184.007401 -0.597879 -0.384087 0.703575 0.660300 0.742300
20 -7.317900 -2.490300 181.472198 -0.940385 -0.189997 0.282095 0.548800 0.641000
20 -7.008400 -4.440600 179.694305 -0.940803 -0.317001 0.120000 0.614800 0.555700
HQhair407.tga
20 -7.211000 -1.521900 175.864807 -0.998015 -0.057801 -0.025000 0.488600 0.384000
20 -6.898300 -4.839100 177.223602 -0.965843 -0.258711 0.014701 0.620900 0.443800
20 -7.008400 -4.440600 179.694305 -0.940803 -0.317001 0.120000 0.614800 0.555700
HQhair407.tga
20 -7.008400 -4.440600 179.694305 -0.940803 -0.317001 0.120000 0.614800 0.555700
20 -7.317900 -2.490300 181.472198 -0.940385 -0.189997 0.282095 0.548800 0.641000
20 -7.211000 -1.521900 175.864807 -0.998015 -0.057801 -0.025000 0.488600 0.384000
HQhair407.tga
20 -7.378100 0.982400 182.064102 -0.947757 0.036598 0.316886 0.426500 0.672700
20 -6.958900 5.093600 181.555496 -0.874102 0.393201 0.285201 0.271300 0.672000
20 -6.526600 4.842000 170.741699 -0.941267 0.312789 0.127196 0.249100 0.188800
HQhair407.tga
20 -7.283300 1.047000 176.626602 -0.997325 0.059901 -0.041901 0.399000 0.434800
20 -7.378100 0.982400 182.064102 -0.947757 0.036598 0.316886 0.426500 0.672700
20 -6.526600 4.842000 170.741699 -0.941267 0.312789 0.127196 0.249100 0.188800
HQhair407.tga
20 -6.526600 4.842000 170.741699 -0.941267 0.312789 0.127196 0.249100 0.188800
20 -6.777900 1.442300 171.530701 -0.992022 0.093102 0.085002 0.359500 0.214700
20 -6.896200 1.177800 175.147995 -0.960633 -0.168606 -0.220808 0.384700 0.355900
HQhair407.tga
20 -7.283300 1.047000 176.626602 -0.997325 0.059901 -0.041901 0.399000 0.434800
20 -6.526600 4.842000 170.741699 -0.941267 0.312789 0.127196 0.249100 0.188800
20 -6.896200 1.177800 175.147995 -0.960633 -0.168606 -0.220808 0.384700 0.355900
HQhair407.tga
20 -4.840200 -0.543100 185.439804 -0.553218 -0.093903 0.827727 0.489800 0.815700
20 -4.821600 -5.141300 184.007401 -0.597879 -0.384087 0.703575 0.660300 0.742300
20 -0.003300 -6.376200 185.124496 0.000000 -0.477394 0.878689 0.744300 0.877800
HQhair407.tga
20 -0.003300 -6.376200 185.124496 0.000000 -0.477394 0.878689 0.744300 0.877800
20 -0.003300 -1.381600 186.698502 0.000000 -0.145396 0.989374 0.537200 0.951600
20 -4.840200 -0.543100 185.439804 -0.553218 -0.093903 0.827727 0.489800 0.815700
HQhair407.tga
20 -7.211000 -1.521900 175.864807 -0.998015 -0.057801 -0.025000 0.488600 0.384000
20 -7.317900 -2.490300 181.472198 -0.940385 -0.189997 0.282095 0.548800 0.641000
20 -7.378100 0.982400 182.064102 -0.947757 0.036598 0.316886 0.426500 0.672700
HQhair407.tga
20 -7.378100 0.982400 182.064102 -0.947757 0.036598 0.316886 0.426500 0.672700
20 -7.283300 1.047000 176.626602 -0.997325 0.059901 -0.041901 0.399000 0.434800
20 -7.211000 -1.521900 175.864807 -0.998015 -0.057801 -0.025000 0.488600 0.384000
HQhair407.tga
20 -7.317900 -2.490300 181.472198 -0.940385 -0.189997 0.282095 0.548800 0.641000
20 -4.821600 -5.141300 184.007401 -0.597879 -0.384087 0.703575 0.660300 0.742300
20 -4.840200 -0.543100 185.439804 -0.553218 -0.093903 0.827727 0.489800 0.815700
HQhair407.tga
20 -4.840200 -0.543100 185.439804 -0.553218 -0.093903 0.827727 0.489800 0.815700
20 -7.378100 0.982400 182.064102 -0.947757 0.036598 0.316886 0.426500 0.672700
20 -7.317900 -2.490300 181.472198 -0.940385 -0.189997 0.282095 0.548800 0.641000
HQhair407.tga
20 -4.379900 8.724001 179.294907 -0.542493 0.829289 0.134098 0.127000 0.585900
20 -4.945800 7.597700 169.974701 -0.595695 0.795293 0.112499 0.145500 0.164500
20 -6.526600 4.842000 170.741699 -0.941267 0.312789 0.127196 0.249100 0.188800
HQhair407.tga
20 -6.526600 4.842000 170.741699 -0.941267 0.312789 0.127196 0.249100 0.188800
20 -6.958900 5.093600 181.555496 -0.874102 0.393201 0.285201 0.271300 0.672000
20 -4.379900 8.724001 179.294907 -0.542493 0.829289 0.134098 0.127000 0.585900
HQhair407.tga
20 -0.003300 9.999401 178.638107 -0.000000 0.994344 0.106205 0.044300 0.546800
20 -0.003300 8.962801 169.470596 0.000000 0.998589 0.053099 0.036800 0.153600
20 -4.945800 7.597700 169.974701 -0.595695 0.795293 0.112499 0.145500 0.164500
HQhair407.tga
20 -4.945800 7.597700 169.974701 -0.595695 0.795293 0.112499 0.145500 0.164500
20 -4.379900 8.724001 179.294907 -0.542493 0.829289 0.134098 0.127000 0.585900
20 -0.003300 9.999401 178.638107 -0.000000 0.994344 0.106205 0.044300 0.546800
HQhair407.tga
20 -4.613200 3.330400 185.336594 -0.504021 0.260611 0.823435 0.346300 0.825300
20 -4.840200 -0.543100 185.439804 -0.553218 -0.093903 0.827727 0.489800 0.815700
20 -0.003300 -1.381600 186.698502 0.000000 -0.145396 0.989374 0.537200 0.951600
HQhair407.tga
20 -0.003300 -1.381600 186.698502 0.000000 -0.145396 0.989374 0.537200 0.951600
20 -0.003300 2.272000 186.549103 0.000000 0.205799 0.978594 0.371700 0.956200
20 -4.613200 3.330400 185.336594 -0.504021 0.260611 0.823435 0.346300 0.825300
HQhair407.tga
20 -4.613200 3.330400 185.336594 -0.504021 0.260611 0.823435 0.346300 0.825300
20 -6.958900 5.093600 181.555496 -0.874102 0.393201 0.285201 0.271300 0.672000
20 -7.378100 0.982400 182.064102 -0.947757 0.036598 0.316886 0.426500 0.672700
HQhair407.tga
20 -7.378100 0.982400 182.064102 -0.947757 0.036598 0.316886 0.426500 0.672700
20 -4.840200 -0.543100 185.439804 -0.553218 -0.093903 0.827727 0.489800 0.815700
20 -4.613200 3.330400 185.336594 -0.504021 0.260611 0.823435 0.346300 0.825300
HQhair407.tga
20 -3.011700 7.320600 183.738602 -0.347086 0.678173 0.647775 0.183000 0.785600
20 -6.958900 5.093600 181.555496 -0.874102 0.393201 0.285201 0.271300 0.672000
20 -4.613200 3.330400 185.336594 -0.504021 0.260611 0.823435 0.346300 0.825300
HQhair407.tga
20 -0.003300 9.999401 178.638107 -0.000000 0.994344 0.106205 0.044300 0.546800
20 -4.379900 8.724001 179.294907 -0.542493 0.829289 0.134098 0.127000 0.585900
20 -3.011700 7.320600 183.738602 -0.347086 0.678173 0.647775 0.183000 0.785600
HQhair407.tga
20 -3.011700 7.320600 183.738602 -0.347086 0.678173 0.647775 0.183000 0.785600
20 -0.003300 8.027201 183.769501 0.000000 0.757560 0.652766 0.089600 0.793800
20 -0.003300 9.999401 178.638107 -0.000000 0.994344 0.106205 0.044300 0.546800
HQhair407.tga
20 -3.011700 7.320600 183.738602 -0.347086 0.678173 0.647775 0.183000 0.785600
20 -4.613200 3.330400 185.336594 -0.504021 0.260611 0.823435 0.346300 0.825300
20 -0.003300 2.272000 186.549103 0.000000 0.205799 0.978594 0.371700 0.956200
HQhair407.tga
20 -0.003300 2.272000 186.549103 0.000000 0.205799 0.978594 0.371700 0.956200
20 -0.003300 8.027201 183.769501 0.000000 0.757560 0.652766 0.089600 0.793800
20 -3.011700 7.320600 183.738602 -0.347086 0.678173 0.647775 0.183000 0.785600
HQhair407.tga
20 -5.070900 -7.963000 180.868896 -0.788890 -0.533793 0.304496 0.749000 0.595300
20 -3.219500 -9.563900 181.622894 -0.411620 -0.777339 0.475724 0.822800 0.625100
20 -4.821600 -5.141300 184.007401 -0.597879 -0.384087 0.703575 0.660300 0.742300
HQhair407.tga
20 -5.070900 -7.963000 180.868896 -0.788890 -0.533793 0.304496 0.749000 0.595300
20 -7.008400 -4.440600 179.694305 -0.940803 -0.317001 0.120000 0.614800 0.555700
20 -6.898300 -4.839100 177.223602 -0.965843 -0.258711 0.014701 0.620900 0.443800
HQhair407.tga
20 -6.898300 -4.839100 177.223602 -0.965843 -0.258711 0.014701 0.620900 0.443800
20 -5.214400 -8.398600 178.525696 -0.811996 -0.562898 0.154299 0.756900 0.489000
20 -5.070900 -7.963000 180.868896 -0.788890 -0.533793 0.304496 0.749000 0.595300
HQhair407.tga
20 -0.003300 -10.245899 181.394806 -0.000000 -0.896478 0.443089 0.933300 0.632500
20 -3.219500 -9.563900 181.622894 -0.411620 -0.777339 0.475724 0.822800 0.625100
20 -3.456100 -10.211000 178.048904 -0.401421 -0.898547 0.177409 0.848500 0.459000
HQhair407.tga
20 -3.456100 -10.211000 178.048904 -0.401421 -0.898547 0.177409 0.848500 0.459000
20 -0.003300 -10.942299 176.985901 -0.000000 -0.987758 0.155993 0.970900 0.385600
20 -0.003300 -10.245899 181.394806 -0.000000 -0.896478 0.443089 0.933300 0.632500
HQhair407.tga
20 -5.214400 -8.398600 178.525696 -0.811996 -0.562898 0.154299 0.756900 0.489000
20 -3.456100 -10.211000 178.048904 -0.401421 -0.898547 0.177409 0.848500 0.459000
20 -3.219500 -9.563900 181.622894 -0.411620 -0.777339 0.475724 0.822800 0.625100
HQhair407.tga
20 -3.219500 -9.563900 181.622894 -0.411620 -0.777339 0.475724 0.822800 0.625100
20 -5.070900 -7.963000 180.868896 -0.788890 -0.533793 0.304496 0.749000 0.595300
20 -5.214400 -8.398600 178.525696 -0.811996 -0.562898 0.154299 0.756900 0.489000
HQhair407.tga
20 -6.983500 5.437900 168.626404 -0.873927 0.400913 0.274809 0.246000 0.080200
20 -6.526600 4.842000 170.741699 -0.941267 0.312789 0.127196 0.249100 0.188800
20 -4.945800 7.597700 169.974701 -0.595695 0.795293 0.112499 0.145500 0.164500
HQhair407.tga
20 -4.945800 7.597700 169.974701 -0.595695 0.795293 0.112499 0.145500 0.164500
20 -5.200700 8.094801 167.721497 -0.480793 0.846187 0.229796 0.140900 0.056300
20 -6.983500 5.437900 168.626404 -0.873927 0.400913 0.274809 0.246000 0.080200
HQhair407.tga
20 -0.003300 8.962801 169.470596 0.000000 0.998589 0.053099 0.036800 0.153600
20 -0.003300 9.449900 166.799301 0.000000 0.983777 0.179396 0.037600 0.047300
20 -5.200700 8.094801 167.721497 -0.480793 0.846187 0.229796 0.140900 0.056300
HQhair407.tga
20 -5.200700 8.094801 167.721497 -0.480793 0.846187 0.229796 0.140900 0.056300
20 -4.945800 7.597700 169.974701 -0.595695 0.795293 0.112499 0.145500 0.164500
20 -0.003300 8.962801 169.470596 0.000000 0.998589 0.053099 0.036800 0.153600
HQhair407.tga
20 -6.526600 4.842000 170.741699 -0.941267 0.312789 0.127196 0.249100 0.188800
20 -6.983500 5.437900 168.626404 -0.873927 0.400913 0.274809 0.246000 0.080200
20 -7.419200 1.632900 168.923294 -0.960961 0.128395 0.245090 0.336700 0.100900
HQhair407.tga
20 -7.419200 1.632900 168.923294 -0.960961 0.128395 0.245090 0.336700 0.100900
20 -6.777900 1.442300 171.530701 -0.992022 0.093102 0.085002 0.359500 0.214700
20 -6.526600 4.842000 170.741699 -0.941267 0.312789 0.127196 0.249100 0.188800
HQhair407.tga
20 -6.958900 5.093600 181.555496 -0.874102 0.393201 0.285201 0.271300 0.672000
20 -3.011700 7.320600 183.738602 -0.347086 0.678173 0.647775 0.183000 0.785600
20 -4.379900 8.724001 179.294907 -0.542493 0.829289 0.134098 0.127000 0.585900
HQskinClass407.jpg
18 4.359200 10.028701 164.737000 0.356405 0.775111 0.521707 0.944500 0.654900
18 0.000000 10.742901 164.664398 0.000000 0.829100 0.559100 0.989800 0.655000
20 0.000000 8.600601 167.841507 -0.000000 0.855012 0.518608 0.989800 0.702100
HQskinClass407.jpg
20 0.000000 8.600601 167.841507 -0.000000 0.855012 0.518608 0.989800 0.702100
20 3.443600 8.097700 168.409897 0.336504 0.817209 0.467905 0.949800 0.707000
18 4.359200 10.028701 164.737000 0.356405 0.775111 0.521707 0.944500 0.654900
HQskinClass407.jpg
20 4.419000 -3.275100 165.819901 0.696334 -0.707934 0.118106 0.787000 0.698200
20 0.000000 -4.710900 163.736206 0.000000 -0.724000 -0.689800 0.743000 0.670500
18 0.000000 -5.714100 157.814102 0.000000 -0.980504 0.196501 0.729600 0.628800
HQskinClass407.jpg
18 0.000000 -5.714100 157.814102 0.000000 -0.980504 0.196501 0.729600 0.628800
18 4.473500 -4.746600 159.108505 0.381192 -0.902382 0.200996 0.767900 0.632600
20 4.419000 -3.275100 165.819901 0.696334 -0.707934 0.118106 0.787000 0.698200
HQskinClass407.jpg
18 7.545900 1.600900 164.136993 0.957042 -0.265512 0.116505 0.856600 0.664300
20 5.595900 -1.390200 167.648697 0.953784 -0.267395 -0.137098 0.824000 0.706100
20 4.419000 -3.275100 165.819901 0.696334 -0.707934 0.118106 0.787000 0.698200
HQskinClass407.jpg
20 4.419000 -3.275100 165.819901 0.696334 -0.707934 0.118106 0.787000 0.698200
18 4.473500 -4.746600 159.108505 0.381192 -0.902382 0.200996 0.767900 0.632600
18 7.545900 1.600900 164.136993 0.957042 -0.265512 0.116505 0.856600 0.664300
HQskinClass407.jpg
20 3.443600 8.097700 168.409897 0.336504 0.817209 0.467905 0.949800 0.707000
20 6.323300 5.856100 168.882599 0.889987 0.379095 0.253396 0.907900 0.718600
18 7.082600 7.378600 164.802902 0.816845 0.447370 0.364176 0.905800 0.663900
HQskinClass407.jpg
18 7.082600 7.378600 164.802902 0.816845 0.447370 0.364176 0.905800 0.663900
18 4.359200 10.028701 164.737000 0.356405 0.775111 0.521707 0.944500 0.654900
20 3.443600 8.097700 168.409897 0.336504 0.817209 0.467905 0.949800 0.707000
HQskinClass407.jpg
20 6.323300 5.856100 168.882599 0.889987 0.379095 0.253396 0.907900 0.718600
20 6.771400 1.442300 171.530701 0.974328 -0.225007 0.007500 0.863200 0.714300
18 7.545900 1.600900 164.136993 0.957042 -0.265512 0.116505 0.856600 0.664300
HQskinClass407.jpg
18 7.545900 1.600900 164.136993 0.957042 -0.265512 0.116505 0.856600 0.664300
18 7.082600 7.378600 164.802902 0.816845 0.447370 0.364176 0.905800 0.663900
20 6.323300 5.856100 168.882599 0.889987 0.379095 0.253396 0.907900 0.718600
HQskinClass407.jpg
20 5.595900 -1.390200 167.648697 0.953784 -0.267395 -0.137098 0.824000 0.706100
18 7.545900 1.600900 164.136993 0.957042 -0.265512 0.116505 0.856600 0.664300
20 6.771400 1.442300 171.530701 0.974328 -0.225007 0.007500 0.863200 0.714300
HQskinClass407.jpg
20 6.771400 1.442300 171.530701 0.974328 -0.225007 0.007500 0.863200 0.714300
20 5.945200 -0.942200 170.388306 0.885679 0.097298 -0.453989 0.832300 0.712900
20 5.595900 -1.390200 167.648697 0.953784 -0.267395 -0.137098 0.824000 0.706100
HQskinClass407.jpg
20 3.207400 -9.324299 180.508499 0.488805 -0.855509 0.170802 0.807200 0.972300
20 3.524600 -9.959200 175.780304 0.503408 -0.814814 -0.287505 0.812500 0.925400
20 5.371800 -8.243301 176.349792 0.826228 -0.556419 -0.088003 0.855300 0.926300
HQskinClass407.jpg
20 5.371800 -8.243301 176.349792 0.826228 -0.556419 -0.088003 0.855300 0.926300
20 4.995500 -7.456600 180.273499 0.838417 -0.518910 0.166703 0.852700 0.970500
20 3.207400 -9.324299 180.508499 0.488805 -0.855509 0.170802 0.807200 0.972300
HQskinClass407.jpg
20 0.000000 -10.157700 179.631104 0.000000 -0.991129 0.132904 0.719000 0.960600
20 0.000000 -10.616299 175.087601 0.000000 -0.994897 -0.100900 0.719000 0.906500
20 1.344300 -10.438000 175.198303 0.252295 -0.951082 -0.178297 0.742100 0.908000
HQskinClass407.jpg
20 0.000000 -10.616299 175.087601 0.000000 -0.994897 -0.100900 0.719000 0.906500
20 0.000000 -10.343500 174.104294 0.000000 -0.999882 0.015400 0.719000 0.890400
20 0.890300 -10.174099 174.107300 0.611877 -0.769872 -0.181393 0.731100 0.890400
HQskinClass407.jpg
20 0.890300 -10.174099 174.107300 0.611877 -0.769872 -0.181393 0.731100 0.890400
20 1.344300 -10.438000 175.198303 0.252295 -0.951082 -0.178297 0.742100 0.908000
20 0.000000 -10.616299 175.087601 0.000000 -0.994897 -0.100900 0.719000 0.906500
HQskinClass407.jpg
20 0.000000 -10.343500 174.104294 0.000000 -0.999882 0.015400 0.719000 0.890400
20 0.000000 -11.656300 170.251099 0.000000 -0.999641 0.026801 0.719000 0.858000
20 0.751200 -11.387800 170.207397 0.652686 -0.756384 -0.043399 0.736100 0.857600
HQskinClass407.jpg
20 0.751200 -11.387800 170.207397 0.652686 -0.756384 -0.043399 0.736100 0.857600
20 0.890300 -10.174099 174.107300 0.611877 -0.769872 -0.181393 0.731100 0.890400
20 0.000000 -10.343500 174.104294 0.000000 -0.999882 0.015400 0.719000 0.890400
HQskinClass407.jpg
20 2.783300 -8.864700 168.812698 0.517015 -0.838124 -0.173905 0.793600 0.828800
20 3.842000 -7.619700 167.658707 0.758498 -0.567698 -0.319999 0.828800 0.806400
20 5.067100 -7.936400 172.136200 0.769292 -0.630293 -0.104499 0.853000 0.869000
HQskinClass407.jpg
20 5.067100 -7.936400 172.136200 0.769292 -0.630293 -0.104499 0.853000 0.869000
20 3.620200 -9.037199 172.209396 0.301001 -0.953604 -0.006100 0.815300 0.871800
20 2.783300 -8.864700 168.812698 0.517015 -0.838124 -0.173905 0.793600 0.828800
HQskinClass407.jpg
20 0.617500 -11.260300 169.667297 0.497975 -0.502075 -0.707065 0.733600 0.852300
20 0.751200 -11.387800 170.207397 0.652686 -0.756384 -0.043399 0.736100 0.857600
20 0.000000 -11.656300 170.251099 0.000000 -0.999641 0.026801 0.719000 0.858000
HQskinClass407.jpg
20 0.000000 -11.656300 170.251099 0.000000 -0.999641 0.026801 0.719000 0.858000
20 0.000000 -11.472099 169.606400 0.000000 -0.677303 -0.735704 0.719000 0.851100
20 0.617500 -11.260300 169.667297 0.497975 -0.502075 -0.707065 0.733600 0.852300
HQskinClass407.jpg
20 1.686600 -9.468399 170.306503 0.742884 -0.669386 0.006800 0.770400 0.853400
20 1.366900 -9.537300 169.865295 0.589812 -0.740215 -0.322807 0.764400 0.843500
20 2.783300 -8.864700 168.812698 0.517015 -0.838124 -0.173905 0.793600 0.828800
HQskinClass407.jpg
20 2.783300 -8.864700 168.812698 0.517015 -0.838124 -0.173905 0.793600 0.828800
20 3.620200 -9.037199 172.209396 0.301001 -0.953604 -0.006100 0.815300 0.871800
20 1.326200 -8.774000 174.133499 0.688130 -0.681630 -0.248711 0.762900 0.892500
HQskinClass407.jpg
20 1.686600 -9.468399 170.306503 0.742884 -0.669386 0.006800 0.770400 0.853400
20 2.783300 -8.864700 168.812698 0.517015 -0.838124 -0.173905 0.793600 0.828800
20 1.326200 -8.774000 174.133499 0.688130 -0.681630 -0.248711 0.762900 0.892500
HQskinClass407.jpg
20 0.000000 -10.005199 169.498398 0.000000 -0.746868 -0.664972 0.719000 0.838900
20 0.000000 -10.118099 168.293304 0.000000 -0.932020 -0.362408 0.719000 0.822700
20 1.092400 -9.811699 168.578598 0.379785 -0.905165 -0.190893 0.741800 0.825400
HQskinClass407.jpg
20 1.092400 -9.811699 168.578598 0.379785 -0.905165 -0.190893 0.741800 0.825400
20 2.783300 -8.864700 168.812698 0.517015 -0.838124 -0.173905 0.793600 0.828800
20 1.366900 -9.537300 169.865295 0.589812 -0.740215 -0.322807 0.764400 0.843500
HQskinClass407.jpg
20 1.366900 -9.537300 169.865295 0.589812 -0.740215 -0.322807 0.764400 0.843500
20 0.000000 -10.005199 169.498398 0.000000 -0.746868 -0.664972 0.719000 0.838900
20 1.092400 -9.811699 168.578598 0.379785 -0.905165 -0.190893 0.741800 0.825400
HQskinClass407.jpg
20 1.538900 -10.039900 174.728897 0.519415 -0.541415 -0.661119 0.756400 0.902100
20 0.890300 -10.174099 174.107300 0.611877 -0.769872 -0.181393 0.731100 0.890400
20 1.326200 -8.774000 174.133499 0.688130 -0.681630 -0.248711 0.762900 0.892500
HQskinClass407.jpg
20 0.000000 -10.118099 168.293304 0.000000 -0.932020 -0.362408 0.719000 0.822700
20 0.000000 -9.596899 167.834198 0.000000 -0.914495 -0.404598 0.719000 0.813100
20 1.188200 -9.297400 167.916000 0.362008 -0.869820 -0.335208 0.743700 0.814000
HQskinClass407.jpg
20 1.188200 -9.297400 167.916000 0.362008 -0.869820 -0.335208 0.743700 0.814000
20 1.092400 -9.811699 168.578598 0.379785 -0.905165 -0.190893 0.741800 0.825400
20 0.000000 -10.118099 168.293304 0.000000 -0.932020 -0.362408 0.719000 0.822700
HQskinClass407.jpg
20 1.092400 -9.811699 168.578598 0.379785 -0.905165 -0.190893 0.741800 0.825400
20 1.188200 -9.297400 167.916000 0.362008 -0.869820 -0.335208 0.743700 0.814000
20 2.959600 -8.127200 167.247498 0.534611 -0.784316 -0.314706 0.798700 0.806900
HQskinClass407.jpg
20 2.959600 -8.127200 167.247498 0.534611 -0.784316 -0.314706 0.798700 0.806900
20 3.842000 -7.619700 167.658707 0.758498 -0.567698 -0.319999 0.828800 0.806400
20 2.783300 -8.864700 168.812698 0.517015 -0.838124 -0.173905 0.793600 0.828800
HQskinClass407.jpg
20 1.092400 -9.811699 168.578598 0.379785 -0.905165 -0.190893 0.741800 0.825400
20 2.959600 -8.127200 167.247498 0.534611 -0.784316 -0.314706 0.798700 0.806900
20 2.783300 -8.864700 168.812698 0.517015 -0.838124 -0.173905 0.793600 0.828800
HQskinClass407.jpg
20 1.188200 -9.297400 167.916000 0.362008 -0.869820 -0.335208 0.743700 0.814000
20 1.152700 -9.344999 166.821198 0.341795 -0.827688 -0.445094 0.744100 0.803600
20 2.959600 -8.127200 167.247498 0.534611 -0.784316 -0.314706 0.798700 0.806900
HQskinClass407.jpg
20 0.000000 -9.596899 167.834198 0.000000 -0.914495 -0.404598 0.719000 0.813100
20 -0.000000 -9.634899 166.839996 -0.000000 -0.890697 -0.454598 0.719000 0.803100
20 1.152700 -9.344999 166.821198 0.341795 -0.827688 -0.445094 0.744100 0.803600
HQskinClass407.jpg
20 1.152700 -9.344999 166.821198 0.341795 -0.827688 -0.445094 0.744100 0.803600
20 1.188200 -9.297400 167.916000 0.362008 -0.869820 -0.335208 0.743700 0.814000
20 0.000000 -9.596899 167.834198 0.000000 -0.914495 -0.404598 0.719000 0.813100
HQskinClass407.jpg
20 0.000000 -8.872999 166.415802 0.000000 -0.851597 -0.524198 0.719000 0.789200
20 1.008900 -8.609699 166.356598 0.249597 -0.853088 -0.458194 0.741700 0.789300
20 1.152700 -9.344999 166.821198 0.341795 -0.827688 -0.445094 0.744100 0.803600
HQskinClass407.jpg
20 1.152700 -9.344999 166.821198 0.341795 -0.827688 -0.445094 0.744100 0.803600
20 -0.000000 -9.634899 166.839996 -0.000000 -0.890697 -0.454598 0.719000 0.803100
20 0.000000 -8.872999 166.415802 0.000000 -0.851597 -0.524198 0.719000 0.789200
HQskinClass407.jpg
20 2.959600 -8.127200 167.247498 0.534611 -0.784316 -0.314706 0.798700 0.806900
20 1.968800 -8.218700 166.305496 0.491274 -0.819856 -0.294084 0.785100 0.789700
20 2.796200 -7.495299 165.287094 0.753983 -0.594186 -0.280094 0.811000 0.783300
HQskinClass407.jpg
20 2.796200 -7.495299 165.287094 0.753983 -0.594186 -0.280094 0.811000 0.783300
20 3.842000 -7.619700 167.658707 0.758498 -0.567698 -0.319999 0.828800 0.806400
20 2.959600 -8.127200 167.247498 0.534611 -0.784316 -0.314706 0.798700 0.806900
HQskinClass407.jpg
20 7.011500 -1.303000 176.438400 0.942881 -0.331693 0.030899 0.985800 0.972900
20 6.116400 -6.089200 173.554199 0.942368 -0.330289 -0.053398 0.885000 0.888700
20 6.108300 -3.606700 169.184906 0.943545 -0.226811 -0.241412 0.919400 0.829000
HQskinClass407.jpg
20 6.108300 -3.606700 169.184906 0.943545 -0.226811 -0.241412 0.919400 0.829000
20 6.461000 -2.028200 170.529602 0.957978 -0.045599 -0.283194 0.983600 0.864400
20 7.011500 -1.303000 176.438400 0.942881 -0.331693 0.030899 0.985800 0.972900
HQskinClass407.jpg
20 5.903300 -2.636600 168.007996 0.917138 -0.019001 -0.398117 0.942900 0.807900
20 6.461000 -2.028200 170.529602 0.957978 -0.045599 -0.283194 0.983600 0.864400
20 6.108300 -3.606700 169.184906 0.943545 -0.226811 -0.241412 0.919400 0.829000
HQskinClass407.jpg
20 5.945200 -0.942200 170.388306 0.885679 0.097298 -0.453989 0.990800 0.838600
20 6.461000 -2.028200 170.529602 0.957978 -0.045599 -0.283194 0.983600 0.864400
20 5.903300 -2.636600 168.007996 0.917138 -0.019001 -0.398117 0.942900 0.807900
HQskinClass407.jpg
20 5.903300 -2.636600 168.007996 0.917138 -0.019001 -0.398117 0.942900 0.807900
20 5.595900 -1.390200 167.648697 0.953784 -0.267395 -0.137098 0.951100 0.789300
20 5.945200 -0.942200 170.388306 0.885679 0.097298 -0.453989 0.990800 0.838600
HQskinClass407.jpg
20 1.968800 -8.218700 166.305496 0.491274 -0.819856 -0.294084 0.785100 0.789700
20 2.959600 -8.127200 167.247498 0.534611 -0.784316 -0.314706 0.798700 0.806900
20 1.152700 -9.344999 166.821198 0.341795 -0.827688 -0.445094 0.744100 0.803600
HQskinClass407.jpg
20 1.152700 -9.344999 166.821198 0.341795 -0.827688 -0.445094 0.744100 0.803600
20 1.008900 -8.609699 166.356598 0.249597 -0.853088 -0.458194 0.741700 0.789300
20 1.968800 -8.218700 166.305496 0.491274 -0.819856 -0.294084 0.785100 0.789700
HQskinClass407.jpg
20 6.108300 -3.606700 169.184906 0.943545 -0.226811 -0.241412 0.919400 0.829000
20 2.796200 -7.495299 165.287094 0.753983 -0.594186 -0.280094 0.811000 0.783300
20 2.815200 -6.633200 164.113800 0.658981 -0.136996 -0.739579 0.810600 0.765800
HQskinClass407.jpg
20 2.815200 -6.633200 164.113800 0.658981 -0.136996 -0.739579 0.810600 0.765800
20 5.903300 -2.636600 168.007996 0.917138 -0.019001 -0.398117 0.942900 0.807900
20 6.108300 -3.606700 169.184906 0.943545 -0.226811 -0.241412 0.919400 0.829000
HQskinClass407.jpg
20 1.705200 -8.541800 164.567596 0.479109 -0.819515 -0.314406 0.759600 0.772000
20 1.582500 -7.630400 163.553207 0.342786 -0.307488 -0.887665 0.763800 0.753800
20 2.815200 -6.633200 164.113800 0.658981 -0.136996 -0.739579 0.810600 0.765800
HQskinClass407.jpg
20 2.815200 -6.633200 164.113800 0.658981 -0.136996 -0.739579 0.810600 0.765800
20 2.796200 -7.495299 165.287094 0.753983 -0.594186 -0.280094 0.811000 0.783300
20 1.705200 -8.541800 164.567596 0.479109 -0.819515 -0.314406 0.759600 0.772000
HQskinClass407.jpg
20 5.595900 -1.390200 167.648697 0.953784 -0.267395 -0.137098 0.951100 0.789300
20 5.903300 -2.636600 168.007996 0.917138 -0.019001 -0.398117 0.942900 0.807900
20 2.815200 -6.633200 164.113800 0.658981 -0.136996 -0.739579 0.810600 0.765800
HQskinClass407.jpg
20 4.419000 -3.275100 165.819901 0.847822 -0.145904 -0.509813 0.891100 0.768100
20 5.595900 -1.390200 167.648697 0.953784 -0.267395 -0.137098 0.951100 0.789300
20 2.815200 -6.633200 164.113800 0.658981 -0.136996 -0.739579 0.810600 0.765800
HQskinClass407.jpg
20 4.419000 -3.275100 165.819901 0.847822 -0.145904 -0.509813 0.891100 0.768100
20 2.815200 -6.633200 164.113800 0.658981 -0.136996 -0.739579 0.810600 0.765800
20 4.418900 -3.275100 165.819901 -0.132201 0.498404 -0.856806 0.891100 0.768100
HQskinClass407.jpg
20 5.314200 -7.445300 175.160797 0.830815 -0.531309 -0.165703 0.854800 0.908700
20 6.116400 -6.089200 173.554199 0.942368 -0.330289 -0.053398 0.885000 0.888700
20 6.192600 -5.579500 175.654404 0.955513 -0.294304 0.019500 0.886400 0.922600
HQskinClass407.jpg
20 3.413600 -9.019899 175.046097 0.509904 -0.518105 -0.686706 0.810900 0.908100
20 4.574600 -8.043300 174.729599 0.605626 -0.784334 -0.134306 0.834200 0.903100
20 5.371800 -8.243301 176.349792 0.826228 -0.556419 -0.088003 0.855300 0.926300
HQskinClass407.jpg
20 5.371800 -8.243301 176.349792 0.826228 -0.556419 -0.088003 0.855300 0.926300
20 3.524600 -9.959200 175.780304 0.503408 -0.814814 -0.287505 0.812500 0.925400
20 3.413600 -9.019899 175.046097 0.509904 -0.518105 -0.686706 0.810900 0.908100
HQskinClass407.jpg
20 5.371800 -8.243301 176.349792 0.826228 -0.556419 -0.088003 0.855300 0.926300
20 5.314200 -7.445300 175.160797 0.830815 -0.531309 -0.165703 0.854800 0.908700
20 6.192600 -5.579500 175.654404 0.955513 -0.294304 0.019500 0.886400 0.922600
HQskinClass407.jpg
20 0.000000 -4.710900 163.736206 0.000000 -0.724000 -0.689800 0.719000 0.720600
20 1.582500 -7.630400 163.553207 0.342786 -0.307488 -0.887665 0.763800 0.753800
20 0.000000 -8.039300 163.533905 0.000000 -0.433118 -0.901337 0.719000 0.748900
HQskinClass407.jpg
20 5.067100 -7.936400 172.136200 0.769292 -0.630293 -0.104499 0.853000 0.869000
20 6.116400 -6.089200 173.554199 0.942368 -0.330289 -0.053398 0.885000 0.888700
20 5.314200 -7.445300 175.160797 0.830815 -0.531309 -0.165703 0.854800 0.908700
HQskinClass407.jpg
20 5.314200 -7.445300 175.160797 0.830815 -0.531309 -0.165703 0.854800 0.908700
20 4.574600 -8.043300 174.729599 0.605626 -0.784334 -0.134306 0.834200 0.903100
20 5.067100 -7.936400 172.136200 0.769292 -0.630293 -0.104499 0.853000 0.869000
HQskinClass407.jpg
20 3.842000 -7.619700 167.658707 0.758498 -0.567698 -0.319999 0.828800 0.806400
20 2.796200 -7.495299 165.287094 0.753983 -0.594186 -0.280094 0.811000 0.783300
20 6.108300 -3.606700 169.184906 0.943545 -0.226811 -0.241412 0.919400 0.829000
HQskinClass407.jpg
20 5.067100 -7.936400 172.136200 0.769292 -0.630293 -0.104499 0.853000 0.869000
20 3.842000 -7.619700 167.658707 0.758498 -0.567698 -0.319999 0.828800 0.806400
20 6.108300 -3.606700 169.184906 0.943545 -0.226811 -0.241412 0.919400 0.829000
HQskinClass407.jpg
20 6.116400 -6.089200 173.554199 0.942368 -0.330289 -0.053398 0.885000 0.888700
20 5.067100 -7.936400 172.136200 0.769292 -0.630293 -0.104499 0.853000 0.869000
20 6.108300 -3.606700 169.184906 0.943545 -0.226811 -0.241412 0.919400 0.829000
HQskinClass407.jpg
20 1.968800 -8.218700 166.305496 0.491274 -0.819856 -0.294084 0.785100 0.789700
20 1.008900 -8.609699 166.356598 0.249597 -0.853088 -0.458194 0.741700 0.789300
20 1.705200 -8.541800 164.567596 0.479109 -0.819515 -0.314406 0.759600 0.772000
HQskinClass407.jpg
20 1.705200 -8.541800 164.567596 0.479109 -0.819515 -0.314406 0.759600 0.772000
20 2.796200 -7.495299 165.287094 0.753983 -0.594186 -0.280094 0.811000 0.783300
20 1.968800 -8.218700 166.305496 0.491274 -0.819856 -0.294084 0.785100 0.789700
HQskinClass407.jpg
20 1.705200 -8.541800 164.567596 0.479109 -0.819515 -0.314406 0.759600 0.772000
20 1.008900 -8.609699 166.356598 0.249597 -0.853088 -0.458194 0.741700 0.789300
20 0.000000 -8.872999 166.415802 0.000000 -0.851597 -0.524198 0.719000 0.789200
HQskinClass407.jpg
20 0.000000 -8.872999 166.415802 0.000000 -0.851597 -0.524198 0.719000 0.789200
20 -0.000000 -9.001699 164.619797 0.000000 -0.954908 -0.296902 0.719000 0.770400
20 1.705200 -8.541800 164.567596 0.479109 -0.819515 -0.314406 0.759600 0.772000
HQskinClass407.jpg
20 0.751200 -11.387800 170.207397 0.652686 -0.756384 -0.043399 0.736100 0.857600
20 1.686600 -9.468399 170.306503 0.742884 -0.669386 0.006800 0.770400 0.853400
20 1.326200 -8.774000 174.133499 0.688130 -0.681630 -0.248711 0.762900 0.892500
HQskinClass407.jpg
20 1.326200 -8.774000 174.133499 0.688130 -0.681630 -0.248711 0.762900 0.892500
20 0.890300 -10.174099 174.107300 0.611877 -0.769872 -0.181393 0.731100 0.890400
20 0.751200 -11.387800 170.207397 0.652686 -0.756384 -0.043399 0.736100 0.857600
HQskinClass407.jpg
20 0.617500 -11.260300 169.667297 0.497975 -0.502075 -0.707065 0.733600 0.852300
20 1.366900 -9.537300 169.865295 0.589812 -0.740215 -0.322807 0.764400 0.843500
20 1.686600 -9.468399 170.306503 0.742884 -0.669386 0.006800 0.770400 0.853400
HQskinClass407.jpg
20 1.686600 -9.468399 170.306503 0.742884 -0.669386 0.006800 0.770400 0.853400
20 0.751200 -11.387800 170.207397 0.652686 -0.756384 -0.043399 0.736100 0.857600
20 0.617500 -11.260300 169.667297 0.497975 -0.502075 -0.707065 0.733600 0.852300
HQskinClass407.jpg
20 0.000000 -8.039300 163.533905 0.000000 -0.433118 -0.901337 0.719000 0.748900
20 1.582500 -7.630400 163.553207 0.342786 -0.307488 -0.887665 0.763800 0.753800
20 1.705200 -8.541800 164.567596 0.479109 -0.819515 -0.314406 0.759600 0.772000
HQskinClass407.jpg
20 1.705200 -8.541800 164.567596 0.479109 -0.819515 -0.314406 0.759600 0.772000
20 -0.000000 -9.001699 164.619797 0.000000 -0.954908 -0.296902 0.719000 0.770400
20 0.000000 -8.039300 163.533905 0.000000 -0.433118 -0.901337 0.719000 0.748900
HQskinClass407.jpg
20 0.000000 -11.472099 169.606400 0.000000 -0.677303 -0.735704 0.719000 0.851100
20 0.000000 -10.005199 169.498398 0.000000 -0.746868 -0.664972 0.719000 0.838900
20 0.617500 -11.260300 169.667297 0.497975 -0.502075 -0.707065 0.733600 0.852300
HQskinClass407.jpg
20 0.000000 -10.005199 169.498398 0.000000 -0.746868 -0.664972 0.719000 0.838900
20 1.366900 -9.537300 169.865295 0.589812 -0.740215 -0.322807 0.764400 0.843500
20 0.617500 -11.260300 169.667297 0.497975 -0.502075 -0.707065 0.733600 0.852300
HQskinClass407.jpg
20 4.574600 -8.043300 174.729599 0.605626 -0.784334 -0.134306 0.834200 0.903100
20 5.314200 -7.445300 175.160797 0.830815 -0.531309 -0.165703 0.854800 0.908700
20 5.371800 -8.243301 176.349792 0.826228 -0.556419 -0.088003 0.855300 0.926300
HQskinClass407.jpg
20 3.439200 -8.838099 174.044296 0.309095 -0.945083 0.106198 0.814700 0.894600
20 1.326200 -8.774000 174.133499 0.688130 -0.681630 -0.248711 0.762900 0.892500
20 3.620200 -9.037199 172.209396 0.301001 -0.953604 -0.006100 0.815300 0.871800
HQskinClass407.jpg
20 3.524600 -9.959200 175.780304 0.503408 -0.814814 -0.287505 0.812500 0.925400
20 3.207400 -9.324299 180.508499 0.488805 -0.855509 0.170802 0.807200 0.972300
20 0.000000 -10.157700 179.631104 0.000000 -0.991129 0.132904 0.719000 0.960600
HQskinClass407.jpg
20 0.000000 -10.157700 179.631104 0.000000 -0.991129 0.132904 0.719000 0.960600
20 1.344300 -10.438000 175.198303 0.252295 -0.951082 -0.178297 0.742100 0.908000
20 3.524600 -9.959200 175.780304 0.503408 -0.814814 -0.287505 0.812500 0.925400
HQskinClass407.jpg
20 0.890300 -10.174099 174.107300 0.611877 -0.769872 -0.181393 0.731100 0.890400
20 1.538900 -10.039900 174.728897 0.519415 -0.541415 -0.661119 0.756400 0.902100
20 1.344300 -10.438000 175.198303 0.252295 -0.951082 -0.178297 0.742100 0.908000
HQskinClass407.jpg
20 6.192600 -5.579500 175.654404 0.955513 -0.294304 0.019500 0.886400 0.922600
20 7.116400 -2.666800 177.937302 0.967275 -0.238094 -0.087698 0.968600 0.980300
20 4.995500 -7.456600 180.273499 0.838417 -0.518910 0.166703 0.852700 0.970500
HQskinClass407.jpg
20 4.995500 -7.456600 180.273499 0.838417 -0.518910 0.166703 0.852700 0.970500
20 5.371800 -8.243301 176.349792 0.826228 -0.556419 -0.088003 0.855300 0.926300
20 6.192600 -5.579500 175.654404 0.955513 -0.294304 0.019500 0.886400 0.922600
HQskinClass407.jpg
20 3.439200 -8.838099 174.044296 0.309095 -0.945083 0.106198 0.814700 0.894600
20 3.620200 -9.037199 172.209396 0.301001 -0.953604 -0.006100 0.815300 0.871800
20 5.067100 -7.936400 172.136200 0.769292 -0.630293 -0.104499 0.853000 0.869000
HQskinClass407.jpg
20 5.067100 -7.936400 172.136200 0.769292 -0.630293 -0.104499 0.853000 0.869000
20 4.574600 -8.043300 174.729599 0.605626 -0.784334 -0.134306 0.834200 0.903100
20 3.439200 -8.838099 174.044296 0.309095 -0.945083 0.106198 0.814700 0.894600
HQskinClass407.jpg
20 1.326200 -8.774000 174.133499 0.688130 -0.681630 -0.248711 0.762900 0.892500
20 2.076200 -9.176500 174.823502 0.335189 -0.105997 -0.936169 0.773800 0.902900
20 1.538900 -10.039900 174.728897 0.519415 -0.541415 -0.661119 0.756400 0.902100
HQskinClass407.jpg
20 3.413600 -9.019899 175.046097 0.025599 -0.289088 -0.956960 0.835900 0.985200
20 3.392800 -8.674700 174.941299 0.025599 -0.289088 -0.956960 0.835900 0.987900
20 4.394200 -7.752300 174.689499 0.025599 -0.289088 -0.956960 0.822400 0.984600
HQskinClass407.jpg
20 4.394200 -7.752300 174.689499 -0.100399 -0.196798 -0.975290 0.822400 0.984600
20 4.574600 -8.043300 174.729599 -0.100399 -0.196798 -0.975290 0.819900 0.979800
20 3.413600 -9.019899 175.046097 -0.100399 -0.196798 -0.975290 0.835900 0.985200
HQskinClass407.jpg
20 1.326200 -8.774000 174.133499 0.580491 -0.244196 -0.776788 0.867000 0.983500
20 1.599200 -8.435499 174.231201 0.580491 -0.244196 -0.776788 0.862700 0.986000
20 2.112000 -8.819199 174.735001 0.580491 -0.244196 -0.776788 0.855700 0.986900
HQskinClass407.jpg
20 2.112000 -8.819199 174.735001 0.579315 -0.250306 -0.775720 0.855700 0.986900
20 2.076200 -9.176500 174.823502 0.579315 -0.250306 -0.775720 0.855600 0.984900
20 1.326200 -8.774000 174.133499 0.579315 -0.250306 -0.775720 0.867000 0.983500
HQskinClass407.jpg
20 1.538900 -10.039900 174.728897 0.519415 -0.541415 -0.661119 0.756400 0.902100
20 2.076200 -9.176500 174.823502 0.335189 -0.105997 -0.936169 0.773800 0.902900
20 3.413600 -9.019899 175.046097 0.509904 -0.518105 -0.686706 0.810900 0.908100
HQskinClass407.jpg
20 1.538900 -10.039900 174.728897 0.519415 -0.541415 -0.661119 0.756400 0.902100
20 3.413600 -9.019899 175.046097 0.509904 -0.518105 -0.686706 0.810900 0.908100
20 3.524600 -9.959200 175.780304 0.503408 -0.814814 -0.287505 0.812500 0.925400
HQskinClass407.jpg
20 1.538900 -10.039900 174.728897 0.519415 -0.541415 -0.661119 0.756400 0.902100
20 3.524600 -9.959200 175.780304 0.503408 -0.814814 -0.287505 0.812500 0.925400
20 1.344300 -10.438000 175.198303 0.252295 -0.951082 -0.178297 0.742100 0.908000
HQskinClass407.jpg
20 3.413600 -9.019899 175.046097 0.187690 -0.253886 -0.948849 0.835900 0.985200
20 2.076200 -9.176500 174.823502 0.187690 -0.253886 -0.948849 0.855600 0.984900
20 2.112000 -8.819199 174.735001 0.187690 -0.253886 -0.948849 0.855700 0.986900
HQskinClass407.jpg
20 2.112000 -8.819199 174.735001 0.183100 -0.275501 -0.943702 0.855700 0.986900
20 3.392800 -8.674700 174.941299 0.183100 -0.275501 -0.943702 0.835900 0.987900
20 3.413600 -9.019899 175.046097 0.183100 -0.275501 -0.943702 0.835900 0.985200
HQskinClass407.jpg
20 4.574600 -8.043300 174.729599 -0.434122 -0.146607 0.888845 0.862000 0.979400
20 4.394200 -7.752300 174.689499 -0.434122 -0.146607 0.888845 0.860700 0.980800
20 3.540000 -8.457100 174.156006 -0.434122 -0.146607 0.888845 0.850500 0.983100
HQskinClass407.jpg
20 3.540000 -8.457100 174.156006 -0.434503 -0.145701 0.888807 0.850500 0.983100
20 3.439200 -8.838099 174.044296 -0.434503 -0.145701 0.888807 0.852200 0.977100
20 4.574600 -8.043300 174.729599 -0.434503 -0.145701 0.888807 0.862000 0.979400
HQskinClass407.jpg
20 1.599200 -8.435499 174.231201 0.031101 -0.300311 0.953334 0.825700 0.979300
20 1.326200 -8.774000 174.133499 0.031101 -0.300311 0.953334 0.824600 0.977400
20 3.439200 -8.838099 174.044296 0.031101 -0.300311 0.953334 0.852200 0.977100
HQskinClass407.jpg
20 3.439200 -8.838099 174.044296 0.033799 -0.289495 0.956583 0.852200 0.977100
20 3.540000 -8.457100 174.156006 0.033799 -0.289495 0.956583 0.850500 0.983100
20 1.599200 -8.435499 174.231201 0.033799 -0.289495 0.956583 0.825700 0.979300
HQskinClass407.jpg
20 6.889700 1.177800 175.147995 -0.109698 0.988881 -0.100398 0.950700 0.773900
20 5.945200 -0.942200 170.388306 0.885679 0.097298 -0.453989 0.892100 0.759100
20 6.771400 1.442300 171.530701 0.974328 -0.225007 0.007500 0.920600 0.745500
HQskinClass407.jpg
20 7.276700 1.047000 176.626602 0.027402 0.598638 0.800551 0.993300 0.793400
20 7.011500 -1.303000 176.438400 0.942881 -0.331693 0.030899 0.995000 0.723900
20 8.639600 1.092600 176.453506 0.754260 0.290185 0.588969 0.987700 0.777500
HQskinClass407.jpg
20 8.853000 1.634500 174.357498 0.756284 0.611387 -0.232895 0.978600 0.778000
20 7.731800 0.276800 171.285797 0.606695 0.544795 -0.578895 0.959100 0.748700
20 5.945200 -0.942200 170.388306 0.885679 0.097298 -0.453989 0.949000 0.751600
HQskinClass407.jpg
20 5.945200 -0.942200 170.388306 0.885679 0.097298 -0.453989 0.949000 0.751600
20 6.889700 1.177800 175.147995 -0.109698 0.988881 -0.100398 0.978600 0.793800
20 8.853000 1.634500 174.357498 0.756284 0.611387 -0.232895 0.978600 0.778000
HQskinClass407.jpg
20 7.276700 1.047000 176.626602 0.027402 0.598638 0.800551 0.993300 0.793400
20 8.639600 1.092600 176.453506 0.754260 0.290185 0.588969 0.987700 0.777500
20 8.853000 1.634500 174.357498 0.756284 0.611387 -0.232895 0.978600 0.778000
HQskinClass407.jpg
20 8.853000 1.634500 174.357498 0.756284 0.611387 -0.232895 0.978600 0.778000
20 6.889700 1.177800 175.147995 -0.109698 0.988881 -0.100398 0.978600 0.793800
20 7.276700 1.047000 176.626602 0.027402 0.598638 0.800551 0.993300 0.793400
HQskinClass407.jpg
20 5.945200 -0.942200 170.388306 0.885679 0.097298 -0.453989 0.949000 0.751600
20 7.731800 0.276800 171.285797 0.606695 0.544795 -0.578895 0.959100 0.748700
20 6.461000 -2.028200 170.529602 0.957978 -0.045599 -0.283194 0.958800 0.719800
HQskinClass407.jpg
20 8.853000 1.634500 174.357498 0.756284 0.611387 -0.232895 0.978600 0.778000
20 8.639600 1.092600 176.453506 0.754260 0.290185 0.588969 0.987700 0.777500
20 7.011500 -1.303000 176.438400 0.942881 -0.331693 0.030899 0.995000 0.723900
HQskinClass407.jpg
20 7.731800 0.276800 171.285797 0.606695 0.544795 -0.578895 0.959100 0.748700
20 8.853000 1.634500 174.357498 0.756284 0.611387 -0.232895 0.978600 0.778000
20 7.011500 -1.303000 176.438400 0.942881 -0.331693 0.030899 0.995000 0.723900
HQskinClass407.jpg
20 7.731800 0.276800 171.285797 0.606695 0.544795 -0.578895 0.959100 0.748700
20 7.011500 -1.303000 176.438400 0.942881 -0.331693 0.030899 0.995000 0.723900
20 6.461000 -2.028200 170.529602 0.957978 -0.045599 -0.283194 0.958800 0.719800
HQskinClass407.jpg
20 1.261600 -8.586500 174.688400 -0.170801 -0.985306 0.000000 0.671300 0.677900
20 2.925100 -8.874800 174.688400 0.199404 -0.979918 0.000000 0.701600 0.677900
20 2.802600 -8.272900 176.261002 0.185696 -0.912782 0.363793 0.701600 0.708200
HQskinClass407.jpg
20 2.802600 -8.272900 176.261002 0.185696 -0.912782 0.363793 0.701600 0.708200
20 1.261600 -8.586500 174.688400 1.000000 -0.000000 0.000000 0.671300 0.677900
20 1.261600 -8.586500 174.688400 -0.170801 -0.985306 0.000000 0.671300 0.677900
HQskinClass407.jpg
20 2.802600 -8.272900 176.261002 0.185696 -0.912782 0.363793 0.701600 0.708200
20 2.925100 -8.874800 174.688400 0.199404 -0.979918 0.000000 0.701600 0.677900
20 4.343600 -7.959300 174.688400 0.542293 -0.840189 0.000000 0.731900 0.677900
HQskinClass407.jpg
20 4.343600 -7.959300 174.688400 0.542293 -0.840189 0.000000 0.731900 0.677900
20 2.925100 -8.874800 174.688400 0.199404 -0.979918 0.000000 0.701600 0.677900
20 2.802600 -8.272900 173.115906 0.185696 -0.912782 -0.363793 0.701600 0.647600
HQskinClass407.jpg
20 2.802600 -8.272900 173.115906 0.185696 -0.912782 -0.363793 0.701600 0.647600
20 2.925100 -8.874800 174.688400 0.199404 -0.979918 0.000000 0.701600 0.677900
20 1.261600 -8.586500 174.688400 -0.170801 -0.985306 0.000000 0.671300 0.677900
HQskinClass407.jpg
20 2.815200 -6.633200 164.113800 0.658981 -0.136996 -0.739579 0.810600 0.765800
20 1.582500 -7.630400 163.553207 0.342786 -0.307488 -0.887665 0.763800 0.753800
20 0.000000 -4.710900 163.736206 0.000000 -0.724000 -0.689800 0.719000 0.720600
HQskinClass407.jpg
20 0.000000 -4.710900 163.736206 0.000000 -0.724000 -0.689800 0.719000 0.720600
20 4.418900 -3.275100 165.819901 -0.132201 0.498404 -0.856806 0.891100 0.768100
20 2.815200 -6.633200 164.113800 0.658981 -0.136996 -0.739579 0.810600 0.765800
HQskinClass407.jpg
20 6.192600 -5.579500 175.654404 0.955513 -0.294304 0.019500 0.886400 0.922600
20 6.116400 -6.089200 173.554199 0.942368 -0.330289 -0.053398 0.885000 0.888700
20 7.011500 -1.303000 176.438400 0.942881 -0.331693 0.030899 0.985800 0.972900
HQskinClass407.jpg
20 7.011500 -1.303000 176.438400 0.942881 -0.331693 0.030899 0.985800 0.972900
20 7.116400 -2.666800 177.937302 0.967275 -0.238094 -0.087698 0.968600 0.980300
20 6.192600 -5.579500 175.654404 0.955513 -0.294304 0.019500 0.886400 0.922600
HQskinClass407.jpg
18 -4.359200 10.028701 164.737000 -0.356405 0.775111 0.521707 0.944500 0.654900
20 -3.443600 8.097700 168.409897 -0.336504 0.817209 0.467905 0.949800 0.707000
20 0.000000 8.600601 167.841507 -0.000000 0.855012 0.518608 0.989800 0.702100
HQskinClass407.jpg
20 0.000000 8.600601 167.841507 -0.000000 0.855012 0.518608 0.989800 0.702100
18 0.000000 10.742901 164.664398 0.000000 0.829100 0.559100 0.989800 0.655000
18 -4.359200 10.028701 164.737000 -0.356405 0.775111 0.521707 0.944500 0.654900
HQskinClass407.jpg
20 -4.419000 -3.275100 165.819901 -0.696334 -0.707934 0.118106 0.787000 0.698200
18 -4.473500 -4.746601 159.108505 -0.381192 -0.902382 0.200996 0.767900 0.632600
18 0.000000 -5.714100 157.814102 0.000000 -0.980504 0.196501 0.729600 0.628800
HQskinClass407.jpg
18 0.000000 -5.714100 157.814102 0.000000 -0.980504 0.196501 0.729600 0.628800
20 0.000000 -4.710900 163.736206 0.000000 -0.724000 -0.689800 0.743000 0.670500
20 -4.419000 -3.275100 165.819901 -0.696334 -0.707934 0.118106 0.787000 0.698200
HQskinClass407.jpg
18 -7.545900 1.600900 164.136993 -0.957042 -0.265512 0.116505 0.856600 0.664300
18 -4.473500 -4.746601 159.108505 -0.381192 -0.902382 0.200996 0.767900 0.632600
20 -4.419000 -3.275100 165.819901 -0.696334 -0.707934 0.118106 0.787000 0.698200
HQskinClass407.jpg
20 -4.419000 -3.275100 165.819901 -0.696334 -0.707934 0.118106 0.787000 0.698200
20 -5.595900 -1.390200 167.648697 -0.953784 -0.267395 -0.137098 0.824000 0.706100
18 -7.545900 1.600900 164.136993 -0.957042 -0.265512 0.116505 0.856600 0.664300
HQskinClass407.jpg
20 -3.443600 8.097700 168.409897 -0.336504 0.817209 0.467905 0.949800 0.707000
18 -4.359200 10.028701 164.737000 -0.356405 0.775111 0.521707 0.944500 0.654900
18 -7.082600 7.378600 164.802902 -0.816845 0.447370 0.364176 0.905800 0.663900
HQskinClass407.jpg
18 -7.082600 7.378600 164.802902 -0.816845 0.447370 0.364176 0.905800 0.663900
20 -6.323300 5.856100 168.882599 -0.889987 0.379095 0.253396 0.907900 0.718600
20 -3.443600 8.097700 168.409897 -0.336504 0.817209 0.467905 0.949800 0.707000
HQskinClass407.jpg
20 -6.323300 5.856100 168.882599 -0.889987 0.379095 0.253396 0.907900 0.718600
18 -7.082600 7.378600 164.802902 -0.816845 0.447370 0.364176 0.905800 0.663900
18 -7.545900 1.600900 164.136993 -0.957042 -0.265512 0.116505 0.856600 0.664300
HQskinClass407.jpg
18 -7.545900 1.600900 164.136993 -0.957042 -0.265512 0.116505 0.856600 0.664300
20 -6.771400 1.442300 171.530701 -0.974328 -0.225007 0.007500 0.863200 0.714300
20 -6.323300 5.856100 168.882599 -0.889987 0.379095 0.253396 0.907900 0.718600
HQskinClass407.jpg
20 -5.595900 -1.390200 167.648697 -0.953784 -0.267395 -0.137098 0.824000 0.706100
20 -5.945200 -0.942200 170.388306 -0.885679 0.097298 -0.453989 0.832300 0.712900
20 -6.771400 1.442300 171.530701 -0.974328 -0.225007 0.007500 0.863200 0.714300
HQskinClass407.jpg
20 -6.771400 1.442300 171.530701 -0.974328 -0.225007 0.007500 0.863200 0.714300
18 -7.545900 1.600900 164.136993 -0.957042 -0.265512 0.116505 0.856600 0.664300
20 -5.595900 -1.390200 167.648697 -0.953784 -0.267395 -0.137098 0.824000 0.706100
HQskinClass407.jpg
20 -3.207400 -9.324299 180.508499 -0.488805 -0.855509 0.170802 0.807200 0.972300
20 -4.995500 -7.456600 180.273499 -0.838417 -0.518910 0.166703 0.852700 0.970500
20 -5.371800 -8.243299 176.349792 -0.826228 -0.556419 -0.088003 0.855300 0.926300
HQskinClass407.jpg
20 -5.371800 -8.243299 176.349792 -0.826228 -0.556419 -0.088003 0.855300 0.926300
20 -3.524600 -9.959198 175.780304 -0.503408 -0.814813 -0.287505 0.812500 0.925400
20 -3.207400 -9.324299 180.508499 -0.488805 -0.855509 0.170802 0.807200 0.972300
HQskinClass407.jpg
20 0.000000 -10.157700 179.631104 0.000000 -0.991129 0.132904 0.719000 0.960600
20 -1.344300 -10.437998 175.198303 -0.252295 -0.951082 -0.178297 0.742100 0.908000
20 0.000000 -10.616299 175.087601 0.000000 -0.994897 -0.100900 0.719000 0.906500
HQskinClass407.jpg
20 0.000000 -10.616299 175.087601 0.000000 -0.994897 -0.100900 0.719000 0.906500
20 -1.344300 -10.437998 175.198303 -0.252295 -0.951082 -0.178297 0.742100 0.908000
20 -0.890300 -10.174099 174.107300 -0.611877 -0.769872 -0.181393 0.731100 0.890400
HQskinClass407.jpg
20 -0.890300 -10.174099 174.107300 -0.611877 -0.769872 -0.181393 0.731100 0.890400
20 0.000000 -10.343500 174.104294 0.000000 -0.999882 0.015400 0.719000 0.890400
20 0.000000 -10.616299 175.087601 0.000000 -0.994897 -0.100900 0.719000 0.906500
HQskinClass407.jpg
20 0.000000 -10.343500 174.104294 0.000000 -0.999882 0.015400 0.719000 0.890400
20 -0.890300 -10.174099 174.107300 -0.611877 -0.769872 -0.181393 0.731100 0.890400
20 -0.751200 -11.387800 170.207397 -0.652686 -0.756384 -0.043399 0.736100 0.857600
HQskinClass407.jpg
20 -0.751200 -11.387800 170.207397 -0.652686 -0.756384 -0.043399 0.736100 0.857600
20 0.000000 -11.656300 170.251099 0.000000 -0.999641 0.026801 0.719000 0.858000
20 0.000000 -10.343500 174.104294 0.000000 -0.999882 0.015400 0.719000 0.890400
HQskinClass407.jpg
20 -2.783300 -8.864700 168.812698 -0.517015 -0.838124 -0.173905 0.793600 0.828800
20 -3.620200 -9.037199 172.209396 -0.301001 -0.953604 -0.006100 0.815300 0.871800
20 -5.067100 -7.936400 172.136200 -0.769292 -0.630293 -0.104499 0.853000 0.869000
HQskinClass407.jpg
20 -5.067100 -7.936400 172.136200 -0.769292 -0.630293 -0.104499 0.853000 0.869000
20 -3.842000 -7.619700 167.658707 -0.758498 -0.567698 -0.319999 0.828800 0.806400
20 -2.783300 -8.864700 168.812698 -0.517015 -0.838124 -0.173905 0.793600 0.828800
HQskinClass407.jpg
20 -0.617500 -11.260300 169.667297 -0.497975 -0.502075 -0.707065 0.733600 0.852300
20 0.000000 -11.472099 169.606400 0.000000 -0.677303 -0.735704 0.719000 0.851100
20 0.000000 -11.656300 170.251099 0.000000 -0.999641 0.026801 0.719000 0.858000
HQskinClass407.jpg
20 0.000000 -11.656300 170.251099 0.000000 -0.999641 0.026801 0.719000 0.858000
20 -0.751200 -11.387800 170.207397 -0.652686 -0.756384 -0.043399 0.736100 0.857600
20 -0.617500 -11.260300 169.667297 -0.497975 -0.502075 -0.707065 0.733600 0.852300
HQskinClass407.jpg
20 -1.326200 -8.774000 174.133499 -0.688130 -0.681630 -0.248711 0.762900 0.892500
20 -3.620200 -9.037199 172.209396 -0.301001 -0.953604 -0.006100 0.815300 0.871800
20 -2.783300 -8.864700 168.812698 -0.517015 -0.838124 -0.173905 0.793600 0.828800
HQskinClass407.jpg
20 -1.686600 -9.468399 170.306503 -0.742884 -0.669386 0.006800 0.770400 0.853400
20 -1.326200 -8.774000 174.133499 -0.688130 -0.681630 -0.248711 0.762900 0.892500
20 -2.783300 -8.864700 168.812698 -0.517015 -0.838124 -0.173905 0.793600 0.828800
HQskinClass407.jpg
20 -1.686600 -9.468399 170.306503 -0.742884 -0.669386 0.006800 0.770400 0.853400
20 -2.783300 -8.864700 168.812698 -0.517015 -0.838124 -0.173905 0.793600 0.828800
20 -1.366900 -9.537300 169.865295 -0.589812 -0.740215 -0.322807 0.764400 0.843500
HQskinClass407.jpg
20 0.000000 -10.005199 169.498398 0.000000 -0.746868 -0.664972 0.719000 0.838900
20 -1.092400 -9.811699 168.578598 -0.379785 -0.905165 -0.190893 0.741800 0.825400
20 0.000000 -10.118099 168.293304 0.000000 -0.932020 -0.362408 0.719000 0.822700
HQskinClass407.jpg
20 -1.092400 -9.811699 168.578598 -0.379785 -0.905165 -0.190893 0.741800 0.825400
20 0.000000 -10.005199 169.498398 0.000000 -0.746868 -0.664972 0.719000 0.838900
20 -1.366900 -9.537300 169.865295 -0.589812 -0.740215 -0.322807 0.764400 0.843500
HQskinClass407.jpg
20 -1.366900 -9.537300 169.865295 -0.589812 -0.740215 -0.322807 0.764400 0.843500
20 -2.783300 -8.864700 168.812698 -0.517015 -0.838124 -0.173905 0.793600 0.828800
20 -1.092400 -9.811699 168.578598 -0.379785 -0.905165 -0.190893 0.741800 0.825400
HQskinClass407.jpg
20 -1.538900 -10.039900 174.728897 -0.519415 -0.541415 -0.661119 0.756400 0.902100
20 -1.326200 -8.774000 174.133499 -0.688130 -0.681630 -0.248711 0.762900 0.892500
20 -0.890300 -10.174099 174.107300 -0.611877 -0.769872 -0.181393 0.731100 0.890400
HQskinClass407.jpg
20 0.000000 -10.118099 168.293304 0.000000 -0.932020 -0.362408 0.719000 0.822700
20 -1.092400 -9.811699 168.578598 -0.379785 -0.905165 -0.190893 0.741800 0.825400
20 -1.188200 -9.297400 167.916000 -0.362008 -0.869820 -0.335208 0.743700 0.814000
HQskinClass407.jpg
20 -1.188200 -9.297400 167.916000 -0.362008 -0.869820 -0.335208 0.743700 0.814000
20 0.000000 -9.596899 167.834198 0.000000 -0.914495 -0.404598 0.719000 0.813100
20 0.000000 -10.118099 168.293304 0.000000 -0.932020 -0.362408 0.719000 0.822700
HQskinClass407.jpg
20 -2.783300 -8.864700 168.812698 -0.517015 -0.838124 -0.173905 0.793600 0.828800
20 -3.842000 -7.619700 167.658707 -0.758498 -0.567698 -0.319999 0.828800 0.806400
20 -2.959600 -8.127200 167.247498 -0.534611 -0.784316 -0.314706 0.798700 0.806900
HQskinClass407.jpg
20 -1.092400 -9.811699 168.578598 -0.379785 -0.905165 -0.190893 0.741800 0.825400
20 -2.783300 -8.864700 168.812698 -0.517015 -0.838124 -0.173905 0.793600 0.828800
20 -2.959600 -8.127200 167.247498 -0.534611 -0.784316 -0.314706 0.798700 0.806900
HQskinClass407.jpg
20 -1.092400 -9.811699 168.578598 -0.379785 -0.905165 -0.190893 0.741800 0.825400
20 -2.959600 -8.127200 167.247498 -0.534611 -0.784316 -0.314706 0.798700 0.806900
20 -1.188200 -9.297400 167.916000 -0.362008 -0.869820 -0.335208 0.743700 0.814000
HQskinClass407.jpg
20 -1.188200 -9.297400 167.916000 -0.362008 -0.869820 -0.335208 0.743700 0.814000
20 -2.959600 -8.127200 167.247498 -0.534611 -0.784316 -0.314706 0.798700 0.806900
20 -1.152700 -9.344999 166.821198 -0.341795 -0.827688 -0.445094 0.744100 0.803600
HQskinClass407.jpg
20 0.000000 -9.596899 167.834198 0.000000 -0.914495 -0.404598 0.719000 0.813100
20 -1.188200 -9.297400 167.916000 -0.362008 -0.869820 -0.335208 0.743700 0.814000
20 -1.152700 -9.344999 166.821198 -0.341795 -0.827688 -0.445094 0.744100 0.803600
HQskinClass407.jpg
20 -1.152700 -9.344999 166.821198 -0.341795 -0.827688 -0.445094 0.744100 0.803600
20 -0.000000 -9.634899 166.839996 -0.000000 -0.890697 -0.454598 0.719000 0.803100
20 0.000000 -9.596899 167.834198 0.000000 -0.914495 -0.404598 0.719000 0.813100
HQskinClass407.jpg
20 0.000000 -8.872999 166.415802 0.000000 -0.851597 -0.524198 0.719000 0.789200
20 -0.000000 -9.634899 166.839996 -0.000000 -0.890697 -0.454598 0.719000 0.803100
20 -1.152700 -9.344999 166.821198 -0.341795 -0.827688 -0.445094 0.744100 0.803600
HQskinClass407.jpg
20 -1.152700 -9.344999 166.821198 -0.341795 -0.827688 -0.445094 0.744100 0.803600
20 -1.008900 -8.609699 166.356598 -0.249597 -0.853088 -0.458194 0.741700 0.789300
20 0.000000 -8.872999 166.415802 0.000000 -0.851597 -0.524198 0.719000 0.789200
HQskinClass407.jpg
20 -2.959600 -8.127200 167.247498 -0.534611 -0.784316 -0.314706 0.798700 0.806900
20 -3.842000 -7.619700 167.658707 -0.758498 -0.567698 -0.319999 0.828800 0.806400
20 -2.796200 -7.495300 165.287094 -0.753983 -0.594186 -0.280094 0.811000 0.783300
HQskinClass407.jpg
20 -2.796200 -7.495300 165.287094 -0.753983 -0.594186 -0.280094 0.811000 0.783300
20 -1.968800 -8.218699 166.305496 -0.491274 -0.819856 -0.294084 0.785100 0.789700
20 -2.959600 -8.127200 167.247498 -0.534611 -0.784316 -0.314706 0.798700 0.806900
HQskinClass407.jpg
20 -7.011500 -1.303000 176.438400 -0.942881 -0.331693 0.030899 0.985800 0.972900
20 -6.461000 -2.028200 170.529602 -0.957978 -0.045599 -0.283194 0.983600 0.864400
20 -6.108300 -3.606700 169.184906 -0.943545 -0.226811 -0.241412 0.919400 0.829000
HQskinClass407.jpg
20 -6.108300 -3.606700 169.184906 -0.943545 -0.226811 -0.241412 0.919400 0.829000
20 -6.116400 -6.089200 173.554199 -0.942368 -0.330289 -0.053398 0.885000 0.888700
20 -7.011500 -1.303000 176.438400 -0.942881 -0.331693 0.030899 0.985800 0.972900
HQskinClass407.jpg
20 -5.903300 -2.636600 168.007996 -0.917138 -0.019001 -0.398117 0.942900 0.807900
20 -6.108300 -3.606700 169.184906 -0.943545 -0.226811 -0.241412 0.919400 0.829000
20 -6.461000 -2.028200 170.529602 -0.957978 -0.045599 -0.283194 0.983600 0.864400
HQskinClass407.jpg
20 -5.945200 -0.942200 170.388306 -0.885679 0.097298 -0.453989 0.990800 0.838600
20 -5.595900 -1.390200 167.648697 -0.953784 -0.267395 -0.137098 0.951100 0.789300
20 -5.903300 -2.636600 168.007996 -0.917138 -0.019001 -0.398117 0.942900 0.807900
HQskinClass407.jpg
20 -5.903300 -2.636600 168.007996 -0.917138 -0.019001 -0.398117 0.942900 0.807900
20 -6.461000 -2.028200 170.529602 -0.957978 -0.045599 -0.283194 0.983600 0.864400
20 -5.945200 -0.942200 170.388306 -0.885679 0.097298 -0.453989 0.990800 0.838600
HQskinClass407.jpg
20 -1.968800 -8.218699 166.305496 -0.491274 -0.819856 -0.294084 0.785100 0.789700
20 -1.008900 -8.609699 166.356598 -0.249597 -0.853088 -0.458194 0.741700 0.789300
20 -1.152700 -9.344999 166.821198 -0.341795 -0.827688 -0.445094 0.744100 0.803600
HQskinClass407.jpg
20 -1.152700 -9.344999 166.821198 -0.341795 -0.827688 -0.445094 0.744100 0.803600
20 -2.959600 -8.127200 167.247498 -0.534611 -0.784316 -0.314706 0.798700 0.806900
20 -1.968800 -8.218699 166.305496 -0.491274 -0.819856 -0.294084 0.785100 0.789700
HQskinClass407.jpg
20 -6.108300 -3.606700 169.184906 -0.943545 -0.226811 -0.241412 0.919400 0.829000
20 -5.903300 -2.636600 168.007996 -0.917138 -0.019001 -0.398117 0.942900 0.807900
20 -2.815200 -6.633200 164.113800 -0.659030 -0.137006 -0.739533 0.810600 0.765800
HQskinClass407.jpg
20 -2.815200 -6.633200 164.113800 -0.659030 -0.137006 -0.739533 0.810600 0.765800
20 -2.796200 -7.495300 165.287094 -0.753983 -0.594186 -0.280094 0.811000 0.783300
20 -6.108300 -3.606700 169.184906 -0.943545 -0.226811 -0.241412 0.919400 0.829000
HQskinClass407.jpg
20 -1.705200 -8.541800 164.567596 -0.479109 -0.819515 -0.314406 0.759600 0.772000
20 -2.796200 -7.495300 165.287094 -0.753983 -0.594186 -0.280094 0.811000 0.783300
20 -2.815200 -6.633200 164.113800 -0.659030 -0.137006 -0.739533 0.810600 0.765800
HQskinClass407.jpg
20 -2.815200 -6.633200 164.113800 -0.659030 -0.137006 -0.739533 0.810600 0.765800
20 -1.582500 -7.630400 163.553207 -0.342786 -0.307488 -0.887665 0.763800 0.753800
20 -1.705200 -8.541800 164.567596 -0.479109 -0.819515 -0.314406 0.759600 0.772000
HQskinClass407.jpg
20 -4.419000 -3.275100 165.819901 -0.867364 -0.178193 -0.464680 0.891100 0.768100
20 -4.418900 -3.275100 165.819901 0.297014 0.541426 -0.786537 0.891100 0.768100
20 -2.815200 -6.633200 164.113800 -0.659030 -0.137006 -0.739533 0.810600 0.765800
HQskinClass407.jpg
20 -2.815200 -6.633200 164.113800 -0.659030 -0.137006 -0.739533 0.810600 0.765800
20 -5.903300 -2.636600 168.007996 -0.917138 -0.019001 -0.398117 0.942900 0.807900
20 -5.595900 -1.390200 167.648697 -0.953784 -0.267395 -0.137098 0.951100 0.789300
HQskinClass407.jpg
20 -4.419000 -3.275100 165.819901 -0.867364 -0.178193 -0.464680 0.891100 0.768100
20 -2.815200 -6.633200 164.113800 -0.659030 -0.137006 -0.739533 0.810600 0.765800
20 -5.595900 -1.390200 167.648697 -0.953784 -0.267395 -0.137098 0.951100 0.789300
HQskinClass407.jpg
20 -5.314200 -7.445300 175.160797 -0.830815 -0.531309 -0.165703 0.854800 0.908700
20 -6.192600 -5.579500 175.654404 -0.955513 -0.294304 0.019500 0.886400 0.922600
20 -6.116400 -6.089200 173.554199 -0.942368 -0.330289 -0.053398 0.885000 0.888700
HQskinClass407.jpg
20 -3.413600 -9.019901 175.046097 -0.509904 -0.518105 -0.686706 0.810900 0.908100
20 -3.524600 -9.959198 175.780304 -0.503408 -0.814813 -0.287505 0.812500 0.925400
20 -5.371800 -8.243299 176.349792 -0.826228 -0.556419 -0.088003 0.855300 0.926300
HQskinClass407.jpg
20 -5.371800 -8.243299 176.349792 -0.826228 -0.556419 -0.088003 0.855300 0.926300
20 -4.574600 -8.043299 174.729599 -0.605626 -0.784334 -0.134306 0.834200 0.903100
20 -3.413600 -9.019901 175.046097 -0.509904 -0.518105 -0.686706 0.810900 0.908100
HQskinClass407.jpg
20 -5.371800 -8.243299 176.349792 -0.826228 -0.556419 -0.088003 0.855300 0.926300
20 -6.192600 -5.579500 175.654404 -0.955513 -0.294304 0.019500 0.886400 0.922600
20 -5.314200 -7.445300 175.160797 -0.830815 -0.531309 -0.165703 0.854800 0.908700
HQskinClass407.jpg
20 0.000000 -4.710900 163.736206 0.000000 -0.724000 -0.689800 0.719000 0.720600
20 0.000000 -8.039300 163.533905 0.000000 -0.433118 -0.901337 0.719000 0.748900
20 -1.582500 -7.630400 163.553207 -0.342786 -0.307488 -0.887665 0.763800 0.753800
HQskinClass407.jpg
20 -5.067100 -7.936400 172.136200 -0.769292 -0.630293 -0.104499 0.853000 0.869000
20 -4.574600 -8.043299 174.729599 -0.605626 -0.784334 -0.134306 0.834200 0.903100
20 -5.314200 -7.445300 175.160797 -0.830815 -0.531309 -0.165703 0.854800 0.908700
HQskinClass407.jpg
20 -5.314200 -7.445300 175.160797 -0.830815 -0.531309 -0.165703 0.854800 0.908700
20 -6.116400 -6.089200 173.554199 -0.942368 -0.330289 -0.053398 0.885000 0.888700
20 -5.067100 -7.936400 172.136200 -0.769292 -0.630293 -0.104499 0.853000 0.869000
HQskinClass407.jpg
20 -6.108300 -3.606700 169.184906 -0.943545 -0.226811 -0.241412 0.919400 0.829000
20 -2.796200 -7.495300 165.287094 -0.753983 -0.594186 -0.280094 0.811000 0.783300
20 -3.842000 -7.619700 167.658707 -0.758498 -0.567698 -0.319999 0.828800 0.806400
HQskinClass407.jpg
20 -6.108300 -3.606700 169.184906 -0.943545 -0.226811 -0.241412 0.919400 0.829000
20 -3.842000 -7.619700 167.658707 -0.758498 -0.567698 -0.319999 0.828800 0.806400
20 -5.067100 -7.936400 172.136200 -0.769292 -0.630293 -0.104499 0.853000 0.869000
HQskinClass407.jpg
20 -6.116400 -6.089200 173.554199 -0.942368 -0.330289 -0.053398 0.885000 0.888700
20 -6.108300 -3.606700 169.184906 -0.943545 -0.226811 -0.241412 0.919400 0.829000
20 -5.067100 -7.936400 172.136200 -0.769292 -0.630293 -0.104499 0.853000 0.869000
HQskinClass407.jpg
20 -1.968800 -8.218699 166.305496 -0.491274 -0.819856 -0.294084 0.785100 0.789700
20 -2.796200 -7.495300 165.287094 -0.753983 -0.594186 -0.280094 0.811000 0.783300
20 -1.705200 -8.541800 164.567596 -0.479109 -0.819515 -0.314406 0.759600 0.772000
HQskinClass407.jpg
20 -1.705200 -8.541800 164.567596 -0.479109 -0.819515 -0.314406 0.759600 0.772000
20 -1.008900 -8.609699 166.356598 -0.249597 -0.853088 -0.458194 0.741700 0.789300
20 -1.968800 -8.218699 166.305496 -0.491274 -0.819856 -0.294084 0.785100 0.789700
HQskinClass407.jpg
20 -1.705200 -8.541800 164.567596 -0.479109 -0.819515 -0.314406 0.759600 0.772000
20 -0.000000 -9.001699 164.619797 0.000000 -0.954908 -0.296902 0.719000 0.770400
20 0.000000 -8.872999 166.415802 0.000000 -0.851597 -0.524198 0.719000 0.789200
HQskinClass407.jpg
20 0.000000 -8.872999 166.415802 0.000000 -0.851597 -0.524198 0.719000 0.789200
20 -1.008900 -8.609699 166.356598 -0.249597 -0.853088 -0.458194 0.741700 0.789300
20 -1.705200 -8.541800 164.567596 -0.479109 -0.819515 -0.314406 0.759600 0.772000
HQskinClass407.jpg
20 -0.751200 -11.387800 170.207397 -0.652686 -0.756384 -0.043399 0.736100 0.857600
20 -0.890300 -10.174099 174.107300 -0.611877 -0.769872 -0.181393 0.731100 0.890400
20 -1.326200 -8.774000 174.133499 -0.688130 -0.681630 -0.248711 0.762900 0.892500
HQskinClass407.jpg
20 -1.326200 -8.774000 174.133499 -0.688130 -0.681630 -0.248711 0.762900 0.892500
20 -1.686600 -9.468399 170.306503 -0.742884 -0.669386 0.006800 0.770400 0.853400
20 -0.751200 -11.387800 170.207397 -0.652686 -0.756384 -0.043399 0.736100 0.857600
HQskinClass407.jpg
20 -0.617500 -11.260300 169.667297 -0.497975 -0.502075 -0.707065 0.733600 0.852300
20 -0.751200 -11.387800 170.207397 -0.652686 -0.756384 -0.043399 0.736100 0.857600
20 -1.686600 -9.468399 170.306503 -0.742884 -0.669386 0.006800 0.770400 0.853400
HQskinClass407.jpg
20 -1.686600 -9.468399 170.306503 -0.742884 -0.669386 0.006800 0.770400 0.853400
20 -1.366900 -9.537300 169.865295 -0.589812 -0.740215 -0.322807 0.764400 0.843500
20 -0.617500 -11.260300 169.667297 -0.497975 -0.502075 -0.707065 0.733600 0.852300
HQskinClass407.jpg
20 0.000000 -8.039300 163.533905 0.000000 -0.433118 -0.901337 0.719000 0.748900
20 -0.000000 -9.001699 164.619797 0.000000 -0.954908 -0.296902 0.719000 0.770400
20 -1.705200 -8.541800 164.567596 -0.479109 -0.819515 -0.314406 0.759600 0.772000
HQskinClass407.jpg
20 -1.705200 -8.541800 164.567596 -0.479109 -0.819515 -0.314406 0.759600 0.772000
20 -1.582500 -7.630400 163.553207 -0.342786 -0.307488 -0.887665 0.763800 0.753800
20 0.000000 -8.039300 163.533905 0.000000 -0.433118 -0.901337 0.719000 0.748900
HQskinClass407.jpg
20 0.000000 -11.472099 169.606400 0.000000 -0.677303 -0.735704 0.719000 0.851100
20 -0.617500 -11.260300 169.667297 -0.497975 -0.502075 -0.707065 0.733600 0.852300
20 0.000000 -10.005199 169.498398 0.000000 -0.746868 -0.664972 0.719000 0.838900
HQskinClass407.jpg
20 0.000000 -10.005199 169.498398 0.000000 -0.746868 -0.664972 0.719000 0.838900
20 -0.617500 -11.260300 169.667297 -0.497975 -0.502075 -0.707065 0.733600 0.852300
20 -1.366900 -9.537300 169.865295 -0.589812 -0.740215 -0.322807 0.764400 0.843500
HQskinClass407.jpg
20 -4.574600 -8.043299 174.729599 -0.605626 -0.784334 -0.134306 0.834200 0.903100
20 -5.371800 -8.243299 176.349792 -0.826228 -0.556419 -0.088003 0.855300 0.926300
20 -5.314200 -7.445300 175.160797 -0.830815 -0.531309 -0.165703 0.854800 0.908700
HQskinClass407.jpg
20 -3.439200 -8.838100 174.044296 -0.309095 -0.945083 0.106198 0.814700 0.894600
20 -3.620200 -9.037199 172.209396 -0.301001 -0.953604 -0.006100 0.815300 0.871800
20 -1.326200 -8.774000 174.133499 -0.688130 -0.681630 -0.248711 0.762900 0.892500
HQskinClass407.jpg
20 -3.524600 -9.959198 175.780304 -0.503408 -0.814813 -0.287505 0.812500 0.925400
20 -1.344300 -10.437998 175.198303 -0.252295 -0.951082 -0.178297 0.742100 0.908000
20 0.000000 -10.157700 179.631104 0.000000 -0.991129 0.132904 0.719000 0.960600
HQskinClass407.jpg
20 0.000000 -10.157700 179.631104 0.000000 -0.991129 0.132904 0.719000 0.960600
20 -3.207400 -9.324299 180.508499 -0.488805 -0.855509 0.170802 0.807200 0.972300
20 -3.524600 -9.959198 175.780304 -0.503408 -0.814813 -0.287505 0.812500 0.925400
HQskinClass407.jpg
20 -0.890300 -10.174099 174.107300 -0.611877 -0.769872 -0.181393 0.731100 0.890400
20 -1.344300 -10.437998 175.198303 -0.252295 -0.951082 -0.178297 0.742100 0.908000
20 -1.538900 -10.039900 174.728897 -0.519415 -0.541415 -0.661119 0.756400 0.902100
HQskinClass407.jpg
20 -6.192600 -5.579500 175.654404 -0.955513 -0.294304 0.019500 0.886400 0.922600
20 -5.371800 -8.243299 176.349792 -0.826228 -0.556419 -0.088003 0.855300 0.926300
20 -4.995500 -7.456600 180.273499 -0.838417 -0.518910 0.166703 0.852700 0.970500
HQskinClass407.jpg
20 -4.995500 -7.456600 180.273499 -0.838417 -0.518910 0.166703 0.852700 0.970500
20 -7.116400 -2.666800 177.937302 -0.967275 -0.238094 -0.087698 0.968600 0.980300
20 -6.192600 -5.579500 175.654404 -0.955513 -0.294304 0.019500 0.886400 0.922600
HQskinClass407.jpg
20 -3.439200 -8.838100 174.044296 -0.309095 -0.945083 0.106198 0.814700 0.894600
20 -4.574600 -8.043299 174.729599 -0.605626 -0.784334 -0.134306 0.834200 0.903100
20 -5.067100 -7.936400 172.136200 -0.769292 -0.630293 -0.104499 0.853000 0.869000
HQskinClass407.jpg
20 -5.067100 -7.936400 172.136200 -0.769292 -0.630293 -0.104499 0.853000 0.869000
20 -3.620200 -9.037199 172.209396 -0.301001 -0.953604 -0.006100 0.815300 0.871800
20 -3.439200 -8.838100 174.044296 -0.309095 -0.945083 0.106198 0.814700 0.894600
HQskinClass407.jpg
20 -1.326200 -8.774000 174.133499 -0.688130 -0.681630 -0.248711 0.762900 0.892500
20 -1.538900 -10.039900 174.728897 -0.519415 -0.541415 -0.661119 0.756400 0.902100
20 -2.076200 -9.176500 174.823502 -0.335189 -0.105997 -0.936169 0.773800 0.902900
HQskinClass407.jpg
20 -3.413600 -9.019901 175.046097 0.100399 -0.196798 -0.975290 0.835900 0.985200
20 -4.574600 -8.043299 174.729599 0.100399 -0.196798 -0.975290 0.819900 0.979800
20 -4.394200 -7.752300 174.689499 0.100399 -0.196798 -0.975290 0.822400 0.984600
HQskinClass407.jpg
20 -4.394200 -7.752300 174.689499 -0.025599 -0.289088 -0.956960 0.822400 0.984600
20 -3.392800 -8.674700 174.941299 -0.025599 -0.289088 -0.956960 0.835900 0.987900
20 -3.413600 -9.019901 175.046097 -0.025599 -0.289088 -0.956960 0.835900 0.985200
HQskinClass407.jpg
20 -1.326200 -8.774000 174.133499 -0.579315 -0.250306 -0.775720 0.867000 0.983500
20 -2.076200 -9.176500 174.823502 -0.579315 -0.250306 -0.775720 0.855600 0.984900
20 -2.112000 -8.819199 174.735001 -0.579315 -0.250306 -0.775720 0.855700 0.986900
HQskinClass407.jpg
20 -2.112000 -8.819199 174.735001 -0.580491 -0.244196 -0.776788 0.855700 0.986900
20 -1.599200 -8.435499 174.231201 -0.580491 -0.244196 -0.776788 0.862700 0.986000
20 -1.326200 -8.774000 174.133499 -0.580491 -0.244196 -0.776788 0.867000 0.983500
HQskinClass407.jpg
20 -1.538900 -10.039900 174.728897 -0.519415 -0.541415 -0.661119 0.756400 0.902100
20 -1.344300 -10.437998 175.198303 -0.252295 -0.951082 -0.178297 0.742100 0.908000
20 -3.524600 -9.959198 175.780304 -0.503408 -0.814813 -0.287505 0.812500 0.925400
HQskinClass407.jpg
20 -1.538900 -10.039900 174.728897 -0.519415 -0.541415 -0.661119 0.756400 0.902100
20 -3.524600 -9.959198 175.780304 -0.503408 -0.814813 -0.287505 0.812500 0.925400
20 -3.413600 -9.019901 175.046097 -0.509904 -0.518105 -0.686706 0.810900 0.908100
HQskinClass407.jpg
20 -1.538900 -10.039900 174.728897 -0.519415 -0.541415 -0.661119 0.756400 0.902100
20 -3.413600 -9.019901 175.046097 -0.509904 -0.518105 -0.686706 0.810900 0.908100
20 -2.076200 -9.176500 174.823502 -0.335189 -0.105997 -0.936169 0.773800 0.902900
HQskinClass407.jpg
20 -3.413600 -9.019901 175.046097 -0.183100 -0.275501 -0.943702 0.835900 0.985200
20 -3.392800 -8.674700 174.941299 -0.183100 -0.275501 -0.943702 0.835900 0.987900
20 -2.112000 -8.819199 174.735001 -0.183100 -0.275501 -0.943702 0.855700 0.986900
HQskinClass407.jpg
20 -2.112000 -8.819199 174.735001 -0.187690 -0.253886 -0.948849 0.855700 0.986900
20 -2.076200 -9.176500 174.823502 -0.187690 -0.253886 -0.948849 0.855600 0.984900
20 -3.413600 -9.019901 175.046097 -0.187690 -0.253886 -0.948849 0.835900 0.985200
HQskinClass407.jpg
20 -4.574600 -8.043299 174.729599 0.434503 -0.145701 0.888807 0.862000 0.979400
20 -3.439200 -8.838100 174.044296 0.434503 -0.145701 0.888807 0.852200 0.977100
20 -3.540000 -8.457098 174.156006 0.434503 -0.145701 0.888807 0.850500 0.983100
HQskinClass407.jpg
20 -3.540000 -8.457098 174.156006 0.434122 -0.146607 0.888845 0.850500 0.983100
20 -4.394200 -7.752300 174.689499 0.434122 -0.146607 0.888845 0.860700 0.980800
20 -4.574600 -8.043299 174.729599 0.434122 -0.146607 0.888845 0.862000 0.979400
HQskinClass407.jpg
20 -1.599200 -8.435499 174.231201 -0.033799 -0.289495 0.956583 0.825700 0.979300
20 -3.540000 -8.457098 174.156006 -0.033799 -0.289495 0.956583 0.850500 0.983100
20 -3.439200 -8.838100 174.044296 -0.033799 -0.289495 0.956583 0.852200 0.977100
HQskinClass407.jpg
20 -3.439200 -8.838100 174.044296 -0.031101 -0.300311 0.953334 0.852200 0.977100
20 -1.326200 -8.774000 174.133499 -0.031101 -0.300311 0.953334 0.824600 0.977400
20 -1.599200 -8.435499 174.231201 -0.031101 -0.300311 0.953334 0.825700 0.979300
HQskinClass407.jpg
20 -6.889700 1.177800 175.147995 0.109698 0.988881 -0.100398 0.950700 0.773900
20 -6.771400 1.442300 171.530701 -0.974328 -0.225007 0.007500 0.920600 0.745500
20 -5.945200 -0.942200 170.388306 -0.885679 0.097298 -0.453989 0.892100 0.759100
HQskinClass407.jpg
20 -7.276700 1.047000 176.626602 -0.027402 0.598638 0.800551 0.993300 0.793400
20 -8.639600 1.092600 176.453506 -0.754260 0.290185 0.588969 0.987700 0.777500
20 -7.011500 -1.303000 176.438400 -0.942881 -0.331693 0.030899 0.995000 0.723900
HQskinClass407.jpg
20 -8.853000 1.634500 174.357498 -0.756284 0.611387 -0.232895 0.978600 0.778000
20 -6.889700 1.177800 175.147995 0.109698 0.988881 -0.100398 0.978600 0.793800
20 -5.945200 -0.942200 170.388306 -0.885679 0.097298 -0.453989 0.949000 0.751600
HQskinClass407.jpg
20 -5.945200 -0.942200 170.388306 -0.885679 0.097298 -0.453989 0.949000 0.751600
20 -7.731800 0.276800 171.285797 -0.606695 0.544795 -0.578895 0.959100 0.748700
20 -8.853000 1.634500 174.357498 -0.756284 0.611387 -0.232895 0.978600 0.778000
HQskinClass407.jpg
20 -7.276700 1.047000 176.626602 -0.027402 0.598638 0.800551 0.993300 0.793400
20 -6.889700 1.177800 175.147995 0.109698 0.988881 -0.100398 0.978600 0.793800
20 -8.853000 1.634500 174.357498 -0.756284 0.611387 -0.232895 0.978600 0.778000
HQskinClass407.jpg
20 -8.853000 1.634500 174.357498 -0.756284 0.611387 -0.232895 0.978600 0.778000
20 -8.639600 1.092600 176.453506 -0.754260 0.290185 0.588969 0.987700 0.777500
20 -7.276700 1.047000 176.626602 -0.027402 0.598638 0.800551 0.993300 0.793400
HQskinClass407.jpg
20 -5.945200 -0.942200 170.388306 -0.885679 0.097298 -0.453989 0.949000 0.751600
20 -6.461000 -2.028200 170.529602 -0.957978 -0.045599 -0.283194 0.958800 0.719800
20 -7.731800 0.276800 171.285797 -0.606695 0.544795 -0.578895 0.959100 0.748700
HQskinClass407.jpg
20 -7.731800 0.276800 171.285797 -0.606695 0.544795 -0.578895 0.959100 0.748700
20 -6.461000 -2.028200 170.529602 -0.957978 -0.045599 -0.283194 0.958800 0.719800
20 -7.011500 -1.303000 176.438400 -0.942881 -0.331693 0.030899 0.995000 0.723900
HQskinClass407.jpg
20 -7.011500 -1.303000 176.438400 -0.942881 -0.331693 0.030899 0.995000 0.723900
20 -8.639600 1.092600 176.453506 -0.754260 0.290185 0.588969 0.987700 0.777500
20 -8.853000 1.634500 174.357498 -0.756284 0.611387 -0.232895 0.978600 0.778000
HQskinClass407.jpg
20 -7.731800 0.276800 171.285797 -0.606695 0.544795 -0.578895 0.959100 0.748700
20 -7.011500 -1.303000 176.438400 -0.942881 -0.331693 0.030899 0.995000 0.723900
20 -8.853000 1.634500 174.357498 -0.756284 0.611387 -0.232895 0.978600 0.778000
HQskinClass407.jpg
20 -1.261600 -8.586498 174.688400 0.170801 -0.985306 0.000000 0.671300 0.677900
20 -1.261600 -8.586498 174.688400 1.000000 -0.000000 0.000000 0.671300 0.677900
20 -2.802600 -8.272900 176.261002 -0.185696 -0.912782 0.363793 0.701600 0.708200
HQskinClass407.jpg
20 -2.802600 -8.272900 176.261002 -0.185696 -0.912782 0.363793 0.701600 0.708200
20 -2.925100 -8.874798 174.688400 -0.199404 -0.979918 0.000000 0.701600 0.677900
20 -1.261600 -8.586498 174.688400 0.170801 -0.985306 0.000000 0.671300 0.677900
HQskinClass407.jpg
20 -2.802600 -8.272900 176.261002 -0.185696 -0.912782 0.363793 0.701600 0.708200
20 -4.343600 -7.959301 174.688400 -0.542293 -0.840189 0.000000 0.731900 0.677900
20 -2.925100 -8.874798 174.688400 -0.199404 -0.979918 0.000000 0.701600 0.677900
HQskinClass407.jpg
20 -4.343600 -7.959301 174.688400 -0.542293 -0.840189 0.000000 0.731900 0.677900
20 -2.802600 -8.272900 173.115906 -0.185696 -0.912782 -0.363793 0.701600 0.647600
20 -2.925100 -8.874798 174.688400 -0.199404 -0.979918 0.000000 0.701600 0.677900
HQskinClass407.jpg
20 -2.802600 -8.272900 173.115906 -0.185696 -0.912782 -0.363793 0.701600 0.647600
20 -1.261600 -8.586498 174.688400 0.170801 -0.985306 0.000000 0.671300 0.677900
20 -2.925100 -8.874798 174.688400 -0.199404 -0.979918 0.000000 0.701600 0.677900
HQskinClass407.jpg
20 -2.815200 -6.633200 164.113800 -0.659030 -0.137006 -0.739533 0.810600 0.765800
20 -4.418900 -3.275100 165.819901 0.297014 0.541426 -0.786537 0.891100 0.768100
20 0.000000 -4.710900 163.736206 0.000000 -0.724000 -0.689800 0.719000 0.720600
HQskinClass407.jpg
20 0.000000 -4.710900 163.736206 0.000000 -0.724000 -0.689800 0.719000 0.720600
20 -1.582500 -7.630400 163.553207 -0.342786 -0.307488 -0.887665 0.763800 0.753800
20 -2.815200 -6.633200 164.113800 -0.659030 -0.137006 -0.739533 0.810600 0.765800
HQskinClass407.jpg
20 -6.192600 -5.579500 175.654404 -0.955513 -0.294304 0.019500 0.886400 0.922600
20 -7.116400 -2.666800 177.937302 -0.967275 -0.238094 -0.087698 0.968600 0.980300
20 -7.011500 -1.303000 176.438400 -0.942881 -0.331693 0.030899 0.985800 0.972900
HQskinClass407.jpg
20 -7.011500 -1.303000 176.438400 -0.942881 -0.331693 0.030899 0.985800 0.972900
20 -6.116400 -6.089200 173.554199 -0.942368 -0.330289 -0.053398 0.885000 0.888700
20 -6.192600 -5.579500 175.654404 -0.955513 -0.294304 0.019500 0.886400 0.922600
end
