version 1
nodes
0 "Bip01" -1
1 "Bip01 Footsteps" 0
2 "Bip01 Pelvis" 0
3 "Bip01 L Thigh" 2
4 "Bip01 L Calf" 3
5 "Bip01 L Foot" 4
6 "Bip01 L Toe0" 5
7 "Bip01 L Toe01" 6
8 "Bip01 L Toe02" 7
9 "Null 9" -1
10 "Bip01 R Thigh" 2
11 "Bip01 R Calf" 10
12 "Bip01 R Foot" 11
13 "Bip01 R Toe0" 12
14 "Bip01 R Toe01" 13
15 "Bip01 R Toe02" 14
16 "Null 16" -1
17 "Bip01 Spine" 2
18 "Bip01 Spine1" 17
19 "Bip01 Neck" 18
20 "Bip01 Head" 19
21 "Null 21" -1
22 "Bip01 Ponytail1" 20
23 "Bip01 Ponytail11" 22
24 "Null 24" -1
25 "Bip01 R Clavicle" 19
26 "Bip01 R UpperArm" 25
27 "Bip01 R Forearm" 26
28 "Bip01 R Hand" 27
29 "Bip01 R Finger0" 28
30 "Bip01 R Finger01" 29
31 "Bip01 R Finger02" 30
32 "Null 32" -1
33 "knife_gdf" 28
34 "Bip01 L Clavicle" 19
35 "Bip01 L UpperArm" 34
36 "Bip01 L Forearm" 35
37 "Bip01 L Hand" 36
38 "Bip01 L Finger0" 37
39 "Bip01 L Finger01" 38
40 "Bip01 L Finger02" 39
41 "Null 41" -1
42 "hand_bofdgne01" 37
43 "Bone01" 17
44 "Bone02" 43
45 "Bone03" 44
46 "Bone04" 45
47 "Bone05" 17
48 "Bone06" 47
49 "Bone07" 48
50 "Bone08" 49
end
skeleton
time 0
0 0.000000 0.000000 109.950928 0.000000 0.000000 -1.570795
1 0.000000 0.000000 -109.958252 0.000000 -0.000000 1.570795
2 0.000000 0.000000 0.000000 -1.570795 -1.570796 0.000000
3 -0.000014 0.000019 10.281536 0.000001 3.141591 -0.100000
4 49.430481 0.000000 -0.000000 -0.000000 -0.000000 -0.200000
5 49.430462 0.000001 -0.000000 0.000000 -0.000000 0.100000
6 11.591197 14.908227 0.000000 -0.000000 -0.000000 1.570796
7 4.161462 -0.000000 0.000000 0.000000 -0.000000 0.000000
8 4.161460 0.000000 0.000000 0.000000 -0.000000 0.000000
9 0.000000 0.000000 0.000000 0.000000 0.000000 0.000000
10 0.000014 -0.000009 -10.281536 0.000001 3.141591 -0.100000
11 49.430481 0.000000 -0.000000 -0.000000 -0.000000 -0.200000
12 49.430462 0.000001 0.000000 0.000000 -0.000000 0.100000
13 11.591197 14.908227 0.000000 0.000000 0.000000 1.570796
14 4.161462 -0.000000 0.000000 0.000000 -0.000000 0.000000
15 4.161458 -0.000000 0.000000 0.000000 -0.000000 0.000000
16 0.000000 0.000000 0.000000 0.000000 0.000000 0.000000
17 3.598549 -0.015762 0.000005 -0.000004 -0.000001 0.000796
18 19.801466 -0.020711 -0.000000 0.000000 -0.000000 0.000000
19 26.009638 -0.004092 -0.000000 0.000000 -0.000000 0.030000
20 5.140770 -0.000000 -0.000000 0.000000 0.000000 -0.030798
21 0.000000 0.000000 0.000000 0.000000 0.000000 0.000000
22 6.888315 -6.881610 -0.000019 -0.000005 0.000001 -2.749229
23 15.458327 -0.012906 -0.000000 -0.000000 0.000001 -0.219299
24 0.000000 0.000000 0.000000 0.000000 0.000000 0.000000
25 0.000000 0.004110 -6.477368 -0.000014 1.370796 3.110783
26 13.400166 -0.000000 0.000000 -0.000000 -1.183530 -0.000000
27 37.630424 0.000000 -0.000002 0.000000 -0.000000 -0.025467
28 27.473604 0.000000 0.000002 1.569921 0.000000 0.000000
29 10.423897 -1.809571 -0.029783 0.000875 -0.000000 -0.000000
30 3.624243 -0.000003 -0.000000 0.000000 -0.000000 0.000000
31 3.624247 0.000004 -0.000000 0.000000 -0.000000 0.000000
32 0.000000 0.000000 0.000000 0.000000 0.000000 0.000000
33 9.026139 3.666775 0.258435 -1.374363 -0.037857 1.754420
34 0.000000 0.004077 6.477368 -0.000014 -1.370796 3.110810
35 13.400166 0.000000 -0.000000 -0.000000 1.183530 0.000000
36 37.630432 0.000000 0.000001 0.000000 0.000000 -0.025467
37 27.473597 0.000000 0.000002 -1.569921 -0.000000 0.000000
38 10.423897 -1.809568 0.029783 -0.000875 0.000000 0.000000
39 3.624243 -0.000004 -0.000000 0.000000 -0.000000 0.000000
40 3.624246 0.000003 0.000000 0.000000 -0.000000 0.000000
41 0.000000 0.000000 0.000000 0.000000 0.000000 0.000000
42 9.000602 3.769935 0.531383 1.767230 -0.037854 -1.387172
43 15.155036 10.590148 0.000024 3.140796 -1.570796 0.000000
44 0.000000 -0.606424 -3.234268 -0.020312 -0.000000 -0.000000
45 0.000001 -3.638542 -20.011988 -0.119229 0.000000 -0.000000
46 0.000001 -0.606424 -26.480518 0.000000 -0.000000 0.000000
47 16.351946 -9.422812 -0.000022 3.140796 -1.570796 0.000000
48 0.000000 0.000000 -2.627838 -0.122942 -0.000000 -0.000000
49 0.000000 5.457817 -16.979876 0.119623 0.000000 -0.000000
50 0.000001 2.627836 -27.895494 0.000000 -0.000000 0.000000
end
triangles
HQskinClass404.jpg
20 0.416800 1.854400 193.627396 0.096097 -0.070498 0.992872 0.653400 0.719400
20 6.077800 -7.120601 188.380600 0.665276 -0.490483 0.562880 0.582200 0.724600
20 6.786100 1.068200 190.119202 0.783477 -0.030299 0.620682 0.629700 0.752700
HQskinClass404.jpg
20 0.416800 1.854400 193.627396 0.096097 -0.070498 0.992872 0.653400 0.719400
20 6.786100 1.068200 190.119202 0.783477 -0.030299 0.620682 0.629700 0.752700
20 5.960400 7.339400 189.978607 0.796195 0.324598 0.510597 0.670000 0.763800
HQskinClass404.jpg
20 0.417700 9.529100 193.230606 -0.022001 0.115705 0.993040 0.695300 0.731100
20 5.960400 7.339400 189.978607 0.796195 0.324598 0.510597 0.670000 0.763800
20 0.418800 20.886200 192.263000 0.007300 0.971091 0.238598 0.756200 0.753500
HQskinClass404.jpg
20 8.958000 -2.189100 182.068207 0.994285 -0.104298 0.022800 0.862700 0.920600
20 6.786100 1.068200 190.119202 0.783477 -0.030299 0.620682 0.885200 0.965200
20 6.077800 -7.120601 188.380600 0.665276 -0.490483 0.562880 0.837400 0.963300
HQskinClass404.jpg
20 6.077800 -7.120601 188.380600 0.665276 -0.490483 0.562880 0.837400 0.963300
20 7.927500 -7.937000 184.412003 0.809545 -0.585833 -0.037902 0.834700 0.939300
20 8.958000 -2.189100 182.068207 0.994285 -0.104298 0.022800 0.862700 0.920600
HQskinClass404.jpg
20 8.958000 -2.189100 182.068207 0.994285 -0.104298 0.022800 0.862700 0.920600
20 7.927500 -7.937000 184.412003 0.809545 -0.585833 -0.037902 0.834700 0.939300
20 6.136300 -6.886500 182.406601 0.405907 -0.576910 -0.708812 0.830000 0.925100
HQskinClass404.jpg
20 6.136300 -6.886500 182.406601 0.405907 -0.576910 -0.708812 0.830000 0.925100
20 8.183700 -3.831500 176.853302 0.738744 -0.593435 -0.319519 0.850300 0.892700
20 8.958000 -2.189100 182.068207 0.994285 -0.104298 0.022800 0.862700 0.920600
HQskinClass404.jpg
20 7.752800 6.819900 182.282196 0.993935 0.094103 0.056902 0.915700 0.917300
20 8.183700 -3.831500 176.853302 0.738744 -0.593435 -0.319519 0.850300 0.892700
20 6.868400 8.841400 175.532806 0.771664 0.513076 -0.375882 0.921500 0.876600
HQskinClass404.jpg
20 7.752800 6.819900 182.282196 0.993935 0.094103 0.056902 0.915700 0.917300
20 6.868400 8.841400 175.532806 0.771664 0.513076 -0.375882 0.921500 0.876600
20 7.546500 10.669800 179.970505 0.823636 0.483121 -0.297013 0.936300 0.901500
HQskinClass404.jpg
20 7.752800 6.819900 182.282196 0.993935 0.094103 0.056902 0.915700 0.917300
20 7.546500 10.669800 179.970505 0.823636 0.483121 -0.297013 0.936300 0.901500
20 6.758400 9.838800 186.491104 0.540900 0.507400 0.670800 0.938600 0.943800
HQskinClass404.jpg
20 5.737900 -2.038700 169.882401 0.280392 -0.580083 -0.764777 0.860000 0.851800
20 4.602000 4.464300 167.734406 0.298110 0.086203 -0.950631 0.894400 0.834300
20 6.868400 8.841400 175.532806 0.771664 0.513076 -0.375882 0.921500 0.876600
HQskinClass404.jpg
20 6.868400 8.841400 175.532806 0.771664 0.513076 -0.375882 0.921500 0.876600
20 8.183700 -3.831500 176.853302 0.738744 -0.593435 -0.319519 0.850300 0.892700
20 5.737900 -2.038700 169.882401 0.280392 -0.580083 -0.764777 0.860000 0.851800
HQskinClass404.jpg
20 4.602000 4.464300 167.734406 0.298110 0.086203 -0.950631 0.894400 0.834300
20 0.307100 7.590099 169.159103 0.013400 0.442888 -0.896477 0.926400 0.823100
20 0.354600 10.011101 172.582306 -0.052400 0.918600 -0.391700 0.942400 0.840700
HQskinClass404.jpg
20 0.354600 10.011101 172.582306 -0.052400 0.918600 -0.391700 0.942400 0.840700
20 6.868400 8.841400 175.532806 0.771664 0.513076 -0.375882 0.921500 0.876600
20 4.602000 4.464300 167.734406 0.298110 0.086203 -0.950631 0.894400 0.834300
HQskinClass404.jpg
20 0.416800 1.854400 193.627396 0.096097 -0.070498 0.992872 0.653400 0.719400
20 -7.269200 -6.995100 189.120102 -0.752212 -0.300305 0.586510 0.618000 0.655400
20 -0.042900 -7.290600 191.746902 0.096801 -0.408504 0.907609 0.600900 0.692200
HQskinClass404.jpg
20 0.416800 1.854400 193.627396 0.096097 -0.070498 0.992872 0.653400 0.719400
20 -7.602600 1.061700 190.965195 -0.731018 0.007500 0.682317 0.663500 0.672400
20 -7.269200 -6.995100 189.120102 -0.752212 -0.300305 0.586510 0.618000 0.655400
HQskinClass404.jpg
20 0.416800 1.854400 193.627396 0.096097 -0.070498 0.992872 0.653400 0.719400
20 0.417700 9.529100 193.230606 -0.022001 0.115705 0.993040 0.695300 0.731100
20 -7.602600 1.061700 190.965195 -0.731018 0.007500 0.682317 0.663500 0.672400
HQskinClass404.jpg
20 0.417700 9.529100 193.230606 -0.022001 0.115705 0.993040 0.695300 0.731100
20 0.418800 20.886200 192.263000 0.007300 0.971091 0.238598 0.756200 0.753500
20 -5.644800 7.105400 188.679794 -0.390496 0.501694 0.771891 0.700000 0.682100
HQskinClass404.jpg
20 -7.269200 -6.995100 189.120102 -0.752212 -0.300305 0.586510 0.618000 0.655400
20 -7.602600 1.061700 190.965195 -0.731018 0.007500 0.682317 0.663500 0.672400
20 -9.176800 -0.688600 181.964798 -0.997099 -0.037400 -0.066300 0.659900 0.620000
HQskinClass404.jpg
20 -9.176800 -0.688600 181.964798 -0.997099 -0.037400 -0.066300 0.659900 0.620000
20 -7.417600 -7.963400 185.804504 -0.954613 -0.286904 0.080001 0.612000 0.634900
20 -7.269200 -6.995100 189.120102 -0.752212 -0.300305 0.586510 0.618000 0.655400
HQskinClass404.jpg
20 -7.602600 1.061700 190.965195 -0.731018 0.007500 0.682317 0.663500 0.672400
20 -5.644800 7.105400 188.679794 -0.390496 0.501694 0.771891 0.700000 0.682100
20 -6.359100 11.035400 186.905197 -0.163704 0.284407 0.944624 0.724400 0.669400
HQskinClass404.jpg
20 -5.644800 7.105400 188.679794 -0.390496 0.501694 0.771891 0.992200 0.763000
20 0.418800 20.886200 192.263000 0.007300 0.971091 0.238598 0.970700 0.849300
20 0.354900 9.530300 184.605103 0.240595 0.963180 -0.119997 0.949400 0.773500
HQskinClass404.jpg
20 0.354900 9.530300 184.605103 0.240595 0.963180 -0.119997 0.730600 0.711600
20 -4.055200 19.607601 186.274506 0.066397 0.967854 0.242589 0.775100 0.667800
20 -6.359100 11.035400 186.905197 -0.163704 0.284407 0.944624 0.724400 0.669400
HQskinClass404.jpg
20 -5.644800 7.105400 188.679794 -0.390496 0.501694 0.771891 0.700000 0.682100
20 0.354900 9.530300 184.605103 0.240595 0.963180 -0.119997 0.730600 0.711600
20 -6.359100 11.035400 186.905197 -0.163704 0.284407 0.944624 0.724400 0.669400
HQskinClass404.jpg
20 -9.176800 -0.688600 181.964798 -0.997099 -0.037400 -0.066300 0.659900 0.620000
20 -7.031300 -4.214300 173.279099 -0.376693 -0.562389 -0.736085 0.643600 0.569500
20 -6.843900 -9.101400 181.212799 -0.796002 -0.439401 -0.416301 0.602600 0.605800
HQskinClass404.jpg
20 -6.843900 -9.101400 181.212799 -0.796002 -0.439401 -0.416301 0.602600 0.605800
20 -7.417600 -7.963400 185.804504 -0.954613 -0.286904 0.080001 0.612000 0.634900
20 -9.176800 -0.688600 181.964798 -0.997099 -0.037400 -0.066300 0.659900 0.620000
HQskinClass404.jpg
20 -9.176800 -0.688600 181.964798 -0.997099 -0.037400 -0.066300 0.659900 0.620000
20 -8.337900 10.648102 185.632904 -0.915419 0.343007 0.210604 0.721800 0.651800
20 -5.403500 6.082400 172.263000 -0.816729 0.507918 -0.273810 0.706700 0.568400
HQskinClass404.jpg
20 -5.403500 6.082400 172.263000 -0.816729 0.507918 -0.273810 0.706700 0.568400
20 -7.031300 -4.214300 173.279099 -0.376693 -0.562389 -0.736085 0.643600 0.569500
20 -9.176800 -0.688600 181.964798 -0.997099 -0.037400 -0.066300 0.659900 0.620000
HQskinClass404.jpg
20 0.354600 10.011101 172.582306 -0.052400 0.918600 -0.391700 0.743700 0.556500
20 -5.403500 6.082400 172.263000 -0.816729 0.507918 -0.273810 0.706700 0.568400
20 -5.734500 9.327000 178.421204 -0.434500 0.808800 -0.396300 0.729500 0.605300
HQskinClass404.jpg
20 0.354900 9.530300 184.605103 0.240595 0.963180 -0.119997 0.781400 0.608700
20 0.354600 10.011101 172.582306 -0.052400 0.918600 -0.391700 0.743700 0.556500
20 -5.734500 9.327000 178.421204 -0.434500 0.808800 -0.396300 0.729500 0.605300
HQskinClass404.jpg
20 -4.055200 19.607601 186.274506 0.066397 0.967854 0.242589 0.775100 0.667800
20 0.354900 9.530300 184.605103 0.240595 0.963180 -0.119997 0.781400 0.608700
20 -5.734500 9.327000 178.421204 -0.434500 0.808800 -0.396300 0.729500 0.605300
HQskinClass404.jpg
20 -6.843900 -9.101400 181.212799 -0.796002 -0.439401 -0.416301 0.602600 0.605800
20 -4.490300 -11.258799 174.971405 -0.422389 -0.818179 -0.390090 0.554700 0.586100
20 -5.586500 -14.905800 183.807907 -0.425000 -0.904901 -0.023000 0.564900 0.627200
HQskinClass404.jpg
20 -5.586500 -14.905800 183.807907 -0.425000 -0.904901 -0.023000 0.564900 0.627200
20 -7.417600 -7.963400 185.804504 -0.954613 -0.286904 0.080001 0.612000 0.634900
20 -6.843900 -9.101400 181.212799 -0.796002 -0.439401 -0.416301 0.602600 0.605800
HQskinClass404.jpg
20 -5.686900 3.188900 168.490997 -0.480077 -0.218189 -0.849659 0.692600 0.546800
20 -7.031300 -4.214300 173.279099 -0.376693 -0.562389 -0.736085 0.643600 0.569500
20 -5.403500 6.082400 172.263000 -0.816729 0.507918 -0.273810 0.706700 0.568400
HQskinClass404.jpg
20 -5.403500 6.082400 172.263000 -0.816729 0.507918 -0.273810 0.706700 0.568400
20 -4.794000 5.452700 168.431702 -0.370486 0.336688 -0.865668 0.700600 0.545700
20 -5.686900 3.188900 168.490997 -0.480077 -0.218189 -0.849659 0.692600 0.546800
HQskinClass404.jpg
20 0.354600 10.011101 172.582306 -0.052400 0.918600 -0.391700 0.743700 0.556500
20 0.307100 7.590099 169.159103 0.013400 0.442888 -0.896477 0.730700 0.537000
20 -4.794000 5.452700 168.431702 -0.370486 0.336688 -0.865668 0.700600 0.545700
HQskinClass404.jpg
20 -4.794000 5.452700 168.431702 -0.370486 0.336688 -0.865668 0.700600 0.545700
20 -5.403500 6.082400 172.263000 -0.816729 0.507918 -0.273810 0.706700 0.568400
20 0.354600 10.011101 172.582306 -0.052400 0.918600 -0.391700 0.743700 0.556500
HQskinClass404.jpg
20 -4.276500 -14.436800 186.641205 -0.128105 -0.879037 0.459219 0.563200 0.648500
20 -7.417600 -7.963400 185.804504 -0.954613 -0.286904 0.080001 0.612000 0.634900
20 -5.586500 -14.905800 183.807907 -0.425000 -0.904901 -0.023000 0.564900 0.627200
HQskinClass404.jpg
20 -0.042900 -7.290600 191.746902 0.096801 -0.408504 0.907609 0.600900 0.692200
20 6.077800 -7.120601 188.380600 0.665276 -0.490483 0.562880 0.582200 0.724600
20 0.416800 1.854400 193.627396 0.096097 -0.070498 0.992872 0.653400 0.719400
HQskinClass404.jpg
20 -4.276500 -14.436800 186.641205 -0.128105 -0.879037 0.459219 0.563200 0.648500
20 6.077800 -7.120601 188.380600 0.665276 -0.490483 0.562880 0.582200 0.724600
20 -0.042900 -7.290600 191.746902 0.096801 -0.408504 0.907609 0.600900 0.692200
HQskinClass404.jpg
20 -7.269200 -6.995100 189.120102 -0.752212 -0.300305 0.586510 0.618000 0.655400
20 -7.417600 -7.963400 185.804504 -0.954613 -0.286904 0.080001 0.612000 0.634900
20 -4.276500 -14.436800 186.641205 -0.128105 -0.879037 0.459219 0.563200 0.648500
HQskinClass404.jpg
20 -7.269200 -6.995100 189.120102 -0.752212 -0.300305 0.586510 0.618000 0.655400
20 -4.276500 -14.436800 186.641205 -0.128105 -0.879037 0.459219 0.563200 0.648500
20 -0.042900 -7.290600 191.746902 0.096801 -0.408504 0.907609 0.600900 0.692200
HQskinClass404.jpg
20 0.322800 -5.368200 181.983505 0.106502 -0.518509 -0.848414 0.804700 0.830100
20 0.231500 2.737300 171.810104 -0.172797 -0.617089 -0.767686 0.763700 0.793600
20 5.737900 -2.038700 169.882401 0.280392 -0.580083 -0.764777 0.790000 0.771700
HQskinClass404.jpg
20 5.737900 -2.038700 169.882401 0.280392 -0.580083 -0.764777 0.790000 0.771700
20 8.183700 -3.831500 176.853302 0.738744 -0.593435 -0.319519 0.815300 0.791700
20 0.322800 -5.368200 181.983505 0.106502 -0.518509 -0.848414 0.804700 0.830100
HQskinClass404.jpg
20 0.322800 -5.368200 181.983505 0.106502 -0.518509 -0.848414 0.804700 0.830100
20 -7.031300 -4.214300 173.279099 -0.376693 -0.562389 -0.736085 0.757200 0.839900
20 -5.686900 3.188900 168.490997 -0.480077 -0.218189 -0.849659 0.734700 0.806000
HQskinClass404.jpg
20 -5.686900 3.188900 168.490997 -0.480077 -0.218189 -0.849659 0.734700 0.806000
20 0.231500 2.737300 171.810104 -0.172797 -0.617089 -0.767686 0.763700 0.793600
20 0.322800 -5.368200 181.983505 0.106502 -0.518509 -0.848414 0.804700 0.830100
HQskinClass404.jpg
20 -0.944100 -11.971600 181.303101 0.444584 -0.704275 -0.553481 0.777900 0.936200
20 6.136300 -6.886500 182.406601 0.405907 -0.576910 -0.708812 0.830000 0.925100
20 7.927500 -7.937000 184.412003 0.809545 -0.585833 -0.037902 0.834700 0.939300
HQskinClass404.jpg
20 6.136300 -6.886500 182.406601 0.405907 -0.576910 -0.708812 0.826700 0.818000
20 0.322800 -5.368200 181.983505 0.106502 -0.518509 -0.848414 0.804700 0.830100
20 8.183700 -3.831500 176.853302 0.738744 -0.593435 -0.319519 0.815300 0.791700
HQskinClass404.jpg
20 0.322800 -5.368200 181.983505 0.106502 -0.518509 -0.848414 0.804700 0.830100
20 6.136300 -6.886500 182.406601 0.405907 -0.576910 -0.708812 0.826700 0.818000
20 -0.944100 -11.971600 181.303101 0.444584 -0.704275 -0.553481 0.818500 0.854700
HQskinClass404.jpg
20 -0.944100 -11.971600 181.303101 0.444584 -0.704275 -0.553481 0.777900 0.936200
20 7.927500 -7.937000 184.412003 0.809545 -0.585833 -0.037902 0.834700 0.939300
20 6.077800 -7.120601 188.380600 0.665276 -0.490483 0.562880 0.837400 0.963300
HQskinClass404.jpg
20 -6.843900 -9.101400 181.212799 -0.796002 -0.439401 -0.416301 0.791000 0.861100
20 -7.031300 -4.214300 173.279099 -0.376693 -0.562389 -0.736085 0.757200 0.839900
20 0.322800 -5.368200 181.983505 0.106502 -0.518509 -0.848414 0.804700 0.830100
HQskinClass404.jpg
20 -5.586500 -14.905800 183.807907 -0.425000 -0.904901 -0.023000 0.564900 0.627200
20 -4.490300 -11.258799 174.971405 -0.422389 -0.818179 -0.390090 0.554700 0.586100
20 -0.944100 -11.971600 181.303101 0.444584 -0.704275 -0.553481 0.535900 0.663100
HQskinClass404.jpg
20 -6.843900 -9.101400 181.212799 -0.796002 -0.439401 -0.416301 0.791000 0.861100
20 0.322800 -5.368200 181.983505 0.106502 -0.518509 -0.848414 0.804700 0.830100
20 -0.944100 -11.971600 181.303101 0.444584 -0.704275 -0.553481 0.818500 0.854700
HQskinClass404.jpg
20 -4.276500 -14.436800 186.641205 -0.128105 -0.879037 0.459219 0.563200 0.648500
20 -0.944100 -11.971600 181.303101 0.444584 -0.704275 -0.553481 0.535900 0.663100
20 6.077800 -7.120601 188.380600 0.665276 -0.490483 0.562880 0.582200 0.724600
HQskinClass404.jpg
20 -4.276500 -14.436800 186.641205 -0.128105 -0.879037 0.459219 0.563200 0.648500
20 -5.586500 -14.905800 183.807907 -0.425000 -0.904901 -0.023000 0.564900 0.627200
20 -0.944100 -11.971600 181.303101 0.444584 -0.704275 -0.553481 0.535900 0.663100
HQskinClass404.jpg
20 4.602000 4.464300 167.734406 0.298110 0.086203 -0.950631 0.763100 0.762300
20 0.231500 2.737300 171.810104 -0.172797 -0.617089 -0.767686 0.763700 0.793600
20 0.307100 7.590099 169.159103 0.013400 0.442888 -0.896477 0.745100 0.778400
HQskinClass404.jpg
20 0.307100 7.590099 169.159103 0.013400 0.442888 -0.896477 0.745100 0.778400
20 0.231500 2.737300 171.810104 -0.172797 -0.617089 -0.767686 0.763700 0.793600
20 -4.794000 5.452700 168.431702 -0.370486 0.336688 -0.865668 0.735500 0.798800
HQskinClass404.jpg
20 0.231500 2.737300 171.810104 -0.172797 -0.617089 -0.767686 0.763700 0.793600
20 -5.686900 3.188900 168.490997 -0.480077 -0.218189 -0.849659 0.734700 0.806000
20 -4.794000 5.452700 168.431702 -0.370486 0.336688 -0.865668 0.735500 0.798800
HQskinClass404.jpg
20 4.602000 4.464300 167.734406 0.298110 0.086203 -0.950631 0.763100 0.762300
20 5.737900 -2.038700 169.882401 0.280392 -0.580083 -0.764777 0.790000 0.771700
20 0.231500 2.737300 171.810104 -0.172797 -0.617089 -0.767686 0.763700 0.793600
HQskinClass404.jpg
20 5.960400 7.339400 189.978607 0.796195 0.324598 0.510597 0.917900 0.960200
20 7.752800 6.819900 182.282196 0.993935 0.094103 0.056902 0.915700 0.917300
20 6.758400 9.838800 186.491104 0.540900 0.507400 0.670800 0.938600 0.943800
HQskinClass404.jpg
20 5.960400 7.339400 189.978607 0.796195 0.324598 0.510597 0.917900 0.960200
20 6.758400 9.838800 186.491104 0.540900 0.507400 0.670800 0.938600 0.943800
20 1.341300 11.207100 179.708099 -0.498525 0.865643 -0.046202 0.979400 0.980900
HQskinClass404.jpg
20 5.960400 7.339400 189.978607 0.796195 0.324598 0.510597 0.917900 0.960200
20 1.341300 11.207100 179.708099 -0.498525 0.865643 -0.046202 0.979400 0.980900
20 0.354900 9.530300 184.605103 0.240595 0.963180 -0.119997 0.951800 0.989300
HQskinClass404.jpg
20 5.960400 7.339400 189.978607 0.796195 0.324598 0.510597 0.907000 0.792600
20 0.354900 9.530300 184.605103 0.240595 0.963180 -0.119997 0.949400 0.773500
20 0.418800 20.886200 192.263000 0.007300 0.971091 0.238598 0.970700 0.849300
HQskinClass404.jpg
20 6.786100 1.068200 190.119202 0.783477 -0.030299 0.620682 0.885200 0.965200
20 7.752800 6.819900 182.282196 0.993935 0.094103 0.056902 0.915700 0.917300
20 5.960400 7.339400 189.978607 0.796195 0.324598 0.510597 0.917900 0.960200
HQskinClass404.jpg
20 6.786100 1.068200 190.119202 0.783477 -0.030299 0.620682 0.885200 0.965200
20 8.958000 -2.189100 182.068207 0.994285 -0.104298 0.022800 0.862700 0.920600
20 7.752800 6.819900 182.282196 0.993935 0.094103 0.056902 0.915700 0.917300
HQskinClass404.jpg
20 8.958000 -2.189100 182.068207 0.994285 -0.104298 0.022800 0.862700 0.920600
20 8.183700 -3.831500 176.853302 0.738744 -0.593435 -0.319519 0.850300 0.892700
20 7.752800 6.819900 182.282196 0.993935 0.094103 0.056902 0.915700 0.917300
HQskinClass404.jpg
20 -7.602600 1.061700 190.965195 -0.731018 0.007500 0.682317 0.663500 0.672400
20 0.417700 9.529100 193.230606 -0.022001 0.115705 0.993040 0.695300 0.731100
20 -5.644800 7.105400 188.679794 -0.390496 0.501694 0.771891 0.700000 0.682100
HQskinClass404.jpg
20 0.416800 1.854400 193.627396 0.096097 -0.070498 0.992872 0.653400 0.719400
20 5.960400 7.339400 189.978607 0.796195 0.324598 0.510597 0.670000 0.763800
20 0.417700 9.529100 193.230606 -0.022001 0.115705 0.993040 0.695300 0.731100
HQskinClass404.jpg
20 -8.337900 10.648102 185.632904 -0.915419 0.343007 0.210604 0.721800 0.651800
20 -9.176800 -0.688600 181.964798 -0.997099 -0.037400 -0.066300 0.659900 0.620000
20 -7.602600 1.061700 190.965195 -0.731018 0.007500 0.682317 0.663500 0.672400
HQskinClass404.jpg
20 -7.602600 1.061700 190.965195 -0.731018 0.007500 0.682317 0.663500 0.672400
20 -6.359100 11.035400 186.905197 -0.163704 0.284407 0.944624 0.724400 0.669400
20 -8.337900 10.648102 185.632904 -0.915419 0.343007 0.210604 0.721800 0.651800
HQskinClass404.jpg
20 -8.337900 10.648102 185.632904 -0.915419 0.343007 0.210604 0.721800 0.651800
20 -4.055200 19.607601 186.274506 0.066397 0.967854 0.242589 0.775100 0.667800
20 -5.734500 9.327000 178.421204 -0.434500 0.808800 -0.396300 0.729500 0.605300
HQskinClass404.jpg
20 -8.337900 10.648102 185.632904 -0.915419 0.343007 0.210604 0.721800 0.651800
20 -5.734500 9.327000 178.421204 -0.434500 0.808800 -0.396300 0.729500 0.605300
20 -5.403500 6.082400 172.263000 -0.816729 0.507918 -0.273810 0.706700 0.568400
HQskinClass404.jpg
20 -6.359100 11.035400 186.905197 -0.163704 0.284407 0.944624 0.724400 0.669400
20 -4.055200 19.607601 186.274506 0.066397 0.967854 0.242589 0.775100 0.667800
20 -8.337900 10.648102 185.632904 -0.915419 0.343007 0.210604 0.721800 0.651800
HQskinClass404.jpg
20 7.546500 10.669800 179.970505 0.823636 0.483121 -0.297013 0.936300 0.901500
20 6.868400 8.841400 175.532806 0.771664 0.513076 -0.375882 0.921500 0.876600
20 0.354600 10.011101 172.582306 -0.052400 0.918600 -0.391700 0.942400 0.840700
HQskinClass404.jpg
20 0.354600 10.011101 172.582306 -0.052400 0.918600 -0.391700 0.942400 0.840700
20 0.354900 9.530300 184.605103 0.240595 0.963180 -0.119997 0.988900 0.890900
20 1.341300 11.207100 179.708099 -0.498525 0.865643 -0.046202 0.962000 0.875800
HQskinClass404.jpg
20 7.546500 10.669800 179.970505 0.823636 0.483121 -0.297013 0.936300 0.901500
20 0.354600 10.011101 172.582306 -0.052400 0.918600 -0.391700 0.942400 0.840700
20 1.341300 11.207100 179.708099 -0.498525 0.865643 -0.046202 0.962000 0.875800
HQskinClass404.jpg
20 6.036600 18.177099 185.893906 0.079404 0.906341 0.415019 0.985500 0.926100
20 7.546500 10.669800 179.970505 0.823636 0.483121 -0.297013 0.936300 0.901500
20 1.341300 11.207100 179.708099 -0.498525 0.865643 -0.046202 0.962000 0.875800
HQskinClass404.jpg
20 6.758400 9.838800 186.491104 0.540900 0.507400 0.670800 0.938600 0.943800
20 7.546500 10.669800 179.970505 0.823636 0.483121 -0.297013 0.936300 0.901500
20 6.036600 18.177099 185.893906 0.079404 0.906341 0.415019 0.985500 0.926100
HQskinClass404.jpg
20 6.758400 9.838800 186.491104 0.540900 0.507400 0.670800 0.938600 0.943800
20 6.036600 18.177099 185.893906 0.079404 0.906341 0.415019 0.985500 0.926100
20 1.341300 11.207100 179.708099 -0.498525 0.865643 -0.046202 0.979400 0.980900
HQskinClass404.jpg
18 5.430800 4.176600 163.751907 0.634116 0.764119 0.118403 0.705600 0.895000
18 6.719600 3.685100 162.188293 0.879382 0.414592 0.234095 0.713400 0.885900
18 -0.050000 6.715100 161.495300 -0.000000 0.986426 0.164204 0.672000 0.878800
HQskinClass404.jpg
18 -0.050000 6.715100 161.495300 -0.000000 0.986426 0.164204 0.672000 0.878800
18 -0.050000 6.417100 163.037292 0.000000 0.998759 0.049798 0.672300 0.887600
18 5.430800 4.176600 163.751907 0.634116 0.764119 0.118403 0.705600 0.895000
HQskinClass404.jpg
18 -0.050000 -6.732800 158.469894 0.000000 -0.943029 0.332710 0.795900 0.889600
18 -0.050000 -7.159901 157.087296 0.000000 -0.955469 0.295091 0.801500 0.883000
18 6.323600 -4.752901 159.547302 0.170701 -0.526904 0.832606 0.761100 0.875300
HQskinClass404.jpg
18 6.323600 -4.752901 159.547302 0.170701 -0.526904 0.832606 0.761100 0.875300
18 5.258400 -3.475700 160.442795 0.503898 -0.605198 0.616298 0.757200 0.885900
18 -0.050000 -6.732800 158.469894 0.000000 -0.943029 0.332710 0.795900 0.889600
HQskinClass404.jpg
18 5.430800 4.176600 163.751907 0.634116 0.764119 0.118403 0.705600 0.895000
20 4.127300 5.659600 170.840103 0.659407 0.745708 -0.095401 0.694900 0.926900
20 6.139000 0.984900 172.797806 0.956330 0.254408 -0.143905 0.722900 0.942300
HQskinClass404.jpg
20 6.139000 0.984900 172.797806 0.956330 0.254408 -0.143905 0.722900 0.942300
18 6.436700 1.714800 164.730698 0.996502 0.052400 0.065100 0.720400 0.902700
18 5.430800 4.176600 163.751907 0.634116 0.764119 0.118403 0.705600 0.895000
HQskinClass404.jpg
20 5.643700 -8.866499 177.901306 0.822772 -0.563481 -0.074398 0.533600 0.909800
20 5.245100 -7.635000 182.959198 0.826099 -0.535599 0.175200 0.485200 0.941300
20 3.351400 -9.612999 183.208099 0.488620 -0.848335 0.203908 0.504100 0.968100
HQskinClass404.jpg
20 3.351400 -9.612999 183.208099 0.488620 -0.848335 0.203908 0.504100 0.968100
20 3.687400 -10.683699 177.298203 0.496003 -0.822005 -0.279802 0.557100 0.927100
20 5.643700 -8.866499 177.901306 0.822772 -0.563481 -0.074398 0.533600 0.909800
HQskinClass404.jpg
20 -0.050000 -10.495600 182.416000 0.000000 -0.984621 0.174704 0.537300 0.994000
20 -0.050000 -11.319799 176.632095 0.000000 -0.989077 -0.147397 0.591600 0.952500
20 1.378400 -11.130899 176.749298 0.192807 -0.966537 -0.169207 0.579900 0.941900
HQskinClass404.jpg
20 0.637600 -10.751001 175.663101 0.513522 -0.830935 -0.214109 0.594100 0.935100
20 1.378400 -11.130899 176.749298 0.192807 -0.966537 -0.169207 0.579900 0.941900
20 -0.050000 -11.319799 176.632095 0.000000 -0.989077 -0.147397 0.591600 0.952500
HQskinClass404.jpg
20 -0.050000 -11.319799 176.632095 0.000000 -0.989077 -0.147397 0.591600 0.952500
20 -0.050000 -10.930399 175.660004 0.000000 -0.999991 0.004300 0.601400 0.943600
20 0.637600 -10.751001 175.663101 0.513522 -0.830935 -0.214109 0.594100 0.935100
HQskinClass404.jpg
20 0.637600 -10.751001 175.663101 0.513522 -0.830935 -0.214109 0.594100 0.935100
20 -0.050000 -10.930399 175.660004 0.000000 -0.999991 0.004300 0.601400 0.943600
20 0.494200 -11.654600 173.499100 0.637319 -0.679420 0.363611 0.620000 0.926900
HQskinClass404.jpg
20 -0.050000 -10.930399 175.660004 0.000000 -0.999991 0.004300 0.601400 0.943600
20 -0.050000 -11.917999 173.481903 0.000000 -0.867072 0.498184 0.623800 0.930700
20 0.494200 -11.654600 173.499100 0.637319 -0.679420 0.363611 0.620000 0.926900
HQskinClass404.jpg
20 3.484000 -9.494499 173.516602 0.364705 -0.929214 -0.059601 0.583900 0.888600
20 2.444600 -9.538700 169.891205 0.542498 -0.806197 -0.236099 0.616500 0.869600
20 3.757900 -8.220200 168.984406 0.732390 -0.569892 -0.372595 0.610600 0.844900
HQskinClass404.jpg
20 3.757900 -8.220200 168.984406 0.732390 -0.569892 -0.372595 0.610600 0.844900
20 5.158300 -8.048100 172.999695 0.779148 -0.573962 -0.251983 0.569500 0.866900
20 3.484000 -9.494499 173.516602 0.364705 -0.929214 -0.059601 0.583900 0.888600
HQskinClass404.jpg
20 -0.050000 -12.806200 172.138397 0.000000 -0.994313 0.106501 0.638500 0.922200
20 -0.050000 -12.590200 171.455704 0.000000 -0.718218 -0.695818 0.642800 0.914200
20 0.560200 -12.283400 171.550903 0.508785 -0.511885 -0.692179 0.636000 0.911000
HQskinClass404.jpg
20 0.560200 -12.283400 171.550903 0.508785 -0.511885 -0.692179 0.636000 0.911000
20 0.777500 -12.472799 172.094406 0.693879 -0.719879 0.017499 0.632700 0.915300
20 -0.050000 -12.806200 172.138397 0.000000 -0.994313 0.106501 0.638500 0.922200
HQskinClass404.jpg
20 1.817500 -9.731800 173.094193 0.590500 -0.796400 0.130600 0.599600 0.898400
20 1.389900 -9.428400 175.554199 0.524423 -0.802835 -0.283613 0.586000 0.921600
20 1.562400 -10.238800 173.132797 0.838626 -0.523617 0.150105 0.606500 0.902700
HQskinClass404.jpg
20 1.685300 -10.177999 171.761398 0.740834 -0.667431 -0.075503 0.616800 0.893400
20 1.357300 -10.250999 171.294205 0.564791 -0.758587 -0.324895 0.623900 0.890800
20 2.444600 -9.538700 169.891205 0.542498 -0.806197 -0.236099 0.616500 0.869600
HQskinClass404.jpg
20 3.484000 -9.494499 173.516602 0.364705 -0.929214 -0.059601 0.583900 0.888600
20 1.389900 -9.428400 175.554199 0.524423 -0.802835 -0.283613 0.586000 0.921600
20 1.817500 -9.731800 173.094193 0.590500 -0.796400 0.130600 0.599600 0.898400
HQskinClass404.jpg
20 -0.050000 -10.746500 171.062698 0.000000 -0.773993 -0.633194 0.641800 0.895200
20 -0.050000 -10.787201 169.656601 -0.000000 -0.924988 -0.379995 0.649000 0.884000
20 1.075600 -10.462700 169.958603 0.419086 -0.882971 -0.211493 0.635900 0.879600
HQskinClass404.jpg
20 1.357300 -10.250999 171.294205 0.564791 -0.758587 -0.324895 0.623900 0.890800
20 -0.050000 -10.746500 171.062698 0.000000 -0.773993 -0.633194 0.641800 0.895200
20 1.075600 -10.462700 169.958603 0.419086 -0.882971 -0.211493 0.635900 0.879600
HQskinClass404.jpg
20 1.075600 -10.462700 169.958603 0.419086 -0.882971 -0.211493 0.635900 0.879600
20 2.444600 -9.538700 169.891205 0.542498 -0.806197 -0.236099 0.616500 0.869600
20 1.357300 -10.250999 171.294205 0.564791 -0.758587 -0.324895 0.623900 0.890800
HQskinClass404.jpg
20 1.584500 -10.769100 176.184692 0.373174 -0.619357 -0.690752 0.581600 0.934900
20 0.637600 -10.751001 175.663101 0.513522 -0.830935 -0.214109 0.594100 0.935100
20 1.389900 -9.428400 175.554199 0.524423 -0.802835 -0.283613 0.586000 0.921600
HQskinClass404.jpg
20 1.173900 -9.937500 169.257004 0.423596 -0.853993 -0.302097 0.638500 0.869800
20 1.075600 -10.462700 169.958603 0.419086 -0.882971 -0.211493 0.635900 0.879600
20 -0.050000 -10.787201 169.656601 -0.000000 -0.924988 -0.379995 0.649000 0.884000
HQskinClass404.jpg
20 -0.050000 -10.787201 169.656601 -0.000000 -0.924988 -0.379995 0.649000 0.884000
20 -0.050000 -10.254599 169.170303 -0.000000 -0.919796 -0.392398 0.651600 0.876900
20 1.173900 -9.937500 169.257004 0.423596 -0.853993 -0.302097 0.638500 0.869800
HQskinClass404.jpg
20 2.764800 -8.757601 168.841400 0.491478 -0.767066 -0.412382 0.622400 0.848600
20 2.444600 -9.538700 169.891205 0.542498 -0.806197 -0.236099 0.616500 0.869600
20 1.075600 -10.462700 169.958603 0.419086 -0.882971 -0.211493 0.635900 0.879600
HQskinClass404.jpg
20 1.075600 -10.462700 169.958603 0.419086 -0.882971 -0.211493 0.635900 0.879600
20 1.173900 -9.937500 169.257004 0.423596 -0.853993 -0.302097 0.638500 0.869800
20 2.764800 -8.757601 168.841400 0.491478 -0.767066 -0.412382 0.622400 0.848600
HQskinClass404.jpg
20 2.764800 -8.757601 168.841400 0.491478 -0.767066 -0.412382 0.622400 0.848600
20 3.757900 -8.220200 168.984406 0.732390 -0.569892 -0.372595 0.610600 0.844900
20 2.444600 -9.538700 169.891205 0.542498 -0.806197 -0.236099 0.616500 0.869600
HQskinClass404.jpg
20 1.173900 -9.937500 169.257004 0.423596 -0.853993 -0.302097 0.638500 0.869800
20 1.137500 -9.987900 168.275299 0.375223 -0.784247 -0.494130 0.646300 0.859800
20 2.764800 -8.757601 168.841400 0.491478 -0.767066 -0.412382 0.622400 0.848600
HQskinClass404.jpg
20 1.137500 -9.987900 168.275299 0.375223 -0.784247 -0.494130 0.646300 0.859800
20 1.173900 -9.937500 169.257004 0.423596 -0.853993 -0.302097 0.638500 0.869800
20 -0.050000 -10.254599 169.170303 -0.000000 -0.919796 -0.392398 0.651600 0.876900
HQskinClass404.jpg
20 -0.050000 -10.254599 169.170303 -0.000000 -0.919796 -0.392398 0.651600 0.876900
20 -0.050000 -10.294800 168.295105 0.000000 -0.872791 -0.488095 0.658300 0.867100
20 1.137500 -9.987900 168.275299 0.375223 -0.784247 -0.494130 0.646300 0.859800
HQskinClass404.jpg
20 1.137500 -9.987900 168.275299 0.375223 -0.784247 -0.494130 0.646300 0.859800
20 -0.050000 -10.294800 168.295105 0.000000 -0.872791 -0.488095 0.658300 0.867100
20 -0.050000 -9.243000 167.838303 0.000000 -0.799183 -0.601087 0.662000 0.857000
HQskinClass404.jpg
20 -0.050000 -9.243000 167.838303 0.000000 -0.799183 -0.601087 0.662000 0.857000
20 0.990000 -8.964300 167.775604 0.290901 -0.804202 -0.518301 0.650200 0.850900
20 1.137500 -9.987900 168.275299 0.375223 -0.784247 -0.494130 0.646300 0.859800
HQskinClass404.jpg
20 2.448200 -7.911500 166.606003 0.739595 -0.545896 -0.393697 0.636300 0.827400
20 3.757900 -8.220200 168.984406 0.732390 -0.569892 -0.372595 0.610600 0.844900
20 2.764800 -8.757601 168.841400 0.491478 -0.767066 -0.412382 0.622400 0.848600
HQskinClass404.jpg
20 2.764800 -8.757601 168.841400 0.491478 -0.767066 -0.412382 0.622400 0.848600
20 1.975100 -8.550100 167.898300 0.441611 -0.792719 -0.420210 0.638600 0.844000
20 2.448200 -7.911500 166.606003 0.739595 -0.545896 -0.393697 0.636300 0.827400
HQskinClass404.jpg
20 7.592900 -1.922400 177.646896 0.910507 -0.413203 0.015500 0.479000 0.851400
20 6.357300 -6.272700 174.290298 0.939778 -0.287393 -0.184996 0.544100 0.860500
20 5.635200 -4.362100 169.986893 0.904321 -0.290007 -0.313207 0.566700 0.816100
HQskinClass404.jpg
20 5.635200 -4.362100 169.986893 0.904321 -0.290007 -0.313207 0.566700 0.816100
20 6.433200 -2.690400 171.422394 0.926760 -0.214314 -0.308520 0.540000 0.809700
20 7.592900 -1.922400 177.646896 0.910507 -0.413203 0.015500 0.479000 0.851400
HQskinClass404.jpg
20 5.505100 -3.334700 168.767700 0.878595 -0.149399 -0.453597 0.572100 0.798200
20 6.433200 -2.690400 171.422394 0.926760 -0.214314 -0.308520 0.540000 0.809700
20 5.635200 -4.362100 169.986893 0.904321 -0.290007 -0.313207 0.566700 0.816100
HQskinClass404.jpg
20 5.505100 -3.334700 168.767700 0.878595 -0.149399 -0.453597 0.572100 0.798200
20 5.321900 -2.014700 168.387100 0.914780 -0.311493 -0.257194 0.569500 0.782200
20 6.261700 -1.540300 171.272797 0.908542 0.096404 -0.406519 0.537800 0.795000
HQskinClass404.jpg
20 6.261700 -1.540300 171.272797 0.908542 0.096404 -0.406519 0.537800 0.795000
20 6.433200 -2.690400 171.422394 0.926760 -0.214314 -0.308520 0.540000 0.809700
20 5.505100 -3.334700 168.767700 0.878595 -0.149399 -0.453597 0.572100 0.798200
HQskinClass404.jpg
20 1.137500 -9.987900 168.275299 0.375223 -0.784247 -0.494130 0.646300 0.859800
20 0.990000 -8.964300 167.775604 0.290901 -0.804202 -0.518301 0.650200 0.850900
20 1.975100 -8.550100 167.898300 0.441611 -0.792719 -0.420210 0.638600 0.844000
HQskinClass404.jpg
20 1.975100 -8.550100 167.898300 0.441611 -0.792719 -0.420210 0.638600 0.844000
20 2.764800 -8.757601 168.841400 0.491478 -0.767066 -0.412382 0.622400 0.848600
20 1.137500 -9.987900 168.275299 0.375223 -0.784247 -0.494130 0.646300 0.859800
HQskinClass404.jpg
20 2.167700 -6.998500 165.363403 0.617202 -0.085900 -0.782102 0.639500 0.810600
20 5.505100 -3.334700 168.767700 0.878595 -0.149399 -0.453597 0.572100 0.798200
20 5.635200 -4.362100 169.986893 0.904321 -0.290007 -0.313207 0.566700 0.816100
HQskinClass404.jpg
20 5.635200 -4.362100 169.986893 0.904321 -0.290007 -0.313207 0.566700 0.816100
20 2.448200 -7.911500 166.606003 0.739595 -0.545896 -0.393697 0.636300 0.827400
20 2.167700 -6.998500 165.363403 0.617202 -0.085900 -0.782102 0.639500 0.810600
HQskinClass404.jpg
20 2.167700 -6.998500 165.363403 0.617202 -0.085900 -0.782102 0.639500 0.810600
20 2.448200 -7.911500 166.606003 0.739595 -0.545896 -0.393697 0.636300 0.827400
20 1.401000 -8.811600 165.967697 0.519991 -0.783286 -0.340694 0.653300 0.829400
HQskinClass404.jpg
20 1.401000 -8.811600 165.967697 0.519991 -0.783286 -0.340694 0.653300 0.829400
20 1.275400 -7.807800 164.891907 0.442905 -0.233202 -0.865709 0.654700 0.815300
20 2.167700 -6.998500 165.363403 0.617202 -0.085900 -0.782102 0.639500 0.810600
HQskinClass404.jpg
20 2.167700 -6.998500 165.363403 0.617202 -0.085900 -0.782102 0.639500 0.810600
20 3.641500 -3.619200 167.037003 0.698328 -0.424217 -0.576523 0.601900 0.784400
20 5.321900 -2.014700 168.387100 0.914780 -0.311493 -0.257194 0.569500 0.782200
HQskinClass404.jpg
20 5.321900 -2.014700 168.387100 0.914780 -0.311493 -0.257194 0.569500 0.782200
20 5.505100 -3.334700 168.767700 0.878595 -0.149399 -0.453597 0.572100 0.798200
20 2.167700 -6.998500 165.363403 0.617202 -0.085900 -0.782102 0.639500 0.810600
HQskinClass404.jpg
20 5.582600 -8.021400 176.642197 0.842151 -0.509431 -0.176811 0.539600 0.894400
20 6.210200 -7.022300 175.458496 0.910912 -0.410705 -0.039501 0.540100 0.875700
20 6.512800 -6.045400 177.164902 0.948939 -0.315413 0.005400 0.518200 0.880100
HQskinClass404.jpg
20 5.643700 -8.866499 177.901306 0.822772 -0.563481 -0.074398 0.533600 0.909800
20 3.687400 -10.683699 177.298203 0.496003 -0.822005 -0.279802 0.557100 0.927100
20 3.569800 -9.619999 176.520706 0.471990 -0.735685 -0.485790 0.562500 0.915200
HQskinClass404.jpg
20 3.569800 -9.619999 176.520706 0.471990 -0.735685 -0.485790 0.562500 0.915200
20 4.799300 -8.654600 175.913101 0.601202 -0.792102 -0.105500 0.551700 0.899300
20 5.643700 -8.866499 177.901306 0.822772 -0.563481 -0.074398 0.533600 0.909800
HQskinClass404.jpg
20 5.643700 -8.866499 177.901306 0.822772 -0.563481 -0.074398 0.533600 0.909800
20 5.582600 -8.021400 176.642197 0.842151 -0.509431 -0.176811 0.539600 0.894400
20 6.512800 -6.045400 177.164902 0.948939 -0.315413 0.005400 0.518200 0.880100
HQskinClass404.jpg
20 -0.050000 -5.065200 165.247101 0.000000 -0.652223 -0.758027 0.653000 0.775500
20 1.275400 -7.807800 164.891907 0.442905 -0.233202 -0.865709 0.654700 0.815300
20 -0.050000 -8.279499 164.605698 0.000000 -0.371098 -0.928594 0.673200 0.814800
HQskinClass404.jpg
20 5.582600 -8.021400 176.642197 0.842151 -0.509431 -0.176811 0.539600 0.894400
20 4.799300 -8.654600 175.913101 0.601202 -0.792102 -0.105500 0.551700 0.899300
20 5.251800 -8.396900 174.222000 0.722793 -0.679794 -0.124299 0.564600 0.881200
HQskinClass404.jpg
20 5.251800 -8.396900 174.222000 0.722793 -0.679794 -0.124299 0.564600 0.881200
20 6.210200 -7.022300 175.458496 0.910912 -0.410705 -0.039501 0.540100 0.875700
20 5.582600 -8.021400 176.642197 0.842151 -0.509431 -0.176811 0.539600 0.894400
HQskinClass404.jpg
20 3.757900 -8.220200 168.984406 0.732390 -0.569892 -0.372595 0.610600 0.844900
20 5.635200 -4.362100 169.986893 0.904321 -0.290007 -0.313207 0.566700 0.816100
20 5.158300 -8.048100 172.999695 0.779148 -0.573962 -0.251983 0.569500 0.866900
HQskinClass404.jpg
20 6.357300 -6.272700 174.290298 0.939778 -0.287393 -0.184996 0.544100 0.860500
20 5.158300 -8.048100 172.999695 0.779148 -0.573962 -0.251983 0.569500 0.866900
20 5.635200 -4.362100 169.986893 0.904321 -0.290007 -0.313207 0.566700 0.816100
HQskinClass404.jpg
20 1.401000 -8.811600 165.967697 0.519991 -0.783286 -0.340694 0.653300 0.829400
20 2.448200 -7.911500 166.606003 0.739595 -0.545896 -0.393697 0.636300 0.827400
20 1.975100 -8.550100 167.898300 0.441611 -0.792719 -0.420210 0.638600 0.844000
HQskinClass404.jpg
20 1.975100 -8.550100 167.898300 0.441611 -0.792719 -0.420210 0.638600 0.844000
20 0.990000 -8.964300 167.775604 0.290901 -0.804202 -0.518301 0.650200 0.850900
20 1.401000 -8.811600 165.967697 0.519991 -0.783286 -0.340694 0.653300 0.829400
HQskinClass404.jpg
20 -0.050000 -9.243000 167.838303 0.000000 -0.799183 -0.601087 0.662000 0.857000
20 -0.050000 -9.298599 165.755707 0.000000 -0.938121 -0.346308 0.672400 0.835300
20 1.401000 -8.811600 165.967697 0.519991 -0.783286 -0.340694 0.653300 0.829400
HQskinClass404.jpg
20 1.401000 -8.811600 165.967697 0.519991 -0.783286 -0.340694 0.653300 0.829400
20 0.990000 -8.964300 167.775604 0.290901 -0.804202 -0.518301 0.650200 0.850900
20 -0.050000 -9.243000 167.838303 0.000000 -0.799183 -0.601087 0.662000 0.857000
HQskinClass404.jpg
20 1.389900 -9.428400 175.554199 0.524423 -0.802835 -0.283613 0.586000 0.921600
20 0.637600 -10.751001 175.663101 0.513522 -0.830935 -0.214109 0.594100 0.935100
20 0.494200 -11.654600 173.499100 0.637319 -0.679420 0.363611 0.620000 0.926900
HQskinClass404.jpg
20 1.562400 -10.238800 173.132797 0.838626 -0.523617 0.150105 0.606500 0.902700
20 1.389900 -9.428400 175.554199 0.524423 -0.802835 -0.283613 0.586000 0.921600
20 0.494200 -11.654600 173.499100 0.637319 -0.679420 0.363611 0.620000 0.926900
HQskinClass404.jpg
20 1.685300 -10.177999 171.761398 0.740834 -0.667431 -0.075503 0.616800 0.893400
20 0.777500 -12.472799 172.094406 0.693879 -0.719879 0.017499 0.632700 0.915300
20 0.560200 -12.283400 171.550903 0.508785 -0.511885 -0.692179 0.636000 0.911000
HQskinClass404.jpg
20 0.560200 -12.283400 171.550903 0.508785 -0.511885 -0.692179 0.636000 0.911000
20 1.357300 -10.250999 171.294205 0.564791 -0.758587 -0.324895 0.623900 0.890800
20 1.685300 -10.177999 171.761398 0.740834 -0.667431 -0.075503 0.616800 0.893400
HQskinClass404.jpg
20 1.401000 -8.811600 165.967697 0.519991 -0.783286 -0.340694 0.653300 0.829400
20 -0.050000 -9.298599 165.755707 0.000000 -0.938121 -0.346308 0.672400 0.835300
20 -0.050000 -8.279499 164.605698 0.000000 -0.371098 -0.928594 0.673200 0.814800
HQskinClass404.jpg
20 -0.050000 -8.279499 164.605698 0.000000 -0.371098 -0.928594 0.673200 0.814800
20 1.275400 -7.807800 164.891907 0.442905 -0.233202 -0.865709 0.654700 0.815300
20 1.401000 -8.811600 165.967697 0.519991 -0.783286 -0.340694 0.653300 0.829400
HQskinClass404.jpg
20 -0.050000 -12.590200 171.455704 0.000000 -0.718218 -0.695818 0.642800 0.914200
20 -0.050000 -10.746500 171.062698 0.000000 -0.773993 -0.633194 0.641800 0.895200
20 0.560200 -12.283400 171.550903 0.508785 -0.511885 -0.692179 0.636000 0.911000
HQskinClass404.jpg
20 -0.050000 -10.746500 171.062698 0.000000 -0.773993 -0.633194 0.641800 0.895200
20 1.357300 -10.250999 171.294205 0.564791 -0.758587 -0.324895 0.623900 0.890800
20 0.560200 -12.283400 171.550903 0.508785 -0.511885 -0.692179 0.636000 0.911000
HQskinClass404.jpg
20 4.799300 -8.654600 175.913101 0.601202 -0.792102 -0.105500 0.551700 0.899300
20 5.582600 -8.021400 176.642197 0.842151 -0.509431 -0.176811 0.539600 0.894400
20 5.643700 -8.866499 177.901306 0.822772 -0.563481 -0.074398 0.533600 0.909800
HQskinClass404.jpg
20 3.596900 -9.496300 175.459702 0.318011 -0.945334 -0.072203 0.569200 0.905000
20 1.389900 -9.428400 175.554199 0.524423 -0.802835 -0.283613 0.586000 0.921600
20 3.484000 -9.494499 173.516602 0.364705 -0.929214 -0.059601 0.583900 0.888600
HQskinClass404.jpg
20 -0.050000 -10.495600 182.416000 0.000000 -0.984621 0.174704 0.537300 0.994000
20 1.378400 -11.130899 176.749298 0.192807 -0.966537 -0.169207 0.579900 0.941900
20 3.687400 -10.683699 177.298203 0.496003 -0.822005 -0.279802 0.557100 0.927100
HQskinClass404.jpg
20 3.687400 -10.683699 177.298203 0.496003 -0.822005 -0.279802 0.557100 0.927100
20 3.351400 -9.612999 183.208099 0.488620 -0.848335 0.203908 0.504100 0.968100
20 -0.050000 -10.495600 182.416000 0.000000 -0.984621 0.174704 0.537300 0.994000
HQskinClass404.jpg
20 0.637600 -10.751001 175.663101 0.513522 -0.830935 -0.214109 0.594100 0.935100
20 1.584500 -10.769100 176.184692 0.373174 -0.619357 -0.690752 0.581600 0.934900
20 1.378400 -11.130899 176.749298 0.192807 -0.966537 -0.169207 0.579900 0.941900
HQskinClass404.jpg
20 5.245100 -7.635000 182.959198 0.826099 -0.535599 0.175200 0.485200 0.941300
20 5.643700 -8.866499 177.901306 0.822772 -0.563481 -0.074398 0.533600 0.909800
20 6.512800 -6.045400 177.164902 0.948939 -0.315413 0.005400 0.518200 0.880100
HQskinClass404.jpg
20 6.512800 -6.045400 177.164902 0.948939 -0.315413 0.005400 0.518200 0.880100
20 7.491200 -3.366600 179.582504 0.946565 -0.321388 -0.026899 0.476700 0.874700
20 5.245100 -7.635000 182.959198 0.826099 -0.535599 0.175200 0.485200 0.941300
HQskinClass404.jpg
20 3.596900 -9.496300 175.459702 0.318011 -0.945334 -0.072203 0.569200 0.905000
20 3.484000 -9.494499 173.516602 0.364705 -0.929214 -0.059601 0.583900 0.888600
20 5.251800 -8.396900 174.222000 0.722793 -0.679794 -0.124299 0.564600 0.881200
HQskinClass404.jpg
20 5.251800 -8.396900 174.222000 0.722793 -0.679794 -0.124299 0.564600 0.881200
20 4.799300 -8.654600 175.913101 0.601202 -0.792102 -0.105500 0.551700 0.899300
20 3.596900 -9.496300 175.459702 0.318011 -0.945334 -0.072203 0.569200 0.905000
HQskinClass404.jpg
20 1.389900 -9.428400 175.554199 0.524423 -0.802835 -0.283613 0.586000 0.921600
20 2.153500 -9.785900 176.284897 0.246187 -0.532471 -0.809856 0.575800 0.923500
20 1.584500 -10.769100 176.184692 0.373174 -0.619357 -0.690752 0.581600 0.934900
HQskinClass404.jpg
20 3.569800 -9.619999 176.520706 0.471990 -0.735685 -0.485790 0.562500 0.915200
20 3.687400 -10.683699 177.298203 0.496003 -0.822005 -0.279802 0.557100 0.927100
20 1.584500 -10.769100 176.184692 0.373174 -0.619357 -0.690752 0.581600 0.934900
HQskinClass404.jpg
20 1.584500 -10.769100 176.184692 0.373174 -0.619357 -0.690752 0.581600 0.934900
20 2.153500 -9.785900 176.284897 0.246187 -0.532471 -0.809856 0.575800 0.923500
20 3.569800 -9.619999 176.520706 0.471990 -0.735685 -0.485790 0.562500 0.915200
HQskinClass404.jpg
20 1.584500 -10.769100 176.184692 0.373174 -0.619357 -0.690752 0.581600 0.934900
20 3.687400 -10.683699 177.298203 0.496003 -0.822005 -0.279802 0.557100 0.927100
20 1.378400 -11.130899 176.749298 0.192807 -0.966537 -0.169207 0.579900 0.941900
HQskinClass404.jpg
20 7.401200 0.715400 177.017899 0.575018 0.780625 -0.244908 0.723000 0.965400
20 6.261700 -1.540300 171.272797 0.908542 0.096404 -0.406519 0.738400 0.938300
20 6.139000 0.984900 172.797806 0.956330 0.254408 -0.143905 0.722900 0.942300
HQskinClass404.jpg
20 7.879000 0.544500 178.149902 0.467894 0.686092 0.557093 0.692800 0.843900
20 7.592900 -1.922400 177.646896 0.910507 -0.413203 0.015500 0.680100 0.850600
20 9.317000 0.332000 177.962402 0.773553 0.146091 0.616663 0.697900 0.850500
HQskinClass404.jpg
20 6.261700 -1.540300 171.272797 0.908542 0.096404 -0.406519 0.719600 0.813900
20 7.401200 0.715400 177.017899 0.575018 0.780625 -0.244908 0.698000 0.837800
20 9.543100 0.905800 176.197906 0.811881 0.547987 -0.201395 0.708700 0.846000
HQskinClass404.jpg
20 9.543100 0.905800 176.197906 0.811881 0.547987 -0.201395 0.708700 0.846000
20 8.355700 -0.249300 172.944794 0.667712 0.521310 -0.531410 0.720800 0.828100
20 6.261700 -1.540300 171.272797 0.908542 0.096404 -0.406519 0.719600 0.813900
HQskinClass404.jpg
20 9.543100 0.905800 176.197906 0.811881 0.547987 -0.201395 0.708700 0.846000
20 7.401200 0.715400 177.017899 0.575018 0.780625 -0.244908 0.698000 0.837800
20 7.879000 0.544500 178.149902 0.467894 0.686092 0.557093 0.692800 0.843900
HQskinClass404.jpg
20 7.879000 0.544500 178.149902 0.467894 0.686092 0.557093 0.692800 0.843900
20 9.317000 0.332000 177.962402 0.773553 0.146091 0.616663 0.697900 0.850500
20 9.543100 0.905800 176.197906 0.811881 0.547987 -0.201395 0.708700 0.846000
HQskinClass404.jpg
20 6.261700 -1.540300 171.272797 0.908542 0.096404 -0.406519 0.537800 0.795000
20 8.355700 -0.249300 172.944794 0.667712 0.521310 -0.531410 0.511300 0.793500
20 6.433200 -2.690400 171.422394 0.926760 -0.214314 -0.308520 0.540000 0.809700
HQskinClass404.jpg
20 7.592900 -1.922400 177.646896 0.910507 -0.413203 0.015500 0.479000 0.851400
20 8.355700 -0.249300 172.944794 0.667712 0.521310 -0.531410 0.511300 0.793500
20 9.543100 0.905800 176.197906 0.811881 0.547987 -0.201395 0.470500 0.803000
HQskinClass404.jpg
20 9.543100 0.905800 176.197906 0.811881 0.547987 -0.201395 0.470500 0.803000
20 9.317000 0.332000 177.962402 0.773553 0.146091 0.616663 0.459300 0.822800
20 7.592900 -1.922400 177.646896 0.910507 -0.413203 0.015500 0.479000 0.851400
HQskinClass404.jpg
20 8.355700 -0.249300 172.944794 0.667712 0.521310 -0.531410 0.511300 0.793500
20 7.592900 -1.922400 177.646896 0.910507 -0.413203 0.015500 0.479000 0.851400
20 6.433200 -2.690400 171.422394 0.926760 -0.214314 -0.308520 0.540000 0.809700
HQskinClass404.jpg
20 -0.050000 -5.065200 165.247101 0.000000 -0.652223 -0.758027 0.653000 0.775500
20 3.641500 -3.619200 167.037003 0.698328 -0.424217 -0.576523 0.601900 0.784400
20 2.167700 -6.998500 165.363403 0.617202 -0.085900 -0.782102 0.639500 0.810600
HQskinClass404.jpg
20 2.167700 -6.998500 165.363403 0.617202 -0.085900 -0.782102 0.639500 0.810600
20 1.275400 -7.807800 164.891907 0.442905 -0.233202 -0.865709 0.654700 0.815300
20 -0.050000 -5.065200 165.247101 0.000000 -0.652223 -0.758027 0.653000 0.775500
HQskinClass404.jpg
20 6.357300 -6.272700 174.290298 0.939778 -0.287393 -0.184996 0.544100 0.860500
20 7.592900 -1.922400 177.646896 0.910507 -0.413203 0.015500 0.479000 0.851400
20 6.512800 -6.045400 177.164902 0.948939 -0.315413 0.005400 0.518200 0.880100
HQskinClass404.jpg
20 6.512800 -6.045400 177.164902 0.948939 -0.315413 0.005400 0.518200 0.880100
20 6.210200 -7.022300 175.458496 0.910912 -0.410705 -0.039501 0.540100 0.875700
20 6.357300 -6.272700 174.290298 0.939778 -0.287393 -0.184996 0.544100 0.860500
HQskinClass404.jpg
20 6.512800 -6.045400 177.164902 0.948939 -0.315413 0.005400 0.518200 0.880100
20 7.592900 -1.922400 177.646896 0.910507 -0.413203 0.015500 0.479000 0.851400
20 7.491200 -3.366600 179.582504 0.946565 -0.321388 -0.026899 0.476700 0.874700
HQskinClass404.jpg
20 -0.050000 7.908400 176.832199 0.000000 0.979777 -0.200095 0.661000 0.955400
20 3.337800 7.375800 177.006393 0.419896 0.886792 -0.193098 0.679000 0.960700
20 4.127300 5.659600 170.840103 0.659407 0.745708 -0.095401 0.694900 0.926900
HQskinClass404.jpg
20 4.127300 5.659600 170.840103 0.659407 0.745708 -0.095401 0.694900 0.926900
20 -0.050000 7.110700 170.103897 0.000000 0.994270 -0.106897 0.670100 0.918700
20 -0.050000 7.908400 176.832199 0.000000 0.979777 -0.200095 0.661000 0.955400
HQskinClass404.jpg
20 4.127300 5.659600 170.840103 0.659407 0.745708 -0.095401 0.694900 0.926900
20 3.337800 7.375800 177.006393 0.419896 0.886792 -0.193098 0.679000 0.960700
20 5.939100 5.002000 177.507004 0.848146 0.489869 -0.201687 0.697300 0.967000
HQskinClass404.jpg
20 5.939100 5.002000 177.507004 0.848146 0.489869 -0.201687 0.697300 0.967000
20 7.401200 0.715400 177.017899 0.575018 0.780625 -0.244908 0.723000 0.965400
20 6.139000 0.984900 172.797806 0.956330 0.254408 -0.143905 0.722900 0.942300
HQskinClass404.jpg
20 6.139000 0.984900 172.797806 0.956330 0.254408 -0.143905 0.722900 0.942300
20 4.127300 5.659600 170.840103 0.659407 0.745708 -0.095401 0.694900 0.926900
20 5.939100 5.002000 177.507004 0.848146 0.489869 -0.201687 0.697300 0.967000
HQskinClass404.jpg
20 7.401200 0.715400 177.017899 0.575018 0.780625 -0.244908 0.723000 0.965400
20 5.939100 5.002000 177.507004 0.848146 0.489869 -0.201687 0.697300 0.967000
20 7.879000 0.544500 178.149902 0.467894 0.686092 0.557093 0.724000 0.973500
HQskinClass404.jpg
20 2.153500 -9.785900 176.284897 0.246187 -0.532471 -0.809856 0.575800 0.923500
20 1.389900 -9.428400 175.554199 0.524423 -0.802835 -0.283613 0.586000 0.921600
20 3.596900 -9.496300 175.459702 0.318011 -0.945334 -0.072203 0.569200 0.905000
HQskinClass404.jpg
20 3.596900 -9.496300 175.459702 0.318011 -0.945334 -0.072203 0.569200 0.905000
20 3.569800 -9.619999 176.520706 0.471990 -0.735685 -0.485790 0.562500 0.915200
20 2.153500 -9.785900 176.284897 0.246187 -0.532471 -0.809856 0.575800 0.923500
HQskinClass404.jpg
20 3.596900 -9.496300 175.459702 0.318011 -0.945334 -0.072203 0.569200 0.905000
20 4.799300 -8.654600 175.913101 0.601202 -0.792102 -0.105500 0.551700 0.899300
20 3.569800 -9.619999 176.520706 0.471990 -0.735685 -0.485790 0.562500 0.915200
HQskinClass404.jpg
18 5.258400 -3.475700 160.442795 0.503898 -0.605198 0.616298 0.757200 0.885900
18 6.323600 -4.752901 159.547302 0.170701 -0.526904 0.832606 0.761100 0.875300
18 6.719600 3.685100 162.188293 0.879382 0.414592 0.234095 0.713400 0.885900
HQskinClass404.jpg
18 6.719600 3.685100 162.188293 0.879382 0.414592 0.234095 0.713400 0.885900
18 6.436700 1.714800 164.730698 0.996502 0.052400 0.065100 0.720400 0.902700
18 5.258400 -3.475700 160.442795 0.503898 -0.605198 0.616298 0.757200 0.885900
HQskinClass404.jpg
20 4.127300 5.659600 170.840103 0.659407 0.745708 -0.095401 0.694900 0.926900
18 5.430800 4.176600 163.751907 0.634116 0.764119 0.118403 0.705600 0.895000
18 -0.050000 6.417100 163.037292 0.000000 0.998759 0.049798 0.672300 0.887600
HQskinClass404.jpg
18 -0.050000 6.417100 163.037292 0.000000 0.998759 0.049798 0.672300 0.887600
20 -0.050000 7.110700 170.103897 0.000000 0.994270 -0.106897 0.670100 0.918700
20 4.127300 5.659600 170.840103 0.659407 0.745708 -0.095401 0.694900 0.926900
HQskinClass404.jpg
20 3.641500 -3.619200 167.037003 0.698328 -0.424217 -0.576523 0.758900 0.918400
20 -0.050000 -5.065200 165.247101 0.000000 -0.652223 -0.758027 0.783200 0.916800
18 5.258400 -3.475700 160.442795 0.503898 -0.605198 0.616298 0.757200 0.885900
HQskinClass404.jpg
18 5.258400 -3.475700 160.442795 0.503898 -0.605198 0.616298 0.757200 0.885900
20 5.321900 -2.014700 168.387100 0.914780 -0.311493 -0.257194 0.744900 0.922900
20 3.641500 -3.619200 167.037003 0.698328 -0.424217 -0.576523 0.758900 0.918400
HQskinClass404.jpg
18 5.258400 -3.475700 160.442795 0.503898 -0.605198 0.616298 0.757200 0.885900
20 -0.050000 -5.065200 165.247101 0.000000 -0.652223 -0.758027 0.783200 0.916800
18 -0.050000 -6.732800 158.469894 0.000000 -0.943029 0.332710 0.795900 0.889600
HQskinClass404.jpg
18 6.436700 1.714800 164.730698 0.996502 0.052400 0.065100 0.720400 0.902700
18 6.719600 3.685100 162.188293 0.879382 0.414592 0.234095 0.713400 0.885900
18 5.430800 4.176600 163.751907 0.634116 0.764119 0.118403 0.705600 0.895000
HQskinClass404.jpg
20 6.261700 -1.540300 171.272797 0.908542 0.096404 -0.406519 0.738400 0.938300
20 5.321900 -2.014700 168.387100 0.914780 -0.311493 -0.257194 0.744900 0.922900
18 6.436700 1.714800 164.730698 0.996502 0.052400 0.065100 0.720400 0.902700
HQskinClass404.jpg
18 6.436700 1.714800 164.730698 0.996502 0.052400 0.065100 0.720400 0.902700
20 6.139000 0.984900 172.797806 0.956330 0.254408 -0.143905 0.722900 0.942300
20 6.261700 -1.540300 171.272797 0.908542 0.096404 -0.406519 0.738400 0.938300
HQskinClass404.jpg
18 6.436700 1.714800 164.730698 0.996502 0.052400 0.065100 0.720400 0.902700
20 5.321900 -2.014700 168.387100 0.914780 -0.311493 -0.257194 0.744900 0.922900
18 5.258400 -3.475700 160.442795 0.503898 -0.605198 0.616298 0.757200 0.885900
HQskinClass404.jpg
20 5.158300 -8.048100 172.999695 0.779148 -0.573962 -0.251983 0.569500 0.866900
20 5.251800 -8.396900 174.222000 0.722793 -0.679794 -0.124299 0.564600 0.881200
20 3.484000 -9.494499 173.516602 0.364705 -0.929214 -0.059601 0.583900 0.888600
HQskinClass404.jpg
20 5.251800 -8.396900 174.222000 0.722793 -0.679794 -0.124299 0.564600 0.881200
20 5.158300 -8.048100 172.999695 0.779148 -0.573962 -0.251983 0.569500 0.866900
20 6.357300 -6.272700 174.290298 0.939778 -0.287393 -0.184996 0.544100 0.860500
HQskinClass404.jpg
20 6.357300 -6.272700 174.290298 0.939778 -0.287393 -0.184996 0.544100 0.860500
20 6.210200 -7.022300 175.458496 0.910912 -0.410705 -0.039501 0.540100 0.875700
20 5.251800 -8.396900 174.222000 0.722793 -0.679794 -0.124299 0.564600 0.881200
HQskinClass404.jpg
20 2.448200 -7.911500 166.606003 0.739595 -0.545896 -0.393697 0.636300 0.827400
20 5.635200 -4.362100 169.986893 0.904321 -0.290007 -0.313207 0.566700 0.816100
20 3.757900 -8.220200 168.984406 0.732390 -0.569892 -0.372595 0.610600 0.844900
HQskinClass404.jpg
20 0.777500 -12.472799 172.094406 0.693879 -0.719879 0.017499 0.632700 0.915300
20 0.494200 -11.654600 173.499100 0.637319 -0.679420 0.363611 0.620000 0.926900
20 -0.050000 -11.917999 173.481903 0.000000 -0.867072 0.498184 0.623800 0.930700
HQskinClass404.jpg
20 -0.050000 -11.917999 173.481903 0.000000 -0.867072 0.498184 0.623800 0.930700
20 -0.050000 -12.806200 172.138397 0.000000 -0.994313 0.106501 0.638500 0.922200
20 0.777500 -12.472799 172.094406 0.693879 -0.719879 0.017499 0.632700 0.915300
HQskinClass404.jpg
20 0.494200 -11.654600 173.499100 0.637319 -0.679420 0.363611 0.620000 0.926900
20 0.777500 -12.472799 172.094406 0.693879 -0.719879 0.017499 0.632700 0.915300
20 1.685300 -10.177999 171.761398 0.740834 -0.667431 -0.075503 0.616800 0.893400
HQskinClass404.jpg
20 1.685300 -10.177999 171.761398 0.740834 -0.667431 -0.075503 0.616800 0.893400
20 1.562400 -10.238800 173.132797 0.838626 -0.523617 0.150105 0.606500 0.902700
20 0.494200 -11.654600 173.499100 0.637319 -0.679420 0.363611 0.620000 0.926900
HQskinClass404.jpg
20 2.444600 -9.538700 169.891205 0.542498 -0.806197 -0.236099 0.616500 0.869600
20 1.817500 -9.731800 173.094193 0.590500 -0.796400 0.130600 0.599600 0.898400
20 1.562400 -10.238800 173.132797 0.838626 -0.523617 0.150105 0.606500 0.902700
HQskinClass404.jpg
20 1.562400 -10.238800 173.132797 0.838626 -0.523617 0.150105 0.606500 0.902700
20 1.685300 -10.177999 171.761398 0.740834 -0.667431 -0.075503 0.616800 0.893400
20 2.444600 -9.538700 169.891205 0.542498 -0.806197 -0.236099 0.616500 0.869600
HQskinClass404.jpg
20 1.817500 -9.731800 173.094193 0.590500 -0.796400 0.130600 0.599600 0.898400
20 2.444600 -9.538700 169.891205 0.542498 -0.806197 -0.236099 0.616500 0.869600
20 3.484000 -9.494499 173.516602 0.364705 -0.929214 -0.059601 0.583900 0.888600
HQskinClass404.jpg
18 -5.530800 4.176600 163.751907 -0.634116 0.764119 0.118403 0.705600 0.895000
18 -0.050000 6.715100 161.495300 -0.000000 0.986426 0.164204 0.672000 0.878800
18 -6.819600 3.685100 162.188293 -0.879382 0.414592 0.234095 0.713400 0.885900
HQskinClass404.jpg
18 -0.050000 6.715100 161.495300 -0.000000 0.986426 0.164204 0.672000 0.878800
18 -5.530800 4.176600 163.751907 -0.634116 0.764119 0.118403 0.705600 0.895000
18 -0.050000 6.417100 163.037292 0.000000 0.998759 0.049798 0.672300 0.887600
HQskinClass404.jpg
18 -0.050000 -6.732800 158.469894 0.000000 -0.943029 0.332710 0.795900 0.889600
18 -6.423600 -4.752900 159.547302 -0.170701 -0.526904 0.832606 0.761100 0.875300
18 -0.050000 -7.159901 157.087296 0.000000 -0.955469 0.295091 0.801500 0.883000
HQskinClass404.jpg
18 -6.423600 -4.752900 159.547302 -0.170701 -0.526904 0.832606 0.761100 0.875300
18 -0.050000 -6.732800 158.469894 0.000000 -0.943029 0.332710 0.795900 0.889600
18 -5.358400 -3.475700 160.442795 -0.503898 -0.605198 0.616298 0.757200 0.885900
HQskinClass404.jpg
18 -5.530800 4.176600 163.751907 -0.634116 0.764119 0.118403 0.705600 0.895000
20 -6.239000 0.984900 172.797806 -0.956330 0.254408 -0.143905 0.722900 0.942300
20 -4.227300 5.659600 170.840103 -0.659407 0.745708 -0.095401 0.694900 0.926900
HQskinClass404.jpg
20 -6.239000 0.984900 172.797806 -0.956330 0.254408 -0.143905 0.722900 0.942300
18 -5.530800 4.176600 163.751907 -0.634116 0.764119 0.118403 0.705600 0.895000
18 -6.536700 1.714800 164.730698 -0.996502 0.052400 0.065100 0.720400 0.902700
HQskinClass404.jpg
20 -5.743700 -8.866499 177.901306 -0.822772 -0.563481 -0.074397 0.533600 0.909800
20 -3.451400 -9.612999 183.208099 -0.488620 -0.848335 0.203908 0.504100 0.968100
20 -5.345100 -7.635000 182.959198 -0.826099 -0.535599 0.175200 0.485200 0.941300
HQskinClass404.jpg
20 -3.451400 -9.612999 183.208099 -0.488620 -0.848335 0.203908 0.504100 0.968100
20 -5.743700 -8.866499 177.901306 -0.822772 -0.563481 -0.074397 0.533600 0.909800
20 -3.787400 -10.683699 177.298203 -0.496003 -0.822005 -0.279802 0.557100 0.927100
HQskinClass404.jpg
20 -0.050000 -10.495600 182.416000 0.000000 -0.984621 0.174704 0.537300 0.994000
20 -1.478400 -11.130899 176.749298 -0.192807 -0.966537 -0.169207 0.579900 0.941900
20 -0.050000 -11.319799 176.632095 0.000000 -0.989077 -0.147397 0.591600 0.952500
HQskinClass404.jpg
20 -0.737600 -10.750999 175.663101 -0.513522 -0.830935 -0.214109 0.594100 0.935100
20 -0.050000 -11.319799 176.632095 0.000000 -0.989077 -0.147397 0.591600 0.952500
20 -1.478400 -11.130899 176.749298 -0.192807 -0.966537 -0.169207 0.579900 0.941900
HQskinClass404.jpg
20 -0.050000 -11.319799 176.632095 0.000000 -0.989077 -0.147397 0.591600 0.952500
20 -0.737600 -10.750999 175.663101 -0.513522 -0.830935 -0.214109 0.594100 0.935100
20 -0.050000 -10.930399 175.660004 0.000000 -0.999991 0.004300 0.601400 0.943600
HQskinClass404.jpg
20 -0.737600 -10.750999 175.663101 -0.513522 -0.830935 -0.214109 0.594100 0.935100
20 -0.594200 -11.654600 173.499100 -0.637319 -0.679420 0.363611 0.620000 0.926900
20 -0.050000 -10.930399 175.660004 0.000000 -0.999991 0.004300 0.601400 0.943600
HQskinClass404.jpg
20 -0.050000 -10.930399 175.660004 0.000000 -0.999991 0.004300 0.601400 0.943600
20 -0.594200 -11.654600 173.499100 -0.637319 -0.679420 0.363611 0.620000 0.926900
20 -0.050000 -11.917999 173.481903 0.000000 -0.867072 0.498184 0.623800 0.930700
HQskinClass404.jpg
20 -3.584000 -9.494499 173.516602 -0.364705 -0.929214 -0.059601 0.583900 0.888600
20 -3.857900 -8.220200 168.984406 -0.732432 -0.569825 -0.372616 0.610600 0.844900
20 -2.544600 -9.538700 169.891205 -0.542498 -0.806197 -0.236099 0.616500 0.869600
HQskinClass404.jpg
20 -3.857900 -8.220200 168.984406 -0.732432 -0.569825 -0.372616 0.610600 0.844900
20 -3.584000 -9.494499 173.516602 -0.364705 -0.929214 -0.059601 0.583900 0.888600
20 -5.258300 -8.048100 172.999695 -0.779148 -0.573962 -0.251983 0.569500 0.866900
HQskinClass404.jpg
20 -0.050000 -12.806200 172.138397 0.000000 -0.994313 0.106501 0.638500 0.922200
20 -0.660200 -12.283398 171.550903 -0.508785 -0.511885 -0.692179 0.636000 0.911000
20 -0.050000 -12.590200 171.455704 0.000000 -0.718218 -0.695818 0.642800 0.914200
HQskinClass404.jpg
20 -0.660200 -12.283398 171.550903 -0.508785 -0.511885 -0.692179 0.636000 0.911000
20 -0.050000 -12.806200 172.138397 0.000000 -0.994313 0.106501 0.638500 0.922200
20 -0.877500 -12.472801 172.094406 -0.693879 -0.719879 0.017499 0.632700 0.915300
HQskinClass404.jpg
20 -1.917500 -9.731800 173.094193 -0.590500 -0.796400 0.130600 0.599600 0.898400
20 -1.662400 -10.238800 173.132797 -0.838639 -0.523624 0.150007 0.606500 0.902700
20 -1.489900 -9.428400 175.554199 -0.524423 -0.802835 -0.283612 0.586000 0.921600
HQskinClass404.jpg
20 -1.785300 -10.177999 171.761398 -0.740834 -0.667431 -0.075503 0.616800 0.893400
20 -2.544600 -9.538700 169.891205 -0.542498 -0.806197 -0.236099 0.616500 0.869600
20 -1.457300 -10.250999 171.294205 -0.564791 -0.758587 -0.324895 0.623900 0.890800
HQskinClass404.jpg
20 -3.584000 -9.494499 173.516602 -0.364705 -0.929214 -0.059601 0.583900 0.888600
20 -1.917500 -9.731800 173.094193 -0.590500 -0.796400 0.130600 0.599600 0.898400
20 -1.489900 -9.428400 175.554199 -0.524423 -0.802835 -0.283612 0.586000 0.921600
HQskinClass404.jpg
20 -0.050000 -10.746500 171.062698 0.000000 -0.773993 -0.633194 0.641800 0.895200
20 -1.175600 -10.462698 169.958603 -0.419086 -0.882971 -0.211493 0.635900 0.879600
20 -0.050000 -10.787201 169.656601 -0.000000 -0.924988 -0.379995 0.649000 0.884000
HQskinClass404.jpg
20 -1.457300 -10.250999 171.294205 -0.564791 -0.758587 -0.324895 0.623900 0.890800
20 -1.175600 -10.462698 169.958603 -0.419086 -0.882971 -0.211493 0.635900 0.879600
20 -0.050000 -10.746500 171.062698 0.000000 -0.773993 -0.633194 0.641800 0.895200
HQskinClass404.jpg
20 -1.175600 -10.462698 169.958603 -0.419086 -0.882971 -0.211493 0.635900 0.879600
20 -1.457300 -10.250999 171.294205 -0.564791 -0.758587 -0.324895 0.623900 0.890800
20 -2.544600 -9.538700 169.891205 -0.542498 -0.806197 -0.236099 0.616500 0.869600
HQskinClass404.jpg
20 -1.684500 -10.769100 176.184692 -0.373174 -0.619357 -0.690752 0.581600 0.934900
20 -1.489900 -9.428400 175.554199 -0.524423 -0.802835 -0.283612 0.586000 0.921600
20 -0.737600 -10.750999 175.663101 -0.513522 -0.830935 -0.214109 0.594100 0.935100
HQskinClass404.jpg
20 -1.273900 -9.937498 169.257004 -0.423596 -0.853993 -0.302097 0.638500 0.869800
20 -0.050000 -10.787201 169.656601 -0.000000 -0.924988 -0.379995 0.649000 0.884000
20 -1.175600 -10.462698 169.958603 -0.419086 -0.882971 -0.211493 0.635900 0.879600
HQskinClass404.jpg
20 -0.050000 -10.787201 169.656601 -0.000000 -0.924988 -0.379995 0.649000 0.884000
20 -1.273900 -9.937498 169.257004 -0.423596 -0.853993 -0.302097 0.638500 0.869800
20 -0.050000 -10.254599 169.170303 -0.000000 -0.919796 -0.392398 0.651600 0.876900
HQskinClass404.jpg
20 -2.864800 -8.757599 168.841400 -0.491478 -0.767066 -0.412382 0.622400 0.848600
20 -1.175600 -10.462698 169.958603 -0.419086 -0.882971 -0.211493 0.635900 0.879600
20 -2.544600 -9.538700 169.891205 -0.542498 -0.806197 -0.236099 0.616500 0.869600
HQskinClass404.jpg
20 -1.175600 -10.462698 169.958603 -0.419086 -0.882971 -0.211493 0.635900 0.879600
20 -2.864800 -8.757599 168.841400 -0.491478 -0.767066 -0.412382 0.622400 0.848600
20 -1.273900 -9.937498 169.257004 -0.423596 -0.853993 -0.302097 0.638500 0.869800
HQskinClass404.jpg
20 -2.864800 -8.757599 168.841400 -0.491478 -0.767066 -0.412382 0.622400 0.848600
20 -2.544600 -9.538700 169.891205 -0.542498 -0.806197 -0.236099 0.616500 0.869600
20 -3.857900 -8.220200 168.984406 -0.732432 -0.569825 -0.372616 0.610600 0.844900
HQskinClass404.jpg
20 -1.273900 -9.937498 169.257004 -0.423596 -0.853993 -0.302097 0.638500 0.869800
20 -2.864800 -8.757599 168.841400 -0.491478 -0.767066 -0.412382 0.622400 0.848600
20 -1.237500 -9.987900 168.275299 -0.375204 -0.784209 -0.494205 0.646300 0.859800
HQskinClass404.jpg
20 -1.237500 -9.987900 168.275299 -0.375204 -0.784209 -0.494205 0.646300 0.859800
20 -0.050000 -10.254599 169.170303 -0.000000 -0.919796 -0.392398 0.651600 0.876900
20 -1.273900 -9.937498 169.257004 -0.423596 -0.853993 -0.302097 0.638500 0.869800
HQskinClass404.jpg
20 -0.050000 -10.254599 169.170303 -0.000000 -0.919796 -0.392398 0.651600 0.876900
20 -1.237500 -9.987900 168.275299 -0.375204 -0.784209 -0.494205 0.646300 0.859800
20 -0.050000 -10.294800 168.295105 0.000000 -0.872791 -0.488095 0.658300 0.867100
HQskinClass404.jpg
20 -1.237500 -9.987900 168.275299 -0.375204 -0.784209 -0.494205 0.646300 0.859800
20 -0.050000 -9.243000 167.838303 0.000000 -0.799183 -0.601087 0.662000 0.857000
20 -0.050000 -10.294800 168.295105 0.000000 -0.872791 -0.488095 0.658300 0.867100
HQskinClass404.jpg
20 -0.050000 -9.243000 167.838303 0.000000 -0.799183 -0.601087 0.662000 0.857000
20 -1.237500 -9.987900 168.275299 -0.375204 -0.784209 -0.494205 0.646300 0.859800
20 -1.090000 -8.964300 167.775604 -0.290901 -0.804202 -0.518301 0.650200 0.850900
HQskinClass404.jpg
20 -2.548200 -7.911500 166.606003 -0.739595 -0.545896 -0.393697 0.636300 0.827400
20 -2.864800 -8.757599 168.841400 -0.491478 -0.767066 -0.412382 0.622400 0.848600
20 -3.857900 -8.220200 168.984406 -0.732432 -0.569825 -0.372616 0.610600 0.844900
HQskinClass404.jpg
20 -2.864800 -8.757599 168.841400 -0.491478 -0.767066 -0.412382 0.622400 0.848600
20 -2.548200 -7.911500 166.606003 -0.739595 -0.545896 -0.393697 0.636300 0.827400
20 -2.075100 -8.550098 167.898300 -0.441611 -0.792719 -0.420210 0.638600 0.844000
HQskinClass404.jpg
20 -7.692900 -1.922400 177.646896 -0.910507 -0.413203 0.015500 0.479000 0.851400
20 -5.735200 -4.362100 169.986893 -0.904321 -0.290007 -0.313207 0.566700 0.816100
20 -6.457300 -6.272700 174.290298 -0.939778 -0.287393 -0.184996 0.544100 0.860500
HQskinClass404.jpg
20 -5.735200 -4.362100 169.986893 -0.904321 -0.290007 -0.313207 0.566700 0.816100
20 -7.692900 -1.922400 177.646896 -0.910507 -0.413203 0.015500 0.479000 0.851400
20 -6.533200 -2.690400 171.422394 -0.926760 -0.214314 -0.308520 0.540000 0.809700
HQskinClass404.jpg
20 -5.605100 -3.334700 168.767700 -0.878595 -0.149399 -0.453597 0.572100 0.798200
20 -5.735200 -4.362100 169.986893 -0.904321 -0.290007 -0.313207 0.566700 0.816100
20 -6.533200 -2.690400 171.422394 -0.926760 -0.214314 -0.308520 0.540000 0.809700
HQskinClass404.jpg
20 -5.605100 -3.334700 168.767700 -0.878595 -0.149399 -0.453597 0.572100 0.798200
20 -6.361700 -1.540300 171.272797 -0.908542 0.096404 -0.406519 0.537800 0.795000
20 -5.421900 -2.014700 168.387100 -0.914780 -0.311493 -0.257194 0.569500 0.782200
HQskinClass404.jpg
20 -6.361700 -1.540300 171.272797 -0.908542 0.096404 -0.406519 0.537800 0.795000
20 -5.605100 -3.334700 168.767700 -0.878595 -0.149399 -0.453597 0.572100 0.798200
20 -6.533200 -2.690400 171.422394 -0.926760 -0.214314 -0.308520 0.540000 0.809700
HQskinClass404.jpg
20 -1.237500 -9.987900 168.275299 -0.375204 -0.784209 -0.494205 0.646300 0.859800
20 -2.075100 -8.550098 167.898300 -0.441611 -0.792719 -0.420210 0.638600 0.844000
20 -1.090000 -8.964300 167.775604 -0.290901 -0.804202 -0.518301 0.650200 0.850900
HQskinClass404.jpg
20 -2.075100 -8.550098 167.898300 -0.441611 -0.792719 -0.420210 0.638600 0.844000
20 -1.237500 -9.987900 168.275299 -0.375204 -0.784209 -0.494205 0.646300 0.859800
20 -2.864800 -8.757599 168.841400 -0.491478 -0.767066 -0.412382 0.622400 0.848600
HQskinClass404.jpg
20 -2.267700 -6.998500 165.363403 -0.617202 -0.085900 -0.782102 0.639500 0.810600
20 -5.735200 -4.362100 169.986893 -0.904321 -0.290007 -0.313207 0.566700 0.816100
20 -5.605100 -3.334700 168.767700 -0.878595 -0.149399 -0.453597 0.572100 0.798200
HQskinClass404.jpg
20 -5.735200 -4.362100 169.986893 -0.904321 -0.290007 -0.313207 0.566700 0.816100
20 -2.267700 -6.998500 165.363403 -0.617202 -0.085900 -0.782102 0.639500 0.810600
20 -2.548200 -7.911500 166.606003 -0.739595 -0.545896 -0.393697 0.636300 0.827400
HQskinClass404.jpg
20 -2.267700 -6.998500 165.363403 -0.617202 -0.085900 -0.782102 0.639500 0.810600
20 -1.501000 -8.811600 165.967697 -0.519991 -0.783286 -0.340694 0.653300 0.829400
20 -2.548200 -7.911500 166.606003 -0.739595 -0.545896 -0.393697 0.636300 0.827400
HQskinClass404.jpg
20 -1.501000 -8.811600 165.967697 -0.519991 -0.783286 -0.340694 0.653300 0.829400
20 -2.267700 -6.998500 165.363403 -0.617202 -0.085900 -0.782102 0.639500 0.810600
20 -1.375400 -7.807800 164.891907 -0.442905 -0.233202 -0.865709 0.654700 0.815300
HQskinClass404.jpg
20 -2.267700 -6.998500 165.363403 -0.617202 -0.085900 -0.782102 0.639500 0.810600
20 -5.421900 -2.014700 168.387100 -0.914780 -0.311493 -0.257194 0.569500 0.782200
20 -3.741500 -3.619200 167.037003 -0.698328 -0.424217 -0.576523 0.601900 0.784400
HQskinClass404.jpg
20 -5.421900 -2.014700 168.387100 -0.914780 -0.311493 -0.257194 0.569500 0.782200
20 -2.267700 -6.998500 165.363403 -0.617202 -0.085900 -0.782102 0.639500 0.810600
20 -5.605100 -3.334700 168.767700 -0.878595 -0.149399 -0.453597 0.572100 0.798200
HQskinClass404.jpg
20 -5.682600 -8.021400 176.642197 -0.842151 -0.509431 -0.176811 0.539600 0.894400
20 -6.612800 -6.045400 177.164902 -0.948939 -0.315413 0.005500 0.518200 0.880100
20 -6.310200 -7.022300 175.458496 -0.910912 -0.410705 -0.039501 0.540100 0.875700
HQskinClass404.jpg
20 -5.743700 -8.866499 177.901306 -0.822772 -0.563481 -0.074397 0.533600 0.909800
20 -3.669800 -9.619999 176.520706 -0.471991 -0.735685 -0.485790 0.562500 0.915200
20 -3.787400 -10.683699 177.298203 -0.496003 -0.822005 -0.279802 0.557100 0.927100
HQskinClass404.jpg
20 -3.669800 -9.619999 176.520706 -0.471991 -0.735685 -0.485790 0.562500 0.915200
20 -5.743700 -8.866499 177.901306 -0.822772 -0.563481 -0.074397 0.533600 0.909800
20 -4.899300 -8.654600 175.913101 -0.601202 -0.792102 -0.105500 0.551700 0.899300
HQskinClass404.jpg
20 -5.743700 -8.866499 177.901306 -0.822772 -0.563481 -0.074397 0.533600 0.909800
20 -6.612800 -6.045400 177.164902 -0.948939 -0.315413 0.005500 0.518200 0.880100
20 -5.682600 -8.021400 176.642197 -0.842151 -0.509431 -0.176811 0.539600 0.894400
HQskinClass404.jpg
20 -0.050000 -5.065200 165.247101 0.000000 -0.652223 -0.758027 0.653000 0.775500
20 -0.050000 -8.279499 164.605698 0.000000 -0.371098 -0.928594 0.673200 0.814800
20 -1.375400 -7.807800 164.891907 -0.442905 -0.233202 -0.865709 0.654700 0.815300
HQskinClass404.jpg
20 -5.682600 -8.021400 176.642197 -0.842151 -0.509431 -0.176811 0.539600 0.894400
20 -5.351800 -8.396900 174.222000 -0.722793 -0.679794 -0.124299 0.564600 0.881200
20 -4.899300 -8.654600 175.913101 -0.601202 -0.792102 -0.105500 0.551700 0.899300
HQskinClass404.jpg
20 -5.351800 -8.396900 174.222000 -0.722793 -0.679794 -0.124299 0.564600 0.881200
20 -5.682600 -8.021400 176.642197 -0.842151 -0.509431 -0.176811 0.539600 0.894400
20 -6.310200 -7.022300 175.458496 -0.910912 -0.410705 -0.039501 0.540100 0.875700
HQskinClass404.jpg
20 -3.857900 -8.220200 168.984406 -0.732432 -0.569825 -0.372616 0.610600 0.844900
20 -5.258300 -8.048100 172.999695 -0.779148 -0.573962 -0.251983 0.569500 0.866900
20 -5.735200 -4.362100 169.986893 -0.904321 -0.290007 -0.313207 0.566700 0.816100
HQskinClass404.jpg
20 -6.457300 -6.272700 174.290298 -0.939778 -0.287393 -0.184996 0.544100 0.860500
20 -5.735200 -4.362100 169.986893 -0.904321 -0.290007 -0.313207 0.566700 0.816100
20 -5.258300 -8.048100 172.999695 -0.779148 -0.573962 -0.251983 0.569500 0.866900
HQskinClass404.jpg
20 -1.501000 -8.811600 165.967697 -0.519991 -0.783286 -0.340694 0.653300 0.829400
20 -2.075100 -8.550098 167.898300 -0.441611 -0.792719 -0.420210 0.638600 0.844000
20 -2.548200 -7.911500 166.606003 -0.739595 -0.545896 -0.393697 0.636300 0.827400
HQskinClass404.jpg
20 -2.075100 -8.550098 167.898300 -0.441611 -0.792719 -0.420210 0.638600 0.844000
20 -1.501000 -8.811600 165.967697 -0.519991 -0.783286 -0.340694 0.653300 0.829400
20 -1.090000 -8.964300 167.775604 -0.290901 -0.804202 -0.518301 0.650200 0.850900
HQskinClass404.jpg
20 -0.050000 -9.243000 167.838303 0.000000 -0.799183 -0.601087 0.662000 0.857000
20 -1.501000 -8.811600 165.967697 -0.519991 -0.783286 -0.340694 0.653300 0.829400
20 -0.050000 -9.298599 165.755707 0.000000 -0.938121 -0.346308 0.672400 0.835300
HQskinClass404.jpg
20 -1.501000 -8.811600 165.967697 -0.519991 -0.783286 -0.340694 0.653300 0.829400
20 -0.050000 -9.243000 167.838303 0.000000 -0.799183 -0.601087 0.662000 0.857000
20 -1.090000 -8.964300 167.775604 -0.290901 -0.804202 -0.518301 0.650200 0.850900
HQskinClass404.jpg
20 -1.489900 -9.428400 175.554199 -0.524423 -0.802835 -0.283612 0.586000 0.921600
20 -0.594200 -11.654600 173.499100 -0.637319 -0.679420 0.363611 0.620000 0.926900
20 -0.737600 -10.750999 175.663101 -0.513522 -0.830935 -0.214109 0.594100 0.935100
HQskinClass404.jpg
20 -1.662400 -10.238800 173.132797 -0.838639 -0.523624 0.150007 0.606500 0.902700
20 -0.594200 -11.654600 173.499100 -0.637319 -0.679420 0.363611 0.620000 0.926900
20 -1.489900 -9.428400 175.554199 -0.524423 -0.802835 -0.283612 0.586000 0.921600
HQskinClass404.jpg
20 -1.785300 -10.177999 171.761398 -0.740834 -0.667431 -0.075503 0.616800 0.893400
20 -0.660200 -12.283398 171.550903 -0.508785 -0.511885 -0.692179 0.636000 0.911000
20 -0.877500 -12.472801 172.094406 -0.693879 -0.719879 0.017499 0.632700 0.915300
HQskinClass404.jpg
20 -0.660200 -12.283398 171.550903 -0.508785 -0.511885 -0.692179 0.636000 0.911000
20 -1.785300 -10.177999 171.761398 -0.740834 -0.667431 -0.075503 0.616800 0.893400
20 -1.457300 -10.250999 171.294205 -0.564791 -0.758587 -0.324895 0.623900 0.890800
HQskinClass404.jpg
20 -1.501000 -8.811600 165.967697 -0.519991 -0.783286 -0.340694 0.653300 0.829400
20 -0.050000 -8.279499 164.605698 0.000000 -0.371098 -0.928594 0.673200 0.814800
20 -0.050000 -9.298599 165.755707 0.000000 -0.938121 -0.346308 0.672400 0.835300
HQskinClass404.jpg
20 -0.050000 -8.279499 164.605698 0.000000 -0.371098 -0.928594 0.673200 0.814800
20 -1.501000 -8.811600 165.967697 -0.519991 -0.783286 -0.340694 0.653300 0.829400
20 -1.375400 -7.807800 164.891907 -0.442905 -0.233202 -0.865709 0.654700 0.815300
HQskinClass404.jpg
20 -0.050000 -12.590200 171.455704 0.000000 -0.718218 -0.695818 0.642800 0.914200
20 -0.660200 -12.283398 171.550903 -0.508785 -0.511885 -0.692179 0.636000 0.911000
20 -0.050000 -10.746500 171.062698 0.000000 -0.773993 -0.633194 0.641800 0.895200
HQskinClass404.jpg
20 -0.050000 -10.746500 171.062698 0.000000 -0.773993 -0.633194 0.641800 0.895200
20 -0.660200 -12.283398 171.550903 -0.508785 -0.511885 -0.692179 0.636000 0.911000
20 -1.457300 -10.250999 171.294205 -0.564791 -0.758587 -0.324895 0.623900 0.890800
HQskinClass404.jpg
20 -4.899300 -8.654600 175.913101 -0.601202 -0.792102 -0.105500 0.551700 0.899300
20 -5.743700 -8.866499 177.901306 -0.822772 -0.563481 -0.074397 0.533600 0.909800
20 -5.682600 -8.021400 176.642197 -0.842151 -0.509431 -0.176811 0.539600 0.894400
HQskinClass404.jpg
20 -3.696900 -9.496300 175.459702 -0.318011 -0.945334 -0.072203 0.569200 0.905000
20 -3.584000 -9.494499 173.516602 -0.364705 -0.929214 -0.059601 0.583900 0.888600
20 -1.489900 -9.428400 175.554199 -0.524423 -0.802835 -0.283612 0.586000 0.921600
HQskinClass404.jpg
20 -0.050000 -10.495600 182.416000 0.000000 -0.984621 0.174704 0.537300 0.994000
20 -3.787400 -10.683699 177.298203 -0.496003 -0.822005 -0.279802 0.557100 0.927100
20 -1.478400 -11.130899 176.749298 -0.192807 -0.966537 -0.169207 0.579900 0.941900
HQskinClass404.jpg
20 -3.787400 -10.683699 177.298203 -0.496003 -0.822005 -0.279802 0.557100 0.927100
20 -0.050000 -10.495600 182.416000 0.000000 -0.984621 0.174704 0.537300 0.994000
20 -3.451400 -9.612999 183.208099 -0.488620 -0.848335 0.203908 0.504100 0.968100
HQskinClass404.jpg
20 -0.737600 -10.750999 175.663101 -0.513522 -0.830935 -0.214109 0.594100 0.935100
20 -1.478400 -11.130899 176.749298 -0.192807 -0.966537 -0.169207 0.579900 0.941900
20 -1.684500 -10.769100 176.184692 -0.373174 -0.619357 -0.690752 0.581600 0.934900
HQskinClass404.jpg
20 -5.345100 -7.635000 182.959198 -0.826099 -0.535599 0.175200 0.485200 0.941300
20 -6.612800 -6.045400 177.164902 -0.948939 -0.315413 0.005500 0.518200 0.880100
20 -5.743700 -8.866499 177.901306 -0.822772 -0.563481 -0.074397 0.533600 0.909800
HQskinClass404.jpg
20 -6.612800 -6.045400 177.164902 -0.948939 -0.315413 0.005500 0.518200 0.880100
20 -5.345100 -7.635000 182.959198 -0.826099 -0.535599 0.175200 0.485200 0.941300
20 -7.591200 -3.366600 179.582504 -0.946565 -0.321388 -0.026899 0.476700 0.874700
HQskinClass404.jpg
20 -3.696900 -9.496300 175.459702 -0.318011 -0.945334 -0.072203 0.569200 0.905000
20 -5.351800 -8.396900 174.222000 -0.722793 -0.679794 -0.124299 0.564600 0.881200
20 -3.584000 -9.494499 173.516602 -0.364705 -0.929214 -0.059601 0.583900 0.888600
HQskinClass404.jpg
20 -5.351800 -8.396900 174.222000 -0.722793 -0.679794 -0.124299 0.564600 0.881200
20 -3.696900 -9.496300 175.459702 -0.318011 -0.945334 -0.072203 0.569200 0.905000
20 -4.899300 -8.654600 175.913101 -0.601202 -0.792102 -0.105500 0.551700 0.899300
HQskinClass404.jpg
20 -1.489900 -9.428400 175.554199 -0.524423 -0.802835 -0.283612 0.586000 0.921600
20 -1.684500 -10.769100 176.184692 -0.373174 -0.619357 -0.690752 0.581600 0.934900
20 -2.253500 -9.785900 176.284897 -0.246187 -0.532471 -0.809856 0.575800 0.923500
HQskinClass404.jpg
20 -3.669800 -9.619999 176.520706 -0.471991 -0.735685 -0.485790 0.562500 0.915200
20 -1.684500 -10.769100 176.184692 -0.373174 -0.619357 -0.690752 0.581600 0.934900
20 -3.787400 -10.683699 177.298203 -0.496003 -0.822005 -0.279802 0.557100 0.927100
HQskinClass404.jpg
20 -1.684500 -10.769100 176.184692 -0.373174 -0.619357 -0.690752 0.581600 0.934900
20 -3.669800 -9.619999 176.520706 -0.471991 -0.735685 -0.485790 0.562500 0.915200
20 -2.253500 -9.785900 176.284897 -0.246187 -0.532471 -0.809856 0.575800 0.923500
HQskinClass404.jpg
20 -1.684500 -10.769100 176.184692 -0.373174 -0.619357 -0.690752 0.581600 0.934900
20 -1.478400 -11.130899 176.749298 -0.192807 -0.966537 -0.169207 0.579900 0.941900
20 -3.787400 -10.683699 177.298203 -0.496003 -0.822005 -0.279802 0.557100 0.927100
HQskinClass404.jpg
20 -7.501200 0.715400 177.017899 -0.575018 0.780625 -0.244908 0.723000 0.965400
20 -6.239000 0.984900 172.797806 -0.956330 0.254408 -0.143905 0.722900 0.942300
20 -6.361700 -1.540300 171.272797 -0.908542 0.096404 -0.406519 0.738400 0.938300
HQskinClass404.jpg
20 -7.979000 0.544500 178.149902 -0.467894 0.686092 0.557093 0.692800 0.843900
20 -9.417000 0.332000 177.962402 -0.773553 0.146091 0.616663 0.697900 0.850500
20 -7.692900 -1.922400 177.646896 -0.910507 -0.413203 0.015500 0.680100 0.850600
HQskinClass404.jpg
20 -6.361700 -1.540300 171.272797 -0.908542 0.096404 -0.406519 0.719600 0.813900
20 -9.643100 0.905800 176.197906 -0.811881 0.547987 -0.201395 0.708700 0.846000
20 -7.501200 0.715400 177.017899 -0.575018 0.780625 -0.244908 0.698000 0.837800
HQskinClass404.jpg
20 -9.643100 0.905800 176.197906 -0.811881 0.547987 -0.201395 0.708700 0.846000
20 -6.361700 -1.540300 171.272797 -0.908542 0.096404 -0.406519 0.719600 0.813900
20 -8.455700 -0.249300 172.944794 -0.667712 0.521310 -0.531410 0.720800 0.828100
HQskinClass404.jpg
20 -9.643100 0.905800 176.197906 -0.811881 0.547987 -0.201395 0.708700 0.846000
20 -7.979000 0.544500 178.149902 -0.467894 0.686092 0.557093 0.692800 0.843900
20 -7.501200 0.715400 177.017899 -0.575018 0.780625 -0.244908 0.698000 0.837800
HQskinClass404.jpg
20 -7.979000 0.544500 178.149902 -0.467894 0.686092 0.557093 0.692800 0.843900
20 -9.643100 0.905800 176.197906 -0.811881 0.547987 -0.201395 0.708700 0.846000
20 -9.417000 0.332000 177.962402 -0.773553 0.146091 0.616663 0.697900 0.850500
HQskinClass404.jpg
20 -6.361700 -1.540300 171.272797 -0.908542 0.096404 -0.406519 0.537800 0.795000
20 -6.533200 -2.690400 171.422394 -0.926760 -0.214314 -0.308520 0.540000 0.809700
20 -8.455700 -0.249300 172.944794 -0.667712 0.521310 -0.531410 0.511300 0.793500
HQskinClass404.jpg
20 -7.692900 -1.922400 177.646896 -0.910507 -0.413203 0.015500 0.479000 0.851400
20 -9.643100 0.905800 176.197906 -0.811881 0.547987 -0.201395 0.470500 0.803000
20 -8.455700 -0.249300 172.944794 -0.667712 0.521310 -0.531410 0.511300 0.793500
HQskinClass404.jpg
20 -9.643100 0.905800 176.197906 -0.811881 0.547987 -0.201395 0.470500 0.803000
20 -7.692900 -1.922400 177.646896 -0.910507 -0.413203 0.015500 0.479000 0.851400
20 -9.417000 0.332000 177.962402 -0.773553 0.146091 0.616663 0.459300 0.822800
HQskinClass404.jpg
20 -8.455700 -0.249300 172.944794 -0.667712 0.521310 -0.531410 0.511300 0.793500
20 -6.533200 -2.690400 171.422394 -0.926760 -0.214314 -0.308520 0.540000 0.809700
20 -7.692900 -1.922400 177.646896 -0.910507 -0.413203 0.015500 0.479000 0.851400
HQskinClass404.jpg
20 -0.050000 -5.065200 165.247101 0.000000 -0.652223 -0.758027 0.653000 0.775500
20 -2.267700 -6.998500 165.363403 -0.617202 -0.085900 -0.782102 0.639500 0.810600
20 -3.741500 -3.619200 167.037003 -0.698328 -0.424217 -0.576523 0.601900 0.784400
HQskinClass404.jpg
20 -2.267700 -6.998500 165.363403 -0.617202 -0.085900 -0.782102 0.639500 0.810600
20 -0.050000 -5.065200 165.247101 0.000000 -0.652223 -0.758027 0.653000 0.775500
20 -1.375400 -7.807800 164.891907 -0.442905 -0.233202 -0.865709 0.654700 0.815300
HQskinClass404.jpg
20 -6.457300 -6.272700 174.290298 -0.939778 -0.287393 -0.184996 0.544100 0.860500
20 -6.612800 -6.045400 177.164902 -0.948939 -0.315413 0.005500 0.518200 0.880100
20 -7.692900 -1.922400 177.646896 -0.910507 -0.413203 0.015500 0.479000 0.851400
HQskinClass404.jpg
20 -6.612800 -6.045400 177.164902 -0.948939 -0.315413 0.005500 0.518200 0.880100
20 -6.457300 -6.272700 174.290298 -0.939778 -0.287393 -0.184996 0.544100 0.860500
20 -6.310200 -7.022300 175.458496 -0.910912 -0.410705 -0.039501 0.540100 0.875700
HQskinClass404.jpg
20 -6.612800 -6.045400 177.164902 -0.948939 -0.315413 0.005500 0.518200 0.880100
20 -7.591200 -3.366600 179.582504 -0.946565 -0.321388 -0.026899 0.476700 0.874700
20 -7.692900 -1.922400 177.646896 -0.910507 -0.413203 0.015500 0.479000 0.851400
HQskinClass404.jpg
20 -0.050000 7.908400 176.832199 0.000000 0.979777 -0.200095 0.661000 0.955400
20 -4.227300 5.659600 170.840103 -0.659407 0.745708 -0.095401 0.694900 0.926900
20 -3.437800 7.375800 177.006393 -0.419896 0.886792 -0.193098 0.679000 0.960700
HQskinClass404.jpg
20 -4.227300 5.659600 170.840103 -0.659407 0.745708 -0.095401 0.694900 0.926900
20 -0.050000 7.908400 176.832199 0.000000 0.979777 -0.200095 0.661000 0.955400
20 -0.050000 7.110700 170.103897 0.000000 0.994270 -0.106897 0.670100 0.918700
HQskinClass404.jpg
20 -4.227300 5.659600 170.840103 -0.659407 0.745708 -0.095401 0.694900 0.926900
20 -6.039100 5.002000 177.507004 -0.848146 0.489869 -0.201687 0.697300 0.967000
20 -3.437800 7.375800 177.006393 -0.419896 0.886792 -0.193098 0.679000 0.960700
HQskinClass404.jpg
20 -6.039100 5.002000 177.507004 -0.848146 0.489869 -0.201687 0.697300 0.967000
20 -6.239000 0.984900 172.797806 -0.956330 0.254408 -0.143905 0.722900 0.942300
20 -7.501200 0.715400 177.017899 -0.575018 0.780625 -0.244908 0.723000 0.965400
HQskinClass404.jpg
20 -6.239000 0.984900 172.797806 -0.956330 0.254408 -0.143905 0.722900 0.942300
20 -6.039100 5.002000 177.507004 -0.848146 0.489869 -0.201687 0.697300 0.967000
20 -4.227300 5.659600 170.840103 -0.659407 0.745708 -0.095401 0.694900 0.926900
HQskinClass404.jpg
20 -7.501200 0.715400 177.017899 -0.575018 0.780625 -0.244908 0.723000 0.965400
20 -7.979000 0.544500 178.149902 -0.467894 0.686092 0.557093 0.724000 0.973500
20 -6.039100 5.002000 177.507004 -0.848146 0.489869 -0.201687 0.697300 0.967000
HQskinClass404.jpg
20 -2.253500 -9.785900 176.284897 -0.246187 -0.532471 -0.809856 0.575800 0.923500
20 -3.696900 -9.496300 175.459702 -0.318011 -0.945334 -0.072203 0.569200 0.905000
20 -1.489900 -9.428400 175.554199 -0.524423 -0.802835 -0.283612 0.586000 0.921600
HQskinClass404.jpg
20 -3.696900 -9.496300 175.459702 -0.318011 -0.945334 -0.072203 0.569200 0.905000
20 -2.253500 -9.785900 176.284897 -0.246187 -0.532471 -0.809856 0.575800 0.923500
20 -3.669800 -9.619999 176.520706 -0.471991 -0.735685 -0.485790 0.562500 0.915200
HQskinClass404.jpg
20 -3.696900 -9.496300 175.459702 -0.318011 -0.945334 -0.072203 0.569200 0.905000
20 -3.669800 -9.619999 176.520706 -0.471991 -0.735685 -0.485790 0.562500 0.915200
20 -4.899300 -8.654600 175.913101 -0.601202 -0.792102 -0.105500 0.551700 0.899300
HQskinClass404.jpg
18 -5.358400 -3.475700 160.442795 -0.503898 -0.605198 0.616298 0.757200 0.885900
18 -6.819600 3.685100 162.188293 -0.879382 0.414592 0.234095 0.713400 0.885900
18 -6.423600 -4.752900 159.547302 -0.170701 -0.526904 0.832606 0.761100 0.875300
HQskinClass404.jpg
18 -6.819600 3.685100 162.188293 -0.879382 0.414592 0.234095 0.713400 0.885900
18 -5.358400 -3.475700 160.442795 -0.503898 -0.605198 0.616298 0.757200 0.885900
18 -6.536700 1.714800 164.730698 -0.996502 0.052400 0.065100 0.720400 0.902700
HQskinClass404.jpg
20 -4.227300 5.659600 170.840103 -0.659407 0.745708 -0.095401 0.694900 0.926900
18 -0.050000 6.417100 163.037292 0.000000 0.998759 0.049798 0.672300 0.887600
18 -5.530800 4.176600 163.751907 -0.634116 0.764119 0.118403 0.705600 0.895000
HQskinClass404.jpg
18 -0.050000 6.417100 163.037292 0.000000 0.998759 0.049798 0.672300 0.887600
20 -4.227300 5.659600 170.840103 -0.659407 0.745708 -0.095401 0.694900 0.926900
20 -0.050000 7.110700 170.103897 0.000000 0.994270 -0.106897 0.670100 0.918700
HQskinClass404.jpg
20 -3.741500 -3.619200 167.037003 -0.698328 -0.424217 -0.576523 0.758900 0.918400
18 -5.358400 -3.475700 160.442795 -0.503898 -0.605198 0.616298 0.757200 0.885900
20 -0.050000 -5.065200 165.247101 0.000000 -0.652223 -0.758027 0.783200 0.916800
HQskinClass404.jpg
18 -5.358400 -3.475700 160.442795 -0.503898 -0.605198 0.616298 0.757200 0.885900
20 -3.741500 -3.619200 167.037003 -0.698328 -0.424217 -0.576523 0.758900 0.918400
20 -5.421900 -2.014700 168.387100 -0.914780 -0.311493 -0.257194 0.744900 0.922900
HQskinClass404.jpg
18 -5.358400 -3.475700 160.442795 -0.503898 -0.605198 0.616298 0.757200 0.885900
18 -0.050000 -6.732800 158.469894 0.000000 -0.943029 0.332710 0.795900 0.889600
20 -0.050000 -5.065200 165.247101 0.000000 -0.652223 -0.758027 0.783200 0.916800
HQskinClass404.jpg
18 -6.536700 1.714800 164.730698 -0.996502 0.052400 0.065100 0.720400 0.902700
18 -5.530800 4.176600 163.751907 -0.634116 0.764119 0.118403 0.705600 0.895000
18 -6.819600 3.685100 162.188293 -0.879382 0.414592 0.234095 0.713400 0.885900
HQskinClass404.jpg
20 -6.361700 -1.540300 171.272797 -0.908542 0.096404 -0.406519 0.738400 0.938300
18 -6.536700 1.714800 164.730698 -0.996502 0.052400 0.065100 0.720400 0.902700
20 -5.421900 -2.014700 168.387100 -0.914780 -0.311493 -0.257194 0.744900 0.922900
HQskinClass404.jpg
18 -6.536700 1.714800 164.730698 -0.996502 0.052400 0.065100 0.720400 0.902700
20 -6.361700 -1.540300 171.272797 -0.908542 0.096404 -0.406519 0.738400 0.938300
20 -6.239000 0.984900 172.797806 -0.956330 0.254408 -0.143905 0.722900 0.942300
HQskinClass404.jpg
18 -6.536700 1.714800 164.730698 -0.996502 0.052400 0.065100 0.720400 0.902700
18 -5.358400 -3.475700 160.442795 -0.503898 -0.605198 0.616298 0.757200 0.885900
20 -5.421900 -2.014700 168.387100 -0.914780 -0.311493 -0.257194 0.744900 0.922900
HQskinClass404.jpg
20 -5.258300 -8.048100 172.999695 -0.779148 -0.573962 -0.251983 0.569500 0.866900
20 -3.584000 -9.494499 173.516602 -0.364705 -0.929214 -0.059601 0.583900 0.888600
20 -5.351800 -8.396900 174.222000 -0.722793 -0.679794 -0.124299 0.564600 0.881200
HQskinClass404.jpg
20 -5.351800 -8.396900 174.222000 -0.722793 -0.679794 -0.124299 0.564600 0.881200
20 -6.457300 -6.272700 174.290298 -0.939778 -0.287393 -0.184996 0.544100 0.860500
20 -5.258300 -8.048100 172.999695 -0.779148 -0.573962 -0.251983 0.569500 0.866900
HQskinClass404.jpg
20 -6.457300 -6.272700 174.290298 -0.939778 -0.287393 -0.184996 0.544100 0.860500
20 -5.351800 -8.396900 174.222000 -0.722793 -0.679794 -0.124299 0.564600 0.881200
20 -6.310200 -7.022300 175.458496 -0.910912 -0.410705 -0.039501 0.540100 0.875700
HQskinClass404.jpg
20 -2.548200 -7.911500 166.606003 -0.739595 -0.545896 -0.393697 0.636300 0.827400
20 -3.857900 -8.220200 168.984406 -0.732432 -0.569825 -0.372616 0.610600 0.844900
20 -5.735200 -4.362100 169.986893 -0.904321 -0.290007 -0.313207 0.566700 0.816100
HQskinClass404.jpg
20 -0.877500 -12.472801 172.094406 -0.693879 -0.719879 0.017499 0.632700 0.915300
20 -0.050000 -12.806200 172.138397 0.000000 -0.994313 0.106501 0.638500 0.922200
20 -0.050000 -11.917999 173.481903 0.000000 -0.867072 0.498184 0.623800 0.930700
HQskinClass404.jpg
20 -0.050000 -11.917999 173.481903 0.000000 -0.867072 0.498184 0.623800 0.930700
20 -0.594200 -11.654600 173.499100 -0.637319 -0.679420 0.363611 0.620000 0.926900
20 -0.877500 -12.472801 172.094406 -0.693879 -0.719879 0.017499 0.632700 0.915300
HQskinClass404.jpg
20 -0.594200 -11.654600 173.499100 -0.637319 -0.679420 0.363611 0.620000 0.926900
20 -1.662400 -10.238800 173.132797 -0.838639 -0.523624 0.150007 0.606500 0.902700
20 -1.785300 -10.177999 171.761398 -0.740834 -0.667431 -0.075503 0.616800 0.893400
HQskinClass404.jpg
20 -1.785300 -10.177999 171.761398 -0.740834 -0.667431 -0.075503 0.616800 0.893400
20 -0.877500 -12.472801 172.094406 -0.693879 -0.719879 0.017499 0.632700 0.915300
20 -0.594200 -11.654600 173.499100 -0.637319 -0.679420 0.363611 0.620000 0.926900
HQskinClass404.jpg
20 -2.544600 -9.538700 169.891205 -0.542498 -0.806197 -0.236099 0.616500 0.869600
20 -1.785300 -10.177999 171.761398 -0.740834 -0.667431 -0.075503 0.616800 0.893400
20 -1.662400 -10.238800 173.132797 -0.838639 -0.523624 0.150007 0.606500 0.902700
HQskinClass404.jpg
20 -1.662400 -10.238800 173.132797 -0.838639 -0.523624 0.150007 0.606500 0.902700
20 -1.917500 -9.731800 173.094193 -0.590500 -0.796400 0.130600 0.599600 0.898400
20 -2.544600 -9.538700 169.891205 -0.542498 -0.806197 -0.236099 0.616500 0.869600
HQskinClass404.jpg
20 -1.917500 -9.731800 173.094193 -0.590500 -0.796400 0.130600 0.599600 0.898400
20 -3.584000 -9.494499 173.516602 -0.364705 -0.929214 -0.059601 0.583900 0.888600
20 -2.544600 -9.538700 169.891205 -0.542498 -0.806197 -0.236099 0.616500 0.869600
end
