version 1
nodes
0 "Bip01" -1
1 "Bip01 Footsteps" 0
2 "Bip01 Pelvis" 0
3 "Bip01 L Leg" 2
4 "Bip01 L Leg1" 3
5 "Bip01 L Foot" 4
6 "Bip01 L Toe0" 5
7 "Bip01 L Toe01" 6
8 "Bip01 L Toe02" 7
9 "Null 9" -1
10 "Bip01 R Leg" 2
11 "Bip01 R Leg1" 10
12 "Bip01 R Foot" 11
13 "Bip01 R Toe0" 12
14 "Bip01 R Toe01" 13
15 "Bip01 R Toe02" 14
16 "Null 16" -1
17 "Bip01 Spine" 2
18 "Bip01 Spine1" 17
19 "Bip01 Neck" 18
20 "Bip01 Head" 19
21 "Null 21" -1
22 "Bip01 Ponytail1" 20
23 "Bip01 Ponytail11" 22
24 "Null 24" -1
25 "Bip01 R Arm" 19
26 "Bip01 R Arm1" 25
27 "Bip01 R Arm2" 26
28 "Bip01 R Hand" 27
29 "Bip01 R Finger0" 28
30 "Bip01 R Finger01" 29
31 "Bip01 R Finger02" 30
32 "Null 32" -1
33 "knife_gdf" 28
34 "Bip01 L Arm" 19
35 "Bip01 L Arm1" 34
36 "Bip01 L Arm2" 35
37 "Bip01 L Hand" 36
38 "Bip01 L Finger0" 37
39 "Bip01 L Finger01" 38
40 "Bip01 L Finger02" 39
41 "Null 41" -1
42 "hand_bofdgne01" 37
43 "Bone01" 17
44 "Bone02" 43
45 "Bone03" 44
46 "Bone04" 45
47 "Bone05" 17
48 "Bone06" 47
49 "Bone07" 48
50 "Bone08" 49
end
skeleton
time 0
0 0.000000 0.000000 109.950928 -0.000000 -0.000000 -1.570795
1 0.000000 0.000000 -109.958252 0.000000 -0.000000 1.570795
2 0.000000 0.000000 0.000000 -1.570795 -1.570796 0.000000
3 -0.000014 0.000019 10.281536 -3.141592 0.000002 3.041593
4 49.430481 0.000000 0.000000 0.000000 -0.000000 -0.200000
5 49.430462 0.000001 0.000000 0.000000 -0.000000 0.100000
6 11.591197 14.908227 0.000000 0.000000 -0.000000 1.570796
7 4.161462 0.000000 0.000000 0.000000 -0.000000 0.000000
8 4.161460 0.000000 0.000000 0.000000 -0.000000 0.000000
9 0.000000 0.000000 0.000000 0.000000 0.000000 0.000000
10 0.000014 -0.000009 -10.281536 -3.141592 0.000002 3.041593
11 49.430481 0.000000 0.000000 0.000000 -0.000000 -0.200000
12 49.430462 0.000001 0.000000 0.000000 -0.000000 0.100000
13 11.591197 14.908227 0.000000 0.000000 -0.000000 1.570796
14 4.161462 0.000000 0.000000 0.000000 -0.000000 0.000000
15 4.161458 0.000000 0.000000 0.000000 -0.000000 0.000000
16 0.000000 0.000000 0.000000 0.000000 0.000000 0.000000
17 3.598549 -0.015762 0.000005 -0.000004 -0.000001 0.000796
18 19.801466 -0.020711 0.000000 0.000000 -0.000000 0.000000
19 26.009638 -0.004092 0.000000 0.000000 -0.000000 0.030000
20 5.140770 0.000000 0.000000 0.000000 -0.000000 -0.030798
21 0.000000 0.000000 0.000000 0.000000 0.000000 0.000000
22 6.888315 -6.881610 -0.000019 -0.000005 0.000001 -2.749229
23 15.458327 -0.012906 0.000000 0.000000 0.000001 -0.219299
24 0.000000 0.000000 0.000000 0.000000 0.000000 0.000000
25 0.000000 0.004110 -6.477368 -0.000014 1.370796 3.110783
26 13.400166 0.000000 0.000000 0.000000 -1.183530 0.000000
27 37.630424 0.000000 -0.000002 0.000000 -0.000000 -0.025467
28 27.473604 0.000000 0.000002 1.569921 -0.000000 0.000000
29 10.423897 -1.809571 -0.029783 0.000875 -0.000000 0.000000
30 3.624243 -0.000003 0.000000 0.000000 -0.000000 0.000000
31 3.624247 0.000004 0.000000 0.000000 -0.000000 0.000000
32 0.000000 0.000000 0.000000 0.000000 0.000000 0.000000
33 9.026139 3.666775 0.258435 -1.374363 -0.037857 1.754420
34 0.000000 0.004077 6.477368 -0.000014 -1.370796 3.110810
35 13.400166 0.000000 0.000000 0.000000 1.183530 0.000000
36 37.630432 0.000000 0.000001 0.000000 -0.000000 -0.025467
37 27.473597 0.000000 0.000002 -1.569921 -0.000000 0.000000
38 10.423897 -1.809568 0.029783 -0.000875 -0.000000 0.000000
39 3.624243 -0.000004 0.000000 0.000000 -0.000000 0.000000
40 3.624246 0.000003 0.000000 0.000000 -0.000000 0.000000
41 0.000000 0.000000 0.000000 0.000000 0.000000 0.000000
42 9.000602 3.769935 0.531383 1.767230 -0.037854 -1.387172
43 15.155036 10.590148 0.000024 3.140796 -1.570796 0.000000
44 0.000000 -0.606424 -3.234268 -0.020312 -0.000000 0.000000
45 0.000001 -3.638542 -20.011988 -0.119229 -0.000000 0.000000
46 0.000001 -0.606424 -26.480518 0.000000 -0.000000 0.000000
47 16.351946 -9.422812 -0.000022 3.140796 -1.570796 0.000000
48 0.000000 0.000000 -2.627838 -0.122942 -0.000000 0.000000
49 0.000000 5.457817 -16.979876 0.119623 -0.000000 0.000000
50 0.000001 2.627836 -27.895494 0.000000 -0.000000 0.000000
end
triangles
K_BronzeHQ.jpg
20 15.150629 -4.827700 181.866333 0.900922 -0.426412 0.080702 0.360000 0.084500
20 15.150629 -2.662197 176.658508 0.845303 0.056398 -0.531303 0.377200 0.035700
20 15.150726 9.768826 183.066162 0.943385 0.213095 -0.254197 0.482600 0.031000
K_BronzeHQ.jpg
20 15.150726 9.768826 183.066162 0.943385 0.213095 -0.254197 0.482600 0.031000
20 13.473423 2.573116 189.555634 0.891316 -0.228304 0.391706 0.482300 0.112600
20 15.150629 -4.827700 181.866333 0.900922 -0.426412 0.080702 0.360000 0.084500
K_BronzeHQ.jpg
20 13.473423 2.573116 189.555634 0.891316 -0.228304 0.391706 0.482300 0.112600
20 15.150726 9.768826 183.066162 0.943385 0.213095 -0.254197 0.482600 0.031000
20 13.473420 27.321070 195.655884 0.914936 0.289310 -0.281412 0.669000 0.029000
K_BronzeHQ.jpg
20 11.796028 -8.422306 181.382141 -0.993430 -0.009999 0.114004 0.413500 0.085300
20 11.795920 13.445530 183.296127 -0.990245 -0.021900 0.137607 0.467400 0.051100
20 11.795922 -4.611198 172.216446 -1.000000 0.000001 0.000001 0.396000 0.047300
K_BronzeHQ.jpg
20 11.795920 13.445530 183.296127 -0.990245 -0.021900 0.137607 0.467400 0.051100
20 11.796028 -8.422306 181.382141 -0.993430 -0.009999 0.114004 0.413500 0.085300
20 13.473423 2.573116 189.555634 -0.978133 -0.032600 0.205408 0.461000 0.092500
K_BronzeHQ.jpg
20 13.473423 2.573116 189.555634 -0.978133 -0.032600 0.205408 0.461000 0.092500
20 13.473420 27.321070 195.655884 -0.981838 -0.045400 0.184208 0.533100 0.067100
20 11.795920 13.445530 183.296127 -0.990245 -0.021900 0.137607 0.467400 0.051100
K_BronzeHQ.jpg
20 15.150726 9.768826 183.066162 0.943385 0.213095 -0.254197 0.482600 0.031000
20 15.150629 -2.662197 176.658508 0.845303 0.056398 -0.531303 0.377200 0.035700
20 11.795920 13.445530 183.296127 0.528400 0.453698 -0.717601 0.496300 0.007400
K_BronzeHQ.jpg
20 11.795922 -4.611198 172.216446 0.815902 -0.342403 -0.465902 0.358600 0.001300
20 11.795920 13.445530 183.296127 0.528400 0.453698 -0.717601 0.496300 0.007400
20 15.150629 -2.662197 176.658508 0.845303 0.056398 -0.531303 0.377200 0.035700
K_BronzeHQ.jpg
20 11.795920 13.445530 183.296127 0.528400 0.453698 -0.717601 0.496300 0.007400
20 13.473420 27.321070 195.655884 0.914936 0.289310 -0.281412 0.669000 0.029000
20 15.150726 9.768826 183.066162 0.943385 0.213095 -0.254197 0.482600 0.031000
K_BronzeHQ.jpg
20 15.150629 -4.827700 181.866333 0.900922 -0.426412 0.080702 0.360000 0.084500
20 13.473423 2.573116 189.555634 0.891316 -0.228304 0.391706 0.482300 0.112600
20 11.796028 -8.422306 181.382141 0.698376 -0.681277 0.219393 0.338400 0.100800
K_BronzeHQ.jpg
20 15.150629 -2.662197 176.658508 0.845303 0.056398 -0.531303 0.377200 0.035700
20 15.150629 -4.827700 181.866333 0.900922 -0.426412 0.080702 0.360000 0.084500
20 11.795922 -4.611198 172.216446 0.815902 -0.342403 -0.465902 0.358600 0.001300
K_BronzeHQ.jpg
20 11.796028 -8.422306 181.382141 0.698376 -0.681277 0.219393 0.338400 0.100800
20 11.795922 -4.611198 172.216446 0.815902 -0.342403 -0.465902 0.358600 0.001300
20 15.150629 -4.827700 181.866333 0.900922 -0.426412 0.080702 0.360000 0.084500
K_BronzeHQ.jpg
20 11.483521 -5.387600 176.329926 0.992639 0.030500 -0.117206 0.482100 0.200100
20 8.189316 10.091221 177.742798 0.785399 0.618497 -0.024702 0.585200 0.239700
20 12.383224 -5.387600 179.736679 0.996868 -0.073999 -0.027900 0.482100 0.242600
K_BronzeHQ.jpg
20 11.483521 -5.387600 176.329926 0.992639 0.030500 -0.117206 0.482100 0.200100
20 9.064114 11.883926 170.130692 0.623465 0.744656 0.238284 0.599900 0.154500
20 8.189316 10.091221 177.742798 0.785399 0.618497 -0.024702 0.585200 0.239700
K_BronzeHQ.jpg
20 9.064114 11.883926 170.130692 0.623465 0.744656 0.238284 0.599900 0.154500
20 -0.000001 13.385429 177.742798 0.000001 0.997477 0.070997 0.643100 0.236500
20 8.189316 10.091221 177.742798 0.785399 0.618497 -0.024702 0.585200 0.239700
K_BronzeHQ.jpg
20 9.064114 11.883926 170.130692 0.623465 0.744656 0.238284 0.599900 0.154500
20 -0.000001 16.268644 166.353333 0.000001 0.969421 0.245404 0.662600 0.113900
20 -0.000001 13.385429 177.742798 0.000001 0.997477 0.070997 0.643100 0.236500
K_BronzeHQ.jpg
20 0.000002 -17.713926 163.196350 -0.000001 -0.997937 -0.064201 0.376300 0.118500
20 8.825516 -13.340614 179.736679 0.733155 -0.678960 0.038698 0.400600 0.233700
20 0.000001 -16.634926 179.736557 -0.000001 -0.992859 -0.119293 0.362500 0.226500
K_BronzeHQ.jpg
20 0.000002 -17.713926 163.196350 -0.000001 -0.997937 -0.064201 0.376300 0.118500
20 8.189221 -12.489817 173.525375 0.847698 -0.495401 -0.189700 0.421800 0.179400
20 8.825516 -13.340614 179.736679 0.733155 -0.678960 0.038698 0.400600 0.233700
K_BronzeHQ.jpg
20 8.189221 -12.489817 173.525375 0.847698 -0.495401 -0.189700 0.421800 0.179400
20 12.383224 -5.387600 179.736679 0.996868 -0.073999 -0.027900 0.482100 0.242600
20 8.825516 -13.340614 179.736679 0.733155 -0.678960 0.038698 0.400600 0.233700
K_BronzeHQ.jpg
20 8.189221 -12.489817 173.525375 0.847698 -0.495401 -0.189700 0.421800 0.179400
20 11.483521 -5.387600 176.329926 0.992639 0.030500 -0.117206 0.482100 0.200100
20 12.383224 -5.387600 179.736679 0.996868 -0.073999 -0.027900 0.482100 0.242600
K_BronzeHQ.jpg
20 12.383224 -5.387600 179.736679 0.996868 -0.073999 -0.027900 0.482100 0.242600
20 8.189316 10.091219 181.149429 0.880111 0.466504 0.088199 0.568000 0.288600
20 11.483623 -5.387600 183.143295 0.955194 -0.189100 0.227698 0.482100 0.291600
K_BronzeHQ.jpg
20 12.383224 -5.387600 179.736679 0.996868 -0.073999 -0.027900 0.482100 0.242600
20 8.189316 10.091221 177.742798 0.785399 0.618497 -0.024702 0.585200 0.239700
20 8.189316 10.091219 181.149429 0.880111 0.466504 0.088199 0.568000 0.288600
K_BronzeHQ.jpg
20 8.189316 10.091221 177.742798 0.785399 0.618497 -0.024702 0.585200 0.239700
20 -0.000001 15.809839 185.125122 0.000001 0.985735 -0.168307 0.663900 0.313000
20 8.189316 10.091219 181.149429 0.880111 0.466504 0.088199 0.568000 0.288600
K_BronzeHQ.jpg
20 8.189316 10.091221 177.742798 0.785399 0.618497 -0.024702 0.585200 0.239700
20 -0.000001 13.385429 177.742798 0.000001 0.997477 0.070997 0.643100 0.236500
20 -0.000001 15.809839 185.125122 0.000001 0.985735 -0.168307 0.663900 0.313000
K_BronzeHQ.jpg
20 0.000001 -16.634926 179.736557 -0.000001 -0.992859 -0.119293 0.362500 0.226500
20 8.189318 -13.340614 183.143295 0.643696 -0.761498 -0.075999 0.407900 0.285100
20 0.000002 -22.627222 189.966904 -0.000002 -0.862890 -0.505392 0.340700 0.326600
K_BronzeHQ.jpg
20 0.000001 -16.634926 179.736557 -0.000001 -0.992859 -0.119293 0.362500 0.226500
20 8.825516 -13.340614 179.736679 0.733155 -0.678960 0.038698 0.400600 0.233700
20 8.189318 -13.340614 183.143295 0.643696 -0.761498 -0.075999 0.407900 0.285100
K_BronzeHQ.jpg
20 8.825516 -13.340614 179.736679 0.733155 -0.678960 0.038698 0.400600 0.233700
20 11.483623 -5.387600 183.143295 0.955194 -0.189100 0.227698 0.482100 0.291600
20 8.189318 -13.340614 183.143295 0.643696 -0.761498 -0.075999 0.407900 0.285100
K_BronzeHQ.jpg
20 8.825516 -13.340614 179.736679 0.733155 -0.678960 0.038698 0.400600 0.233700
20 12.383224 -5.387600 179.736679 0.996868 -0.073999 -0.027900 0.482100 0.242600
20 11.483623 -5.387600 183.143295 0.955194 -0.189100 0.227698 0.482100 0.291600
K_BronzeHQ.jpg
20 -0.000001 15.809839 185.125122 0.000001 0.263094 0.964770 0.392300 0.277500
20 11.483623 -5.387600 183.143295 0.546186 0.220295 0.808177 0.370200 0.257900
20 8.189316 10.091219 181.149429 0.546186 0.220295 0.808177 0.376600 0.266600
K_BronzeHQ.jpg
20 -15.150730 9.768822 183.066162 -0.943385 0.213097 -0.254195 0.482600 0.031000
20 -15.150629 -2.662200 176.658508 -0.845304 0.056400 -0.531301 0.377200 0.035700
20 -15.150629 -4.827703 181.866333 -0.900923 -0.426409 0.080704 0.360000 0.084500
K_BronzeHQ.jpg
20 -15.150629 -4.827703 181.866333 -0.900923 -0.426409 0.080704 0.360000 0.084500
20 -13.473423 2.573113 189.555634 -0.891315 -0.228302 0.391708 0.482300 0.112600
20 -15.150730 9.768822 183.066162 -0.943385 0.213097 -0.254195 0.482600 0.031000
K_BronzeHQ.jpg
20 -13.473426 27.321070 195.655884 -0.914935 0.289312 -0.281410 0.669000 0.029000
20 -15.150730 9.768822 183.066162 -0.943385 0.213097 -0.254195 0.482600 0.031000
20 -13.473423 2.573113 189.555634 -0.891315 -0.228302 0.391708 0.482300 0.112600
K_BronzeHQ.jpg
20 -11.795922 -4.611200 172.216446 1.000000 -0.000001 -0.000001 0.396000 0.047300
20 -11.795924 13.445528 183.296127 0.990245 -0.021902 0.137605 0.467400 0.051100
20 -11.796028 -8.422308 181.382141 0.993430 -0.010001 0.114002 0.413500 0.085300
K_BronzeHQ.jpg
20 -13.473423 2.573113 189.555634 0.978134 -0.032602 0.205406 0.461000 0.092500
20 -11.796028 -8.422308 181.382141 0.993430 -0.010001 0.114002 0.413500 0.085300
20 -11.795924 13.445528 183.296127 0.990245 -0.021902 0.137605 0.467400 0.051100
K_BronzeHQ.jpg
20 -11.795924 13.445528 183.296127 0.990245 -0.021902 0.137605 0.467400 0.051100
20 -13.473426 27.321070 195.655884 0.981838 -0.045403 0.184206 0.533100 0.067100
20 -13.473423 2.573113 189.555634 0.978134 -0.032602 0.205406 0.461000 0.092500
K_BronzeHQ.jpg
20 -11.795924 13.445528 183.296127 -0.528400 0.453700 -0.717600 0.496300 0.007400
20 -15.150629 -2.662200 176.658508 -0.845304 0.056400 -0.531301 0.377200 0.035700
20 -15.150730 9.768822 183.066162 -0.943385 0.213097 -0.254195 0.482600 0.031000
K_BronzeHQ.jpg
20 -15.150629 -2.662200 176.658508 -0.845304 0.056400 -0.531301 0.377200 0.035700
20 -11.795924 13.445528 183.296127 -0.528400 0.453700 -0.717600 0.496300 0.007400
20 -11.795922 -4.611200 172.216446 -0.815904 -0.342401 -0.465900 0.358600 0.001300
K_BronzeHQ.jpg
20 -15.150730 9.768822 183.066162 -0.943385 0.213097 -0.254195 0.482600 0.031000
20 -13.473426 27.321070 195.655884 -0.914935 0.289312 -0.281410 0.669000 0.029000
20 -11.795924 13.445528 183.296127 -0.528400 0.453700 -0.717600 0.496300 0.007400
K_BronzeHQ.jpg
20 -11.796028 -8.422308 181.382141 -0.698377 -0.681275 0.219394 0.338400 0.100800
20 -13.473423 2.573113 189.555634 -0.891315 -0.228302 0.391708 0.482300 0.112600
20 -15.150629 -4.827703 181.866333 -0.900923 -0.426409 0.080704 0.360000 0.084500
K_BronzeHQ.jpg
20 -11.795922 -4.611200 172.216446 -0.815904 -0.342401 -0.465900 0.358600 0.001300
20 -15.150629 -4.827703 181.866333 -0.900923 -0.426409 0.080704 0.360000 0.084500
20 -15.150629 -2.662200 176.658508 -0.845304 0.056400 -0.531301 0.377200 0.035700
K_BronzeHQ.jpg
20 -15.150629 -4.827703 181.866333 -0.900923 -0.426409 0.080704 0.360000 0.084500
20 -11.795922 -4.611200 172.216446 -0.815904 -0.342401 -0.465900 0.358600 0.001300
20 -11.796028 -8.422308 181.382141 -0.698377 -0.681275 0.219394 0.338400 0.100800
K_BronzeHQ.jpg
20 -12.383224 -5.387602 179.736679 -0.996868 -0.073996 -0.027898 0.482100 0.242600
20 -8.189318 10.091221 177.742798 -0.785397 0.618499 -0.024700 0.585200 0.239700
20 -11.483519 -5.387602 176.329926 -0.992639 0.030502 -0.117204 0.482100 0.200100
K_BronzeHQ.jpg
20 -8.189318 10.091221 177.742798 -0.785397 0.618499 -0.024700 0.585200 0.239700
20 -9.064117 11.883926 170.130692 -0.623462 0.744657 0.238285 0.599900 0.154500
20 -11.483519 -5.387602 176.329926 -0.992639 0.030502 -0.117204 0.482100 0.200100
K_BronzeHQ.jpg
20 -8.189318 10.091221 177.742798 -0.785397 0.618499 -0.024700 0.585200 0.239700
20 -0.000001 13.385429 177.742798 0.000001 0.997477 0.070997 0.643100 0.236500
20 -9.064117 11.883926 170.130692 -0.623462 0.744657 0.238285 0.599900 0.154500
K_BronzeHQ.jpg
20 -0.000001 13.385429 177.742798 0.000001 0.997477 0.070997 0.643100 0.236500
20 -0.000001 16.268644 166.353333 0.000001 0.969421 0.245404 0.662600 0.113900
20 -9.064117 11.883926 170.130692 -0.623462 0.744657 0.238285 0.599900 0.154500
K_BronzeHQ.jpg
20 0.000001 -16.634926 179.736557 -0.000001 -0.992859 -0.119293 0.362500 0.226500
20 -8.825514 -13.340616 179.736679 -0.733157 -0.678958 0.038699 0.400600 0.233700
20 0.000002 -17.713926 163.196350 -0.000001 -0.997937 -0.064201 0.376300 0.118500
K_BronzeHQ.jpg
20 -8.825514 -13.340616 179.736679 -0.733157 -0.678958 0.038699 0.400600 0.233700
20 -8.189218 -12.489817 173.525375 -0.847700 -0.495399 -0.189698 0.421800 0.179400
20 0.000002 -17.713926 163.196350 -0.000001 -0.997937 -0.064201 0.376300 0.118500
K_BronzeHQ.jpg
20 -8.825514 -13.340616 179.736679 -0.733157 -0.678958 0.038699 0.400600 0.233700
20 -12.383224 -5.387602 179.736679 -0.996868 -0.073996 -0.027898 0.482100 0.242600
20 -8.189218 -12.489817 173.525375 -0.847700 -0.495399 -0.189698 0.421800 0.179400
K_BronzeHQ.jpg
20 -12.383224 -5.387602 179.736679 -0.996868 -0.073996 -0.027898 0.482100 0.242600
20 -11.483519 -5.387602 176.329926 -0.992639 0.030502 -0.117204 0.482100 0.200100
20 -8.189218 -12.489817 173.525375 -0.847700 -0.495399 -0.189698 0.421800 0.179400
K_BronzeHQ.jpg
20 -11.483623 -5.387602 183.143295 -0.955194 -0.189097 0.227700 0.482100 0.291600
20 -8.189318 10.091219 181.149429 -0.880109 0.466506 0.088201 0.568000 0.288600
20 -12.383224 -5.387602 179.736679 -0.996868 -0.073996 -0.027898 0.482100 0.242600
K_BronzeHQ.jpg
20 -8.189318 10.091219 181.149429 -0.880109 0.466506 0.088201 0.568000 0.288600
20 -8.189318 10.091221 177.742798 -0.785397 0.618499 -0.024700 0.585200 0.239700
20 -12.383224 -5.387602 179.736679 -0.996868 -0.073996 -0.027898 0.482100 0.242600
K_BronzeHQ.jpg
20 -8.189318 10.091219 181.149429 -0.880109 0.466506 0.088201 0.568000 0.288600
20 -0.000001 15.809839 185.125122 0.000001 0.985735 -0.168307 0.663900 0.313000
20 -8.189318 10.091221 177.742798 -0.785397 0.618499 -0.024700 0.585200 0.239700
K_BronzeHQ.jpg
20 -0.000001 15.809839 185.125122 0.000001 0.985735 -0.168307 0.663900 0.313000
20 -0.000001 13.385429 177.742798 0.000001 0.997477 0.070997 0.643100 0.236500
20 -8.189318 10.091221 177.742798 -0.785397 0.618499 -0.024700 0.585200 0.239700
K_BronzeHQ.jpg
20 0.000002 -22.627222 189.966904 -0.000002 -0.862890 -0.505392 0.340700 0.326600
20 -8.189316 -13.340614 183.143295 -0.643699 -0.761496 -0.075998 0.407900 0.285100
20 0.000001 -16.634926 179.736557 -0.000001 -0.992859 -0.119293 0.362500 0.226500
K_BronzeHQ.jpg
20 -8.189316 -13.340614 183.143295 -0.643699 -0.761496 -0.075998 0.407900 0.285100
20 -8.825514 -13.340616 179.736679 -0.733157 -0.678958 0.038699 0.400600 0.233700
20 0.000001 -16.634926 179.736557 -0.000001 -0.992859 -0.119293 0.362500 0.226500
K_BronzeHQ.jpg
20 -8.189316 -13.340614 183.143295 -0.643699 -0.761496 -0.075998 0.407900 0.285100
20 -11.483623 -5.387602 183.143295 -0.955194 -0.189097 0.227700 0.482100 0.291600
20 -8.825514 -13.340616 179.736679 -0.733157 -0.678958 0.038699 0.400600 0.233700
K_BronzeHQ.jpg
20 -11.483623 -5.387602 183.143295 -0.955194 -0.189097 0.227700 0.482100 0.291600
20 -12.383224 -5.387602 179.736679 -0.996868 -0.073996 -0.027898 0.482100 0.242600
20 -8.825514 -13.340616 179.736679 -0.733157 -0.678958 0.038699 0.400600 0.233700
K_BronzeHQ.jpg
20 -8.189318 10.091219 181.149429 -0.546184 0.220296 0.808178 0.376600 0.266600
20 -11.483623 -5.387602 183.143295 -0.546184 0.220296 0.808178 0.370200 0.257900
20 -0.000001 15.809839 185.125122 0.000001 0.263094 0.964770 0.392300 0.277500
end
